<svg width="128" height="43" xmlns="http://www.w3.org/2000/svg"><g fill="none"><path fill="#EF5030" d="M0 0h127.961v42.906H0z"/><path d="M19.282 16.424c-.27-.268-.36-.629-.36-1.076a1.152 1.152 0 0 1 .36-.898c.269-.269.54-.359.989-.359.449 0 .718.09.989.359.245.232.376.56.359.898 0 .449-.09.808-.36 1.076-.268.27-.539.36-.988.36-.45 0-.72-.09-.99-.36zm2.066 14.274h-2.157v-11.76h2.157v11.76zm3.593 0V14.542c1.168-.269 2.516-.359 4.043-.359 1.977 0 3.504.449 4.582 1.347.989.898 1.438 2.064 1.438 3.501 0 1.531-.45 2.694-1.258 3.502-1.167 1.167-2.784 1.7-4.936 1.7h-.989c-.243.02-.487-.01-.718-.09v6.553h-2.162v.002zm2.157-8.259c.56.12 1.13.18 1.702.18 1.258 0 2.247-.268 3.055-.897.719-.63 1.078-1.437 1.078-2.604 0-1.077-.36-1.885-1.078-2.423-.63-.54-1.617-.808-2.784-.808-.99 0-1.702.09-1.977.18v6.374l.004-.002zm10.781 6.823c-.989-.988-1.532-2.513-1.532-4.4 0-1.885.54-3.41 1.617-4.487 1.078-1.167 2.426-1.7 4.133-1.7 1.707 0 3.055.538 4.133 1.7a6.47 6.47 0 0 1 1.532 4.31c0 2.064-.63 3.59-1.798 4.76-.989.989-2.335 1.438-3.954 1.438a5.845 5.845 0 0 1-4.13-1.622v.001zm6.649-1.166c.718-.898 1.077-1.975 1.077-3.322 0-1.166-.27-2.154-.808-2.962-.719-.988-1.617-1.53-2.697-1.53-1.257 0-2.156.448-2.784 1.436-.627.9-.9 1.971-.9 3.145a5.009 5.009 0 0 0 1.077 3.23 3.146 3.146 0 0 0 5.036 0l-.001.003zm5.93 2.603V18.938h1.797l.09 2.333h.09a4.112 4.112 0 0 1 1.259-1.886c.63-.449 1.257-.718 1.887-.718l.719.09v1.975l-.809-.09a2.542 2.542 0 0 0-1.797.808c-.45.449-.809 1.166-.99 1.974a3.42 3.42 0 0 0-.09.988v6.292H50.46l-.002-.005zm8.985-13.914l2.067-.628v2.783h3.144v1.615H61.51v6.292c0 .63.09 1.257.359 1.701.269.359.63.54 1.258.54s.989 0 1.258-.091l.09 1.616a6.848 6.848 0 0 1-1.89.265c-.988 0-1.797-.269-2.335-.898-.538-.63-.808-1.616-.808-3.053v-6.374h-1.793v-1.615h1.798v-2.155l-.004.002zm9.883 13.914h-2.065V20.553H65.56v-1.615h1.702v-.54a9.996 9.996 0 0 1 .26-2.423 3.91 3.91 0 0 1 1.078-1.7c.38-.371.842-.648 1.348-.808a3.872 3.872 0 0 1 1.532-.269c.99 0 1.348.09 1.798.36l-.27 1.615a3.61 3.61 0 0 0-1.347-.269c-.9 0-1.528.359-1.886 1.077a5.674 5.674 0 0 0-.45 2.333v.629h2.793v1.616h-2.79v10.144l-.001-.004zm5.212-1.437c-1.078-1.076-1.617-2.513-1.617-4.4 0-1.885.54-3.41 1.617-4.487 1.168-1.167 2.516-1.7 4.223-1.7 1.707 0 3.055.538 4.042 1.7 1.078 1.347 1.617 2.513 1.617 4.31 0 2.064-.628 3.59-1.886 4.76-.988.989-2.335 1.438-3.954 1.438-1.618 0-2.963-.544-4.042-1.622v.001zm6.648-1.256a5.948 5.948 0 0 0 .99-3.232c0-1.166-.27-2.154-.81-2.962-.629-.988-1.531-1.53-2.695-1.53-1.165 0-2.067.448-2.785 1.436-.54.808-.809 1.885-.809 3.141 0 1.167.36 2.155.99 3.143.627.898 1.438 1.347 2.515 1.347.987.002 1.886-.447 2.604-1.345v.002zm5.93 2.693V13.462h2.067v17.236h-2.066v.001zm5.572-13.914c-.27-.269-.36-.628-.36-1.077a1.152 1.152 0 0 1 .36-.897c.269-.27.54-.36.989-.36.449 0 .718.09.989.36.245.232.376.56.359.897 0 .45-.09.808-.36 1.077-.268.269-.539.359-.988.359-.45 0-.72-.087-.99-.36zm2.156 13.914h-2.066V18.938h2.066v11.761zm4.313-1.437c-1.077-1.076-1.617-2.513-1.617-4.4 0-1.795.54-3.32 1.617-4.487 1.168-1.167 2.516-1.7 4.223-1.7 1.708 0 3.056.538 4.133 1.7a6.47 6.47 0 0 1 1.532 4.31c0 2.064-.63 3.59-1.888 4.76-.988.989-2.335 1.438-3.954 1.438-1.618 0-2.968-.544-4.046-1.622v.001zm6.649-1.256c.628-.808.989-1.886.989-3.232 0-1.166-.27-2.154-.809-2.962-.628-.988-1.532-1.53-2.696-1.53-1.164 0-2.066.538-2.696 1.53-.628.896-.902 1.877-.902 3.05 0 1.348.18 2.155.989 3.144.808.897 1.617 1.346 2.516 1.346.992-.001 1.89-.45 2.609-1.348v.002z" fill="#FFF"/></g></svg>