<svg width="115" height="23" xmlns="http://www.w3.org/2000/svg" xmlns:xlink="http://www.w3.org/1999/xlink"><defs><path d="M.46 4.112C.117 3.77.002 3.31.002 2.741c-.023-.43.145-.848.458-1.144.343-.343.689-.457 1.262-.457.574 0 .917.114 1.262.457.313.296.481.714.458 1.144 0 .572-.115 1.029-.458 1.371-.343.342-.688.457-1.262.457-.573 0-.919-.115-1.262-.457zm2.637 18.185H.345V7.314h2.752v14.983zm4.585 0V1.714c1.49-.343 3.21-.458 5.158-.458 2.523 0 4.471.572 5.847 1.716 1.262 1.144 1.835 2.63 1.835 4.462 0 1.95-.573 3.432-1.605 4.46-1.49 1.487-3.553 2.167-6.298 2.167h-1.262a2.24 2.24 0 0 1-.917-.114v8.348H7.682v.002zm2.752-10.521c.714.15 1.442.228 2.172.23 1.605 0 2.867-.343 3.898-1.145.917-.801 1.375-1.83 1.375-3.317 0-1.372-.458-2.401-1.375-3.087-.803-.687-2.063-1.03-3.553-1.03-1.262 0-2.172.115-2.522.23v8.12l.005-.001zm13.757 8.692c-1.262-1.259-1.955-3.202-1.955-5.605 0-2.403.688-4.346 2.063-5.718 1.375-1.486 3.095-2.166 5.274-2.166 2.178 0 3.898.686 5.273 2.166a8.236 8.236 0 0 1 1.955 5.49c0 2.63-.804 4.574-2.294 6.067-1.262 1.259-2.98 1.83-5.045 1.83a7.464 7.464 0 0 1-5.271-2.066v.002zm8.483-1.486c.917-1.144 1.375-2.516 1.375-4.232 0-1.486-.344-2.744-1.032-3.774-.916-1.259-2.063-1.95-3.44-1.95-1.605 0-2.752.572-3.553 1.83-.8 1.147-1.15 2.512-1.15 4.007a6.375 6.375 0 0 0 1.376 4.117 4.017 4.017 0 0 0 6.426 0l-.002.002zm7.567 3.317V7.314h2.294l.115 2.973h.115a5.238 5.238 0 0 1 1.605-2.403c.804-.572 1.605-.914 2.409-.914l.916.115V9.6l-1.032-.115a3.246 3.246 0 0 0-2.293 1.03c-.573.572-1.032 1.486-1.262 2.515-.1.412-.14.836-.115 1.259v8.016h-2.75l-.002-.006zM51.707 4.57l2.636-.799v3.545h4.012v2.058h-4.012v8.016c0 .802.115 1.602.459 2.167.343.457.803.687 1.605.687.801 0 1.262 0 1.605-.115l.115 2.058a8.75 8.75 0 0 1-2.411.338c-1.262 0-2.294-.342-2.98-1.144-.686-.801-1.032-2.058-1.032-3.889v-8.12h-2.287V7.314h2.294V4.57l-.004.002zm12.61 17.73h-2.635V9.373H59.51V7.314h2.172v-.686a12.717 12.717 0 0 1 .333-3.088 4.982 4.982 0 0 1 1.374-2.167A4.318 4.318 0 0 1 65.11.344a4.947 4.947 0 0 1 1.955-.342c1.262 0 1.72.115 2.294.457l-.343 2.058a4.612 4.612 0 0 0-1.72-.342c-1.147 0-1.95.457-2.407 1.372a7.22 7.22 0 0 0-.573 2.972v.802h3.564v2.058h-3.56v12.924l-.002-.004zm6.65-1.83c-1.375-1.372-2.063-3.203-2.063-5.606s.688-4.346 2.063-5.718c1.49-1.486 3.21-2.166 5.389-2.166 2.178 0 3.898.686 5.158 2.166 1.375 1.716 2.063 3.203 2.063 5.49 0 2.63-.801 4.574-2.406 6.067-1.262 1.259-2.98 1.83-5.046 1.83-2.065 0-3.78-.692-5.158-2.066v.002zm8.484-1.602a7.57 7.57 0 0 0 1.262-4.117c0-1.486-.344-2.744-1.032-3.774-.804-1.259-1.955-1.95-3.44-1.95-1.486 0-2.637.572-3.554 1.83-.688 1.03-1.031 2.402-1.031 4.003 0 1.486.458 2.745 1.262 4.004.801 1.144 1.835 1.716 3.21 1.716 1.26.002 2.406-.57 3.323-1.714v.002zm7.567 3.432V.338h2.636v21.959h-2.636v.002zm7.108-17.73c-.343-.342-.458-.799-.458-1.371-.023-.43.145-.848.458-1.144.343-.342.689-.457 1.262-.457.574 0 .917.115 1.262.457.313.296.481.714.458 1.144 0 .572-.115 1.03-.458 1.371-.343.343-.688.458-1.262.458-.573 0-.919-.11-1.262-.46v.002zm2.752 17.73h-2.637V7.314h2.637V22.3zm5.504-1.83c-1.375-1.372-2.064-3.203-2.064-5.606 0-2.288.689-4.231 2.064-5.718 1.49-1.486 3.21-2.166 5.388-2.166 2.179 0 3.899.686 5.274 2.166a8.236 8.236 0 0 1 1.954 5.49c0 2.63-.803 4.574-2.408 6.067-1.262 1.259-2.98 1.83-5.046 1.83-2.065 0-3.787-.692-5.162-2.066v.002zm8.483-1.602c.802-1.03 1.262-2.403 1.262-4.117 0-1.486-.344-2.744-1.032-3.774-.801-1.259-1.954-1.95-3.44-1.95-1.485 0-2.637.687-3.44 1.95-.802 1.142-1.151 2.392-1.151 3.887 0 1.716.23 2.745 1.262 4.004 1.031 1.144 2.063 1.716 3.21 1.716 1.266-.002 2.413-.574 3.33-1.718v.002z" id="a"/></defs><g fill="none" fill-rule="evenodd"><mask id="b" fill="#fff"><use xlink:href="#a"/></mask><use fill="#333" fill-rule="nonzero" xlink:href="#a"/><g mask="url(#b)" fill="#333"><path d="M0 0h114.562v22.912H0z"/></g></g></svg>