<svg width="121" height="29" xmlns="http://www.w3.org/2000/svg" xmlns:xlink="http://www.w3.org/1999/xlink"><defs><path d="M.46 4.197c-.343-.35-.458-.818-.458-1.4A1.514 1.514 0 0 1 .46 1.63c.343-.35.689-.467 1.262-.467.574 0 .917.117 1.262.467.313.302.481.729.458 1.167 0 .584-.115 1.05-.458 1.4-.343.35-.688.467-1.262.467-.573 0-.919-.117-1.262-.467zm2.637 18.561H.345V7.466h2.752v15.292zm4.585 0V1.75c1.49-.35 3.21-.467 5.158-.467 2.523 0 4.471.584 5.847 1.752 1.262 1.168 1.835 2.685 1.835 4.553 0 1.99-.573 3.503-1.605 4.554-1.49 1.517-3.553 2.211-6.298 2.211h-1.262a2.198 2.198 0 0 1-.917-.117v8.52H7.682v.003zm2.752-10.739a10.37 10.37 0 0 0 2.172.235c1.605 0 2.867-.35 3.898-1.168.917-.818 1.375-1.869 1.375-3.386 0-1.4-.458-2.45-1.375-3.151-.803-.701-2.063-1.05-3.553-1.05-1.262 0-2.172.117-2.522.234v8.288l.005-.002zm13.757 8.873c-1.262-1.285-1.955-3.269-1.955-5.721 0-2.453.688-4.437 2.063-5.837 1.375-1.517 3.095-2.211 5.274-2.211 2.178 0 3.898.701 5.273 2.211a8.514 8.514 0 0 1 1.955 5.604c0 2.685-.804 4.669-2.294 6.192-1.262 1.285-2.98 1.87-5.045 1.87a7.382 7.382 0 0 1-5.271-2.11v.002zm8.483-1.517c.917-1.168 1.375-2.568 1.375-4.32 0-1.517-.344-2.8-1.032-3.852-.916-1.285-2.063-1.99-3.44-1.99-1.605 0-2.752.584-3.553 1.869-.8 1.17-1.15 2.563-1.15 4.089a6.595 6.595 0 0 0 1.376 4.201 3.99 3.99 0 0 0 3.213 1.638 3.99 3.99 0 0 0 3.213-1.638l-.002.003zm7.567 3.385V7.466h2.294l.115 3.034h.115a5.354 5.354 0 0 1 1.605-2.453c.804-.583 1.605-.933 2.409-.933l.916.117V9.8l-1.032-.117c-.872.021-1.698.4-2.293 1.05-.573.584-1.032 1.517-1.262 2.568-.1.42-.14.853-.115 1.284v8.183h-2.75l-.002-.007zM51.707 4.666l2.636-.816v3.618h4.012v2.1h-4.012v8.183c0 .819.115 1.635.459 2.212.343.466.803.7 1.605.7.801 0 1.262 0 1.605-.116l.115 2.1a8.586 8.586 0 0 1-2.411.345c-1.262 0-2.294-.349-2.98-1.167-.686-.818-1.032-2.101-1.032-3.97V9.567h-2.287V7.466h2.294V4.664l-.004.002zm12.61 18.094h-2.635V9.567H59.51V7.466h2.172v-.701c-.016-1.06.096-2.119.333-3.152a5.1 5.1 0 0 1 1.374-2.211 4.301 4.301 0 0 1 1.72-1.05 4.858 4.858 0 0 1 1.955-.35c1.262 0 1.72.117 2.294.467l-.343 2.1a4.53 4.53 0 0 0-1.72-.349c-1.147 0-1.95.467-2.407 1.4a7.502 7.502 0 0 0-.573 3.034v.818h3.564v2.101h-3.56v13.192l-.002-.005zm6.65-1.868c-1.375-1.4-2.063-3.269-2.063-5.721 0-2.453.688-4.437 2.063-5.837 1.49-1.517 3.21-2.211 5.389-2.211 2.178 0 3.898.701 5.158 2.211 1.375 1.752 2.063 3.269 2.063 5.604 0 2.685-.801 4.669-2.406 6.192-1.262 1.285-2.98 1.87-5.046 1.87-2.065 0-3.78-.709-5.158-2.11v.002zm8.484-1.635a7.84 7.84 0 0 0 1.262-4.201c0-1.518-.344-2.802-1.032-3.853-.804-1.285-1.955-1.99-3.44-1.99-1.486 0-2.637.584-3.554 1.869-.688 1.05-1.031 2.45-1.031 4.084 0 1.517.458 2.802 1.262 4.087.801 1.168 1.835 1.751 3.21 1.751 1.26.003 2.406-.581 3.323-1.749v.002zm7.567 3.503V.345h2.636v22.413h-2.636v.002zm7.108-18.094c-.343-.35-.458-.816-.458-1.4a1.514 1.514 0 0 1 .458-1.167c.343-.35.689-.467 1.262-.467.574 0 .917.117 1.262.467.313.302.481.728.458 1.167 0 .584-.115 1.05-.458 1.4-.343.35-.688.467-1.262.467-.573 0-.919-.113-1.262-.47v.003zm2.752 18.094h-2.637V7.466h2.637V22.76zm5.504-1.868c-1.375-1.4-2.064-3.269-2.064-5.721 0-2.336.689-4.32 2.064-5.837 1.49-1.517 3.21-2.211 5.388-2.211 2.179 0 3.899.701 5.274 2.211a8.514 8.514 0 0 1 1.954 5.604c0 2.685-.803 4.669-2.408 6.192-1.262 1.285-2.98 1.87-5.046 1.87-2.065 0-3.787-.709-5.162-2.11v.002zm8.483-1.635c.802-1.05 1.262-2.452 1.262-4.201 0-1.518-.344-2.802-1.032-3.853-.801-1.285-1.954-1.99-3.44-1.99-1.485 0-2.637.7-3.44 1.99-.802 1.166-1.151 2.442-1.151 3.968 0 1.751.23 2.801 1.262 4.086 1.031 1.168 2.063 1.752 3.21 1.752 1.266-.002 2.413-.586 3.33-1.754v.002z" id="b"/><filter x="-4.8%" y="-15.2%" width="109.6%" height="147.8%" filterUnits="objectBoundingBox" id="a"><feOffset dy="2" in="SourceAlpha" result="shadowOffsetOuter1"/><feGaussianBlur stdDeviation="1.5" in="shadowOffsetOuter1" result="shadowBlurOuter1"/><feColorMatrix values="0 0 0 0 0 0 0 0 0 0 0 0 0 0 0 0 0 0 0.5 0" in="shadowBlurOuter1"/></filter></defs><g transform="translate(3 1)" fill="none"><use fill="#000" filter="url(#a)" xlink:href="#b"/><use fill="#FFF" xlink:href="#b"/></g></svg>