<?xml version="1.0" encoding="UTF-8"?>
<svg width="50px" height="60px" viewBox="0 0 50 60" version="1.1" xmlns="http://www.w3.org/2000/svg" xmlns:xlink="http://www.w3.org/1999/xlink">
    <!-- Generator: Sketch 51.1 (57501) - http://www.bohemiancoding.com/sketch -->
    <title>spindle/ic/server</title>
    <desc>Created with Sketch.</desc>
    <defs></defs>
    <g id="Symbols" stroke="none" stroke-width="1" fill="none" fill-rule="evenodd">
        <g id="spindle/ic/server" fill-rule="nonzero">
            <g id="General/traditionalserver" transform="translate(5.000000, 1.000000)">
                <path d="M26.25,2 C27.9068542,2 29.25,3.34864021 29.25,5.01227222 L41,50.1963555 L41,52.9877278 C41,54.6513598 39.6568542,56 38,56 L3,56 C1.34314575,56 0,54.6513598 0,52.9877278 L0,50.46746 L13.19,5.02231313 C13.19,3.35868112 14.5331458,2.01004091 16.19,2.01004091 L26.25,2 Z" id="Shape" fill="#4F4F4F"></path>
                <path d="M38,-9.9475983e-14 C39.6568542,-1.03045221e-13 41,1.34939294 41,3.01395349 L41,50.9860465 C41,52.6506071 39.6568542,54 38,54 L3,54 C1.34314575,54 0,52.6506071 0,50.9860465 L0,3.024 C0,1.35943945 1.34314575,0.0100465116 3,0.0100465116 L38,-9.9475983e-14 Z" id="Shape" fill="#7D7C7C"></path>
                <path d="M34,23 L6,23 L6,19.6351351 L34,19.6351351 L34,23 Z M34,17.3141892 L6,17.3141892 L6,13.9493243 L34,13.9493243 L34,17.3141892 Z M34,11.3648649 L6,11.3648649 L6,8 L34,8 L34,11.3648649 Z" id="Shape" fill="#FFFFFF"></path>
            </g>
        </g>
    </g>
</svg>