<?xml version="1.0" encoding="UTF-8"?>
<svg width="50px" height="60px" viewBox="0 0 50 60" version="1.1" xmlns="http://www.w3.org/2000/svg" xmlns:xlink="http://www.w3.org/1999/xlink">
    <!-- Generator: Sketch 51.1 (57501) - http://www.bohemiancoding.com/sketch -->
    <title>spindle_ic_db</title>
    <desc>Created with Sketch.</desc>
    <defs></defs>
    <g id="Symbols" stroke="none" stroke-width="1" fill="none" fill-rule="evenodd">
        <g id="spindle/ic/DBinstance" fill-rule="nonzero">
            <g id="Database/AmazonRDS/DBinstance" transform="translate(3.000000, 0.000000)">
                <g id="Group">
                    <path d="M43.82,8.66 C43.82,11.66 34.05,14.16 22,14.16 C9.95,14.16 0.18,11.7 0.18,8.66 L0.18,6.18 L22,3.18 L43.82,6.18 L43.82,8.66 Z" id="Shape" fill="#19486F"></path>
                    <path d="M22,18.56 L0.18,49.34 L0.18,51.82 C0.18,54.82 9.95,57.32 22,57.32 C34.05,57.32 43.82,54.86 43.82,51.82 L43.82,49.34 L22,18.56 Z" id="Shape" fill="#19486F"></path>
                    <ellipse id="Oval" fill="#2E73B8" cx="22" cy="6.18" rx="21.82" ry="5.5"></ellipse>
                    <path d="M22,16.08 C9.95,16.08 0.18,13.62 0.18,10.58 L0.18,49.34 C0.18,52.34 9.95,54.84 22,54.84 C34.05,54.84 43.82,52.38 43.82,49.34 L43.82,10.58 C43.82,13.62 34.05,16.08 22,16.08 Z" id="Shape" fill="#2E73B8"></path>
                </g>
            </g>
        </g>
    </g>
</svg>