<?xml version="1.0" encoding="UTF-8"?>
<svg width="50px" height="60px" viewBox="0 0 50 60" version="1.1" xmlns="http://www.w3.org/2000/svg" xmlns:xlink="http://www.w3.org/1999/xlink">
    <!-- Generator: Sketch 51.1 (57501) - http://www.bohemiancoding.com/sketch -->
    <title>spindle_ic_sync</title>
    <desc>Created with Sketch.</desc>
    <defs></defs>
    <g id="Symbols" stroke="none" stroke-width="1" fill="none" fill-rule="evenodd">
        <g id="spindle/ic/Sync-Server">
            <g id="Database/AmazonDynamoDB/table" transform="translate(-1.000000, 0.000000)">
                <g id="Group-3" transform="translate(0.000000, 45.000000)">
                    <g id="Group-2" fill-rule="nonzero">
                        <polygon id="Shape" fill="#19486F" points="50.9667969 11.98 0.966796875 11.98 0.966796875 9.5 25.9667969 2.48 50.9667969 9.5"></polygon>
                        <rect id="Rectangle-path" fill="#2E73B8" x="0.966796875" y="-1.0658141e-14" width="50" height="9.5"></rect>
                    </g>
                    <rect id="Rectangle-3" fill="#FFFFFF" x="43" y="3" width="4" height="4" rx="2"></rect>
                    <rect id="Rectangle-3" fill="#FFFFFF" x="5" y="3" width="30" height="4"></rect>
                </g>
                <g id="Group-3" transform="translate(0.000000, 30.000000)">
                    <g id="Group-2" fill-rule="nonzero">
                        <polygon id="Shape" fill="#19486F" points="50.9667969 11.98 0.966796875 11.98 0.966796875 9.5 25.9667969 2.48 50.9667969 9.5"></polygon>
                        <rect id="Rectangle-path" fill="#2E73B8" x="0.966796875" y="-1.0658141e-14" width="50" height="9.5"></rect>
                    </g>
                    <rect id="Rectangle-3" fill="#FFFFFF" x="43" y="3" width="4" height="4" rx="2"></rect>
                    <rect id="Rectangle-3" fill="#FFFFFF" x="5" y="3" width="30" height="4"></rect>
                </g>
                <g id="Group-3" transform="translate(0.000000, 15.000000)">
                    <g id="Group-2" fill-rule="nonzero">
                        <polygon id="Shape" fill="#19486F" points="50.9667969 11.98 0.966796875 11.98 0.966796875 9.5 25.9667969 2.48 50.9667969 9.5"></polygon>
                        <rect id="Rectangle-path" fill="#2E73B8" x="0.966796875" y="-1.0658141e-14" width="50" height="9.5"></rect>
                    </g>
                    <rect id="Rectangle-3" fill="#FFFFFF" x="43" y="3" width="4" height="4" rx="2"></rect>
                    <rect id="Rectangle-3" fill="#FFFFFF" x="5" y="3" width="30" height="4"></rect>
                </g>
                <g id="Group-3">
                    <g id="Group-2" fill-rule="nonzero">
                        <polygon id="Shape" fill="#19486F" points="50.9667969 11.98 0.966796875 11.98 0.966796875 9.5 25.9667969 2.48 50.9667969 9.5"></polygon>
                        <rect id="Rectangle-path" fill="#2E73B8" x="0.966796875" y="-1.0658141e-14" width="50" height="9.5"></rect>
                    </g>
                    <rect id="Rectangle-3" fill="#FFFFFF" x="43" y="3" width="4" height="4" rx="2"></rect>
                    <rect id="Rectangle-3" fill="#FFFFFF" x="5" y="3" width="30" height="4"></rect>
                </g>
            </g>
        </g>
    </g>
</svg>