<?xml version="1.0" encoding="UTF-8"?>
<svg width="386px" height="79px" viewBox="0 0 386 79" version="1.1" xmlns="http://www.w3.org/2000/svg" xmlns:xlink="http://www.w3.org/1999/xlink">
    <!-- Generator: Sketch 51.2 (57519) - http://www.bohemiancoding.com/sketch -->
    <title>spindle_logo_authoring</title>
    <desc>Created with Sketch.</desc>
    <defs></defs>
    <g id="브랜드사이트" stroke="none" stroke-width="1" fill="none" fill-rule="evenodd">
        <g id="iPF_brandsite" transform="translate(-130.000000, -3205.000000)">
            <g id="spindlebooks" transform="translate(0.000000, 2462.000000)">
                <g id="ebookPlatform" transform="translate(130.000000, 424.000000)">
                    <g id="spindle_authoring" transform="translate(0.000000, 319.000000)">
                        <g id="spindle_logo_authoring">
                            <g id="spindle/ic/AWS" transform="translate(305.000000, 40.000000)">
                                <g id="Shape">
                                    <path d="M29.6791667,13.1777625 L29.6791667,14.4914207 C29.6791667,16.8840082 27.0208333,19.3548387 23.75,19.3548387 L6.25,19.3548387 C2.97916667,19.3548387 0.320833333,16.8840082 0.320833333,14.4914207 L0.320833333,13.1777625 L29.6791667,13.1777625 Z" fill="#9D5125" fill-rule="nonzero"></path>
                                    <path d="M11.6208333,0.370624571 C14.5677711,0.365842677 17.2444347,2.06716857 18.4625,4.7192862 C19.605977,3.94688915 21.0835971,3.84894793 22.3211902,4.4635203 C23.5587833,5.07809268 24.3612105,6.30827525 24.4166667,7.67604667 C27.375,7.91901167 29.6791667,10.7398765 29.6791667,12.9800961 L29.6791667,13.4660261 C29.6791667,15.8750858 27.0208333,18.3170899 23.7375,18.3170899 L6.25,18.3170899 C2.975,18.3170899 0.316666667,15.8750858 0.316666667,13.4660261 L0.316666667,12.9842141 C0.316666667,11.1269732 1.89583333,8.57378174 4.11666667,7.93960192 L4.11666667,7.72958133 C4.12438707,5.7702148 4.9193433,3.89413162 6.32665082,2.5140563 C7.73395835,1.13398098 9.6383355,0.362964413 11.6208333,0.370624571 L11.6208333,0.370624571 Z" fill="#F58535" fill-rule="nonzero"></path>
                                    <path d="M7.675,8.33630748 L5.7125,15.110501 L6.8625,15.110501 L7.30416667,13.4632807 L9.325,13.4632807 L9.74166667,15.110501 L10.8916667,15.110501 L9.0875,8.33630748 L7.675,8.33630748 Z M7.5,12.5861359 L8.33333333,9.2381606 L8.33333333,9.2381606 L9.125,12.5778998 L7.5,12.5861359 Z M15.8291667,13.6280027 L16.7291667,8.33630748 L17.8208333,8.33630748 L16.45,15.110501 L15.175,15.110501 L14.2875,10.0082361 L14.2666667,10.0082361 L13.3875,15.110501 L12.1083333,15.110501 L10.7791667,8.33630748 L11.8916667,8.33630748 L12.7958333,13.5991764 L12.8166667,13.5991764 L13.725,8.33630748 L14.8833333,8.33630748 L15.8125,13.6280027 L15.8291667,13.6280027 Z M21.3666667,11.4124914 C22.3416667,11.7501716 22.7708333,12.273164 22.7583333,13.1997255 C22.7583333,14.6410432 21.8666667,15.2381606 20.475,15.2381606 C18.7791667,15.2381606 18.3916667,14.1262869 18.3916667,13.1791352 L18.3916667,13.0185312 L19.4916667,13.0185312 L19.4916667,13.1914894 C19.4916667,14.0150995 19.8583333,14.4269046 20.6208333,14.4269046 C20.8958618,14.4468143 21.1665581,14.3506862 21.3658721,14.1623307 C21.5651861,13.9739753 21.6744743,13.7110108 21.6666667,13.4385724 C21.7027347,12.8455162 21.2705652,12.3250673 20.675,12.2443377 L19.9208333,11.9849005 C18.9,11.6060398 18.4833333,11.0954015 18.4833333,10.1276596 C18.4833333,8.89224434 19.3333333,8.20864791 20.6291667,8.20864791 C22.3958333,8.20864791 22.5791667,9.29169526 22.5791667,9.9917639 L22.5791667,10.1441318 L21.475,10.1441318 L21.475,10 C21.5183114,9.73369326 21.4315429,9.46283945 21.2410459,9.26969595 C21.0505489,9.07655245 20.7788018,8.98391004 20.5083333,9.01990391 C20.2472629,9.00439999 19.9927623,9.10458067 19.8139639,9.29323295 C19.6351654,9.48188523 19.5506346,9.73942044 19.5833333,9.99588195 C19.5833333,10.5765271 19.8916667,10.8853809 20.6208333,11.1448181 L21.3666667,11.4124914 Z" fill="#FFFFFF" fill-rule="nonzero"></path>
                                </g>
                            </g>
                            <text id="Authoring-Tool" font-family="SourceSerifPro-Semibold, Source Serif Pro" font-size="23" font-weight="500" fill="#222222">
                                <tspan x="143" y="58">Authoring Tool</tspan>
                            </text>
                            <g id="logo/spindle-Copy-1" transform="translate(51.000000, 40.000000)" fill="#222222">
                                <path d="M5.83437571,17.1501055 C7.1093525,17.1501055 7.74683134,16.7103636 7.74683134,15.8308666 C7.74683134,15.3361496 7.37265898,14.9376335 6.62430303,14.6353064 C5.87594709,14.3329793 5.05831119,13.989431 4.17137081,13.604651 C3.28443043,13.2198711 2.46679453,12.7251615 1.71843859,12.1205073 C0.970082641,11.5158531 0.595910281,10.6638532 0.595910281,9.56448193 C0.595910281,8.13529932 1.108665,7.10465425 2.13418981,6.47251579 C3.15971462,5.84037733 4.39309759,5.52431284 5.83437571,5.52431284 C6.2778459,5.52431284 6.77674238,5.56553864 7.33108011,5.64799148 C7.88541785,5.73044433 8.39817257,5.8816056 8.86935964,6.10147985 C9.34054672,6.3213541 9.74243555,6.60993472 10.0750382,6.96723037 C10.4076408,7.32452602 10.5739397,7.77800985 10.5739397,8.32769547 L10.5739397,9.15221978 C10.5739397,9.31712546 10.5185067,9.4545448 10.4076392,9.56448193 C10.2413379,9.83932474 9.79787432,9.97674408 9.07723526,9.97674408 C8.3565962,9.97674408 7.91313266,9.83932474 7.74683134,9.56448193 C7.63596379,9.4545448 7.58053085,9.31712546 7.58053085,9.15221978 C7.58053085,8.82240841 7.40037379,8.57505359 7.04005426,8.4101479 C6.67973473,8.24524222 6.30556237,8.16279061 5.91752595,8.16279061 C5.30775444,8.16279061 4.80885796,8.25898415 4.42082154,8.45137412 C4.03278513,8.64376408 3.83876983,8.95982857 3.83876983,9.39957707 C3.83876983,9.89429412 4.21294219,10.2928102 4.96129814,10.5951373 C5.70965408,10.8974644 6.54114821,11.2410128 7.45580548,11.6257927 C8.37046275,12.0105726 9.21581512,12.4915403 9.99188795,13.0687102 C10.7679608,13.6458801 11.1559914,14.511622 11.1559914,15.6659618 C11.1559914,16.9302387 10.6432367,17.9333999 9.61771185,18.6754755 C8.59218703,19.4175511 7.3310876,19.7885833 5.83437571,19.7885833 C4.89200155,19.7885833 4.10208213,19.6786478 3.46459373,19.4587736 C2.82710533,19.2388993 2.28663414,18.9915445 1.84316395,18.7167017 C1.34425999,18.4418589 0.928512923,18.0845686 0.595910281,17.6448201 C0.429608959,17.534883 0.318743075,17.3699798 0.263309301,17.1501055 C0.152441754,16.7653256 0.291024109,16.3805514 0.679060526,15.9957715 C0.956229394,15.7209287 1.1918194,15.5560255 1.38583761,15.5010569 C1.57985581,15.4460884 1.76001288,15.4460884 1.9263142,15.5010569 C2.14804929,15.5560255 2.31434812,15.665961 2.42521567,15.8308666 C2.64695076,16.0507409 2.92411547,16.2706118 3.25671812,16.4904861 C3.53388698,16.6553918 3.88034287,16.806553 4.29609618,16.9439745 C4.71184948,17.0813959 5.2246042,17.1501055 5.83437571,17.1501055 Z M27.7028901,19.7885833 C27.3148537,19.7885833 27.1208384,19.5961962 27.1208384,19.2114163 L27.1208384,7.91543332 C27.1208384,6.87103065 27.6474513,6.32135327 28.700693,6.26638471 L28.8669935,6.26638471 C29.476765,6.21141615 29.8786539,6.36257743 30.0726721,6.71987308 C30.2666903,7.07716873 30.3914144,7.47568483 30.4468482,7.91543332 L30.4468482,19.2114163 C30.4468482,19.5961962 30.2528329,19.7885833 29.8647965,19.7885833 L27.7028901,19.7885833 Z M27.2871389,4.20507395 C26.7882349,3.82029402 26.5387867,3.29810051 26.5387867,2.63847777 C26.5387867,2.08879216 26.7605184,1.59408252 27.2039886,1.15433403 C27.5365913,0.824522655 28.0632042,0.604651706 28.7838433,0.494714583 C29.3936148,0.494714583 29.8925113,0.687101663 30.2805477,1.0718816 C30.6685841,1.51163009 30.9180324,2.00633973 31.0288999,2.55602534 L31.0288999,2.63847777 C31.0288999,3.24313195 30.8348846,3.73784159 30.4468482,4.12262152 C30.0588118,4.50740145 29.5044823,4.69978853 28.7838433,4.69978853 C28.118638,4.69978853 27.6197415,4.53488532 27.2871389,4.20507395 Z M49.1556533,17.8921774 C48.6013155,17.2875232 48.157852,16.5454588 47.8252494,15.6659618 C47.4926467,14.8414334 47.3263479,13.879498 47.3263479,12.7801267 C47.3263479,11.9555983 47.4926467,11.0761145 47.8252494,10.1416489 C48.0469845,9.31712051 48.4350151,8.60253993 48.9893528,7.99788575 C49.2665217,7.61310582 49.5714028,7.28329939 49.9040055,7.00845659 C50.2366081,6.73361378 50.5692058,6.51374283 50.9018084,6.34883714 C51.7887488,5.90908865 52.7033923,5.6892177 53.6457665,5.6892177 C54.255538,5.6892177 54.7960092,5.75792737 55.2671963,5.89534877 C55.7383834,6.03277018 56.1957051,6.21141533 56.6391753,6.43128957 C56.8054766,6.5412267 56.9302008,6.59619443 57.0133514,6.59619443 C57.0965021,6.59619443 57.1935097,6.65116217 57.3043773,6.76109929 L57.3043773,1.73150104 C57.2489435,1.29175254 57.3736676,0.893236449 57.6785534,0.535940798 C57.9834391,0.178645146 58.385328,0 58.8842319,0 C59.5494372,0 59.9790425,0.178645146 60.1730607,0.535940798 C60.3670789,0.893236449 60.4918031,1.29175254 60.5472368,1.73150104 L60.5472368,19.2114163 C60.5472368,19.5961962 60.3532215,19.7885833 59.9651851,19.7885833 L57.9695792,19.7885833 C57.526109,19.7885833 57.3043773,19.5961962 57.3043773,19.2114163 L57.3043773,18.5517968 C57.2489435,18.661734 57.1935106,18.7304436 57.1380768,18.7579279 C57.082643,18.7854122 57.0272101,18.826638 56.9717763,18.8816066 C56.5837399,19.1564494 56.0848434,19.3763203 55.4750719,19.541226 C54.8653004,19.7061317 54.2832545,19.7885833 53.7289167,19.7885833 C52.7865426,19.7885833 51.9550485,19.6236801 51.2344094,19.2938687 C50.4583366,18.9640573 49.7654248,18.4968316 49.1556533,17.8921774 Z M51.0681089,10.8837208 C50.9018076,11.488375 50.8186582,12.120504 50.8186582,12.7801267 C50.8186582,13.0549695 50.8325164,13.3298082 50.8602333,13.604651 C50.8879502,13.8794938 50.9295249,14.1543325 50.9849587,14.4291753 C51.0958262,14.8689238 51.2759833,15.3498915 51.5254353,15.8720929 C51.7748872,16.3942942 52.1490596,16.7928103 52.6479636,17.0676531 C53.0914338,17.3424959 53.5903302,17.4799152 54.144668,17.4799152 C54.4772706,17.4799152 54.8653012,17.3699798 55.3087714,17.1501055 C55.7522416,16.8752627 56.1125557,16.600424 56.3897246,16.3255812 C56.6668935,16.0507384 56.8886252,15.5285449 57.0549265,14.758985 C57.1103603,14.4841422 57.1657933,14.1818197 57.221227,13.8520083 C57.2766608,13.5221969 57.3043773,12.9725196 57.3043773,12.2029597 C57.3043773,11.9281169 57.290519,11.6807621 57.2628022,11.4608878 C57.2350853,11.2410136 57.1935106,10.9936588 57.1380768,10.718816 C56.6946066,8.95982198 55.6690972,8.08033818 54.0615177,8.08033818 C53.2854449,8.08033818 52.6479661,8.35517687 52.1490621,8.90486249 C51.6501581,9.4545481 51.289844,10.114161 51.0681089,10.8837208 Z M63.7900964,19.7885833 C63.40206,19.7885833 63.2080447,19.5961962 63.2080447,19.2114163 L63.2080447,1.73150104 C63.2080447,1.12684686 63.3743435,0.687104961 63.7069461,0.412262152 C64.0395488,0.137419343 64.4275794,0 64.8710496,0 C65.3145197,0 65.6886921,0.164903212 65.9935779,0.494714583 C66.2984636,0.824525953 66.4509042,1.23678398 66.4509042,1.73150104 L66.4509042,19.2114163 C66.4509042,19.5961962 66.2568889,19.7885833 65.8688525,19.7885833 L63.7900964,19.7885833 Z M81.5842488,9.39957707 C81.6951163,9.67441988 81.7644075,9.9630005 81.7921244,10.2653276 C81.8198413,10.5676547 81.861416,10.8562353 81.9168498,11.1310781 C81.9722835,11.4059209 82,11.7082435 82,12.0380548 L82,12.8625791 C82,13.3023276 81.7782682,13.5221986 81.334798,13.5221986 L72.0219706,13.5221986 C72.1882719,14.6215698 72.604019,15.4460859 73.2692243,15.9957715 C74.0452971,16.8202999 75.153956,17.3150096 76.5952341,17.4799152 C77.9810784,17.4799152 79.2283196,17.2600443 80.3369951,16.8202958 C80.614164,16.7103587 80.8913287,16.7378426 81.1684976,16.9027482 C81.3902326,17.0126854 81.5565315,17.2325563 81.667399,17.5623677 C81.667399,17.6723048 81.6812573,17.7822403 81.7089741,17.8921774 C81.736691,18.0021145 81.7228328,18.1395339 81.667399,18.3044396 C81.6119652,18.4143767 81.5426741,18.5243122 81.4595234,18.6342493 C81.3763727,18.7441864 81.2239322,18.8541219 81.0021971,18.964059 C80.281558,19.2389018 79.5332133,19.4587728 78.7571405,19.6236784 C78.4245378,19.678647 78.0503654,19.7198728 77.6346121,19.7473571 C77.2188588,19.7748414 76.6506712,19.7885833 75.9300321,19.7885833 C74.7104891,19.6786462 73.7404126,19.4862591 73.0197736,19.2114163 C72.5763034,19.0465106 72.1605563,18.8266397 71.7725199,18.5517968 C71.3844835,18.276954 70.9964529,17.9746315 70.6084165,17.6448201 C70.2758138,17.3699773 69.9847909,17.0264289 69.7353389,16.6141647 C69.4858869,16.2019005 69.2502969,15.7759006 69.0285618,15.3361521 C68.8622605,14.8964036 68.7236781,14.4291778 68.6128106,13.9344607 C68.501943,13.4397437 68.4465101,12.8900663 68.4465101,12.2854121 C68.4465101,11.1860409 68.6682419,10.2515894 69.111712,9.4820295 C69.8877849,7.72303552 71.190459,6.59619691 73.0197736,6.10147985 C73.5186775,5.93657417 74.0037158,5.82663869 74.4749028,5.77167013 C74.9460899,5.71670157 75.4588446,5.6892177 76.0131824,5.6892177 C76.7892552,5.6892177 77.5514582,5.84037898 78.2998141,6.14270607 C79.04817,6.44503316 79.6995071,6.87103312 80.2538449,7.42071874 C80.8636164,8.02537292 81.3070799,8.68498576 81.5842488,9.39957707 Z M78.59084,11.1310781 C78.59084,10.6363611 78.5076905,10.1691353 78.3413892,9.72938679 C77.6207502,8.02536137 76.318076,7.475684 74.4333277,8.08033818 C73.4909536,8.46511811 72.7980418,9.09724709 72.3545716,9.97674408 C72.1882703,10.2515869 72.0774044,10.6363611 72.0219706,11.1310781 L78.59084,11.1310781 Z M33.5234072,31.1670187 C33.6897086,31.2769558 33.6065592,31.3731494 33.2739565,31.4556022 C32.9413539,31.538055 32.6364727,31.6067647 32.3593038,31.6617333 C30.8625919,31.8816075 29.3520443,32.1564462 27.8276155,32.4862576 C26.3031867,32.816069 24.9035049,33.4207141 23.6285281,34.3002111 C23.3513592,34.5200853 23.0464781,34.7399563 22.7138754,34.9598305 C22.3812728,35.1797047 21.9932422,35.344608 21.549772,35.4545451 C20.9400005,35.5644822 20.3163799,35.5919661 19.6788915,35.5369975 C19.0414031,35.4820289 18.4177825,35.5095128 17.808011,35.6194499 C16.2558653,35.9492613 14.7591759,36.4164871 13.3178977,37.0211413 C12.0429209,37.5158583 10.8511127,38.0655357 9.74243722,38.6701899 C9.63156967,38.7251584 9.42369613,38.80761 9.11881038,38.9175472 C8.81392462,39.0274843 8.60605109,39.0274843 8.49518354,38.9175472 C7.05390543,37.3234589 5.6403654,35.7843622 4.25452105,34.3002111 C2.86867671,32.8160599 1.45513668,31.3044471 0.0138585666,29.7653274 C-0.0415752071,29.6553903 0.0692906774,29.5454548 0.346459546,29.4355177 C1.62143634,28.9957692 2.89639401,28.6247369 4.17137081,28.3224098 C5.44634761,28.0200828 6.80445469,27.6490505 8.24573281,27.209302 C8.74463677,26.9894278 9.27124972,26.742073 9.82558746,26.4672302 C10.3799252,26.1923874 10.8788217,25.9175487 11.3222919,25.6427059 C11.8211958,25.3128945 12.1953682,24.8456687 12.4448202,24.2410145 C12.6942722,23.6363604 12.8467127,22.9904895 12.9021465,22.3033824 C12.9575803,21.6162754 12.9575803,20.9016948 12.9021465,20.1596192 C12.8467127,19.4175437 12.8189963,18.716705 12.8189963,18.0570823 L12.6526958,13.7695559 C12.6526958,12.7251532 12.6388376,11.8868952 12.6111207,11.2547568 C12.5834038,10.6226183 12.5556873,10.0866829 12.5279704,9.64693436 C12.5002535,9.20718586 12.4863953,8.7811859 12.4863953,8.36892169 L12.4863953,6.76109929 C12.4863953,6.59619361 12.5556865,6.36258073 12.6942709,6.06025364 C12.8328553,5.75792655 13.2347442,5.60676527 13.8999495,5.60676527 C14.5651547,5.60676527 14.9809018,5.71670074 15.1472031,5.93657499 C15.3135045,6.15644924 15.4798033,6.48625566 15.6461046,6.92600416 C15.9787072,6.65116135 16.255872,6.45877427 16.477607,6.34883714 C16.6993421,6.23890002 16.9765069,6.12896454 17.3091095,6.01902742 C17.5862784,5.9090903 17.8634431,5.82663869 18.1406119,5.77167013 C18.4177808,5.71670157 18.722662,5.6892177 19.0552646,5.6892177 C20.9954467,5.6892177 22.5475691,6.32134668 23.7116784,7.5856236 C24.8757876,8.7399634 25.4578335,10.4164794 25.4578335,12.6152219 C25.4578335,13.3847817 25.3469676,14.2367816 25.1252325,15.1712472 C25.014365,15.6109957 24.8896408,16.0232537 24.7510564,16.4080337 C24.612472,16.7928136 24.4045984,17.1501039 24.1274296,17.4799152 C23.8502607,17.8097266 23.5592378,18.1120492 23.254352,18.386892 C22.9494662,18.6617348 22.5752939,18.9090896 22.1318237,19.1289639 C21.2448833,19.5137438 20.2748068,19.7061309 19.2215651,19.7061309 C18.1683234,19.7061309 17.2813964,19.5137438 16.5607573,19.1289639 C16.4498897,19.0190267 16.3390239,18.9365751 16.2281563,18.8816066 C16.1172888,18.826638 16.0064229,18.7441864 15.8955553,18.6342493 L15.8955553,19.8298095 C15.8955553,20.0221995 15.8678389,20.338264 15.8124051,20.7780125 C15.7569713,21.3276981 15.5768143,22.0560206 15.2719285,22.9630019 C14.9670427,23.8699831 14.2602727,24.6532734 13.1515973,25.3128961 C12.5418257,25.5877389 11.9459216,25.8625776 11.363867,26.1374204 C10.7818124,26.4122633 10.2690577,26.6321342 9.82558746,26.7970399 C8.55061066,27.4016941 7.20636181,27.9238876 5.79280058,28.3636361 C4.37923935,28.8033846 3.00727403,29.2156426 1.67686346,29.6004225 C3.00727403,31.0296051 4.32380641,32.4450244 5.62650009,33.8467227 C6.92919378,35.248421 8.24572616,36.6913241 9.57613673,38.1754753 C11.3500175,37.2410097 13.2763122,36.4439775 15.3550787,35.7843548 C17.4338453,35.1247321 19.4987224,34.8498934 21.549772,34.9598305 C22.9356163,33.8604593 24.5015969,33.0222013 26.2477608,32.4450314 C27.9939247,31.8678615 29.7539206,31.4693454 31.5278014,31.2494711 C30.8071623,30.8097226 30.1003923,30.4112065 29.4074701,30.0539109 C28.714548,29.6966152 28.0354944,29.2980991 27.3702891,28.8583506 C26.5942163,28.4186022 25.7211475,27.8689248 24.7510564,27.209302 C23.7809654,26.5496793 22.9078965,26.1099374 22.1318237,25.8900632 C21.3557509,25.7251575 20.5796897,25.6014801 19.8036168,25.5190272 C19.027544,25.4365744 18.2514828,25.4778002 17.47541,25.6427059 C16.2004332,25.9175487 15.3135061,26.2198712 14.8146022,26.5496826 C14.3156982,26.879494 13.6505029,27.291752 12.8189963,27.7864691 C13.9831055,28.665966 15.0779061,29.5866756 16.1034309,30.5486255 C17.1289558,31.5105753 18.2791893,32.5412204 19.5541661,33.6405916 L11.9043436,27.9513739 C11.793476,27.8964053 11.793476,27.8139537 11.9043436,27.7040166 C14.0662608,25.9450226 16.727042,25.0655388 19.8867671,25.0655388 C20.4965386,25.0655388 21.1755921,25.0930227 21.9239481,25.1479913 C22.672304,25.2029598 23.3236411,25.3678631 23.8779788,25.6427059 C25.4855583,26.5771714 27.0931136,27.497881 28.700693,28.4048623 C30.3082725,29.3118435 31.9158278,30.2325531 33.5234072,31.1670187 Z M16.1450061,9.81183922 C16.0341385,10.086682 15.9509891,10.4302304 15.8955553,10.8424946 C15.8401216,11.2547588 15.8124051,12.0930168 15.8124051,13.3572937 C15.8124051,13.7970422 15.8816963,14.2367841 16.0202807,14.6765326 C16.1588651,15.1162811 16.3390222,15.556023 16.5607573,15.9957715 C16.7824924,16.3805514 17.1012318,16.6966159 17.5169851,16.9439745 C17.9327384,17.191333 18.3623437,17.3150104 18.8058139,17.3150104 C20.0253569,17.3150104 20.8845675,16.8477846 21.3834715,15.9133191 C21.6606404,15.3636335 21.8546557,14.7864722 21.9655232,14.181818 C22.2981259,12.6426983 22.131827,11.1310855 21.4666217,9.64693436 C20.912284,8.54756312 20.0253569,7.99788575 18.8058139,7.99788575 C18.1960424,7.99788575 17.641713,8.1765309 17.142809,8.53382655 C16.643905,8.8911222 16.3113074,9.31712216 16.1450061,9.81183922 Z M45.4970425,19.2114163 C45.4970425,19.5961962 45.2753107,19.7885833 44.8318405,19.7885833 L42.7530844,19.7885833 C42.4204818,19.7885833 42.254183,19.5961962 42.254183,19.2114163 L42.254183,10.8837208 C42.254183,10.608878 42.2264665,10.3477813 42.1710327,10.1004227 C42.1155989,9.8530642 41.9770166,9.59196745 41.7552815,9.31712464 C41.4226788,8.82240758 40.8683494,8.60253663 40.0922766,8.65750519 C39.9259753,8.71247376 39.7458182,8.76744149 39.5518,8.82241005 C39.3577818,8.87737862 39.1499083,8.95983022 38.9281732,9.06976735 C38.6510043,9.23467303 38.4154143,9.38583431 38.2213961,9.52325571 C38.0273779,9.66067712 37.8195043,9.86680613 37.5977692,10.1416489 C37.4314679,10.3615232 37.2513109,10.5676522 37.0572927,10.7600422 C36.8632744,10.9524321 36.7108339,11.186045 36.5999663,11.4608878 C36.3782312,11.9006363 36.2673653,12.3403782 36.2673653,12.7801267 L36.2673653,19.2114163 C36.2673653,19.5961962 36.07335,19.7885833 35.6853136,19.7885833 L33.6065575,19.7885833 C33.2185211,19.7885833 33.0245058,19.5961962 33.0245058,19.2114163 L33.0245058,7.50317117 C32.969072,7.06342267 33.0522214,6.63742271 33.2739565,6.2251585 C33.4956916,5.81289428 33.8837222,5.60676527 34.4380599,5.60676527 L34.8538112,5.60676527 C35.4635827,5.55179671 35.8654715,5.74418379 36.0594897,6.18393228 C36.2535079,6.62368078 36.3227991,7.06342267 36.2673653,7.50317117 L36.2673653,7.99788575 C36.3782329,7.88794863 36.4890988,7.79175509 36.5999663,7.70930224 C36.7108339,7.6268494 36.8216997,7.53065586 36.9325673,7.42071874 C37.486905,6.98097024 38.0412344,6.65116382 38.5955722,6.43128957 C39.2607775,6.15644676 40.0091222,5.99154355 40.8406288,5.93657499 C42.1710394,5.93657499 43.2796982,6.29386528 44.1666386,7.00845659 C45.053579,7.77801645 45.4970425,8.68498412 45.4970425,9.72938679 L45.4970425,19.2114163 Z" id="logo_spindle"></path>
                            </g>
                        </g>
                    </g>
                </g>
            </g>
        </g>
    </g>
</svg>