<svg width="50" height="60" xmlns="http://www.w3.org/2000/svg"><g fill="none"><path d="M31.25 3c1.657 0 3 1.349 3 3.012L46 51.196v2.792A3.006 3.006 0 0 1 43 57H8c-1.657 0-3-1.349-3-3.012v-2.52L18.19 6.021a3.006 3.006 0 0 1 3-3.012L31.25 3z" fill="#4F4F4F"/><path d="M43 1c1.657 0 3 1.35 3 3.014v47.972A3.007 3.007 0 0 1 43 55H8c-1.657 0-3-1.35-3-3.014V4.024A3.007 3.007 0 0 1 8 1.01L43 1z" fill="#7D7C7C"/><path d="M39 24H11v-3.365h28V24zm0-5.686H11V14.95h28v3.365zm0-5.95H11V9h28v3.365z" fill="#FFF"/></g></svg>