<svg width="50" height="60" xmlns="http://www.w3.org/2000/svg"><g transform="translate(3)" fill="none"><path d="M43.82 8.66c0 3-9.77 5.5-21.82 5.5S.18 11.7.18 8.66V6.18l21.82-3 21.82 3v2.48zM22 18.56L.18 49.34v2.48c0 3 9.77 5.5 21.82 5.5s21.82-2.46 21.82-5.5v-2.48L22 18.56z" fill="#19486F"/><ellipse fill="#2E73B8" cx="22" cy="6.18" rx="21.82" ry="5.5"/><path d="M22 16.08C9.95 16.08.18 13.62.18 10.58v38.76c0 3 9.77 5.5 21.82 5.5s21.82-2.46 21.82-5.5V10.58c0 3.04-9.77 5.5-21.82 5.5z" fill="#2E73B8"/></g></svg>