<svg width="50" height="60" xmlns="http://www.w3.org/2000/svg"><g fill="none" fill-rule="evenodd"><g transform="translate(-1 45)"><g fill-rule="nonzero"><path fill="#19486F" d="M50.967 11.98h-50V9.5l25-7.02 25 7.02z"/><path fill="#2E73B8" d="M.967 0h50v9.5h-50z"/></g><rect fill="#FFF" x="43" y="3" width="4" height="4" rx="2"/><path fill="#FFF" d="M5 3h30v4H5z"/></g><g transform="translate(-1 30)"><g fill-rule="nonzero"><path fill="#19486F" d="M50.967 11.98h-50V9.5l25-7.02 25 7.02z"/><path fill="#2E73B8" d="M.967 0h50v9.5h-50z"/></g><rect fill="#FFF" x="43" y="3" width="4" height="4" rx="2"/><path fill="#FFF" d="M5 3h30v4H5z"/></g><g transform="translate(-1 15)"><g fill-rule="nonzero"><path fill="#19486F" d="M50.967 11.98h-50V9.5l25-7.02 25 7.02z"/><path fill="#2E73B8" d="M.967 0h50v9.5h-50z"/></g><rect fill="#FFF" x="43" y="3" width="4" height="4" rx="2"/><path fill="#FFF" d="M5 3h30v4H5z"/></g><g transform="translate(-1)"><g fill-rule="nonzero"><path fill="#19486F" d="M50.967 11.98h-50V9.5l25-7.02 25 7.02z"/><path fill="#2E73B8" d="M.967 0h50v9.5h-50z"/></g><rect fill="#FFF" x="43" y="3" width="4" height="4" rx="2"/><path fill="#FFF" d="M5 3h30v4H5z"/></g></g></svg>