<svg width="386" height="260" xmlns="http://www.w3.org/2000/svg"><g fill="none" fill-rule="evenodd"><g fill-rule="nonzero"><path fill="#FBBF93" d="M328.671 153.515l-11.157 15.088-5.843-15.06 10.658-.654zm14.543 0l11.272 15.175 5.728-15.132-10.543-.669z"/><path fill="#6B3A19" d="M328.671 143.442l-11.157-15.132-5.843 15.146 10.75.648zm14.543 0l11.272-15.132 5.843 15.146-10.658.655z"/><path fill="#9D5025" d="M343.214 143.442l11.272-.842v-14.29l-11.272 2.936z"/><path fill="#F58536" d="M360.329 143.456l-5.843-.856v-14.29l5.843 2.943z"/><path fill="#9D5025" d="M343.214 153.515l11.272.885v14.29l-11.272-2.98z"/><path fill="#F58536" d="M360.214 153.558l-5.728.842v14.29l5.728-2.886zm-31.543-10.116l-11.157-.842v-14.29l11.157 2.936z"/><path fill="#9D5025" d="M311.671 143.456l5.843-.856v-14.29l-5.843 2.943z"/><path fill="#F58536" d="M328.671 153.515l-11.157.885v14.29l11.157-2.98z"/><path fill="#9D5025" d="M311.671 153.544l5.843.856v14.29l-5.843-2.943z"/><path fill="#FBBF93" d="M347.614 155.4L336 154.242l-11.729 1.144L336 178z"/><path fill="#6B3A19" d="M347.614 141.6L336 142.758l-11.729-1.144L336 119z"/><path fill="#F58536" d="M347.614 141.6L336 139.902V119l11.614 5.85z"/><path fill="#9D5025" d="M324.271 141.614L336 139.902V119l-11.729 5.907z"/><path fill="#F58536" d="M347.614 155.4L336 157.098V178l11.614-5.85z"/><path fill="#9D5025" d="M324.271 155.386L336 157.098V178l-11.729-5.907z"/></g><path d="M324.13 189.218a7.12 7.12 0 0 1 2.639.52l-.355.963c-.885-.305-1.657-.458-2.318-.458-.547 0-1.054.108-1.52.325a3.342 3.342 0 0 0-1.163.868 4.113 4.113 0 0 0-.721 1.244c-.173.467-.26.956-.26 1.466 0 .53.092 1.032.277 1.508.185.476.443.893.776 1.25a3.57 3.57 0 0 0 1.24.852c.495.21 1.036.314 1.624.314.702 0 1.433-.136 2.194-.41l.356.861c-.953.41-1.9.616-2.844.616-.583 0-1.13-.085-1.64-.253a4.275 4.275 0 0 1-1.337-.708 4.61 4.61 0 0 1-.98-1.076 4.823 4.823 0 0 1-.62-1.371 5.846 5.846 0 0 1-.208-1.576c0-.934.195-1.772.584-2.515a4.369 4.369 0 0 1 1.7-1.767c.742-.436 1.601-.653 2.576-.653zm4.546-.547h1.121V199h-1.12v-10.33zm6.665 3.445c.935 0 1.704.299 2.307.896.604.597.906 1.422.906 2.474 0 1.117-.309 2.004-.926 2.663-.618.658-1.416.988-2.396.988-.934 0-1.698-.309-2.29-.927-.593-.617-.889-1.454-.889-2.512 0-1.089.302-1.958.906-2.608.604-.65 1.398-.974 2.382-.974zm-.095.957c-.56 0-1.05.217-1.47.65-.42.433-.629 1.027-.629 1.784 0 .752.205 1.385.615 1.9.41.515.941.773 1.593.773a1.92 1.92 0 0 0 1.504-.684c.4-.456.601-1.05.601-1.784 0-.42-.064-.8-.194-1.142a2.363 2.363 0 0 0-.513-.834 2.279 2.279 0 0 0-.708-.492 1.972 1.972 0 0 0-.8-.17zm9.891-.827h1.121V199h-.786l-.24-.567c-.86.469-1.656.704-2.385.704a2.44 2.44 0 0 1-.964-.175 1.71 1.71 0 0 1-.635-.434 1.961 1.961 0 0 1-.363-.66 3.47 3.47 0 0 1-.174-.762 8.095 8.095 0 0 1-.038-.827v-4.033h1.121v4.115c0 1.18.513 1.77 1.539 1.77.528 0 1.13-.175 1.804-.526v-5.359zm3.24 3.493c0-.583.082-1.107.247-1.572.164-.465.39-.845.676-1.142a2.932 2.932 0 0 1 1.009-.68c.385-.157.8-.236 1.247-.236.538 0 1.083.121 1.634.363v-3.801h1.121V199h-.78l-.184-.424a3.847 3.847 0 0 1-1.982.56c-.283 0-.559-.033-.827-.102a2.747 2.747 0 0 1-.8-.355 2.77 2.77 0 0 1-.694-.633 3.015 3.015 0 0 1-.482-.974 4.488 4.488 0 0 1-.185-1.333zm3.357 2.475c.497 0 .982-.128 1.456-.383v-4.512a3.563 3.563 0 0 0-1.47-.328c-.21 0-.412.023-.608.069a2.207 2.207 0 0 0-.602.246 1.854 1.854 0 0 0-.53.458c-.148.187-.27.434-.365.741a3.55 3.55 0 0 0-.144 1.057c0 .41.05.775.15 1.097.1.321.228.577.383.769.155.191.338.348.547.471.21.123.41.207.602.25.191.043.385.065.58.065zm-29.9 7.098v3.171h4.053v1.026h-4.054V214h-1.162v-9.714h5.626v1.026h-4.464zm7.615 2.44a3.089 3.089 0 0 1 1.886-.636c.474 0 .905.09 1.292.267l-.341.895a3.059 3.059 0 0 0-1.108-.205c-.57 0-1.105.157-1.606.472V214h-1.121v-6.754h.786l.212.506zm7.424-.636c.934 0 1.703.299 2.307.896.604.597.905 1.422.905 2.474 0 1.117-.308 2.004-.926 2.663-.617.658-1.416.988-2.396.988-.934 0-1.697-.309-2.29-.927-.592-.617-.889-1.454-.889-2.512 0-1.089.302-1.958.906-2.608.604-.65 1.398-.974 2.383-.974zm-.096.957c-.56 0-1.05.217-1.47.65-.42.433-.629 1.027-.629 1.784 0 .752.205 1.385.615 1.9.41.515.942.773 1.593.773a1.92 1.92 0 0 0 1.504-.684c.401-.456.602-1.05.602-1.784 0-.42-.065-.8-.195-1.142-.13-.341-.3-.62-.513-.834a2.279 2.279 0 0 0-.707-.492 1.972 1.972 0 0 0-.8-.17zm5.428-.827h.786l.246.574c.87-.474 1.663-.71 2.379-.71.369 0 .69.057.964.174.273.116.485.262.635.437.15.176.27.397.36.663.088.267.145.52.17.762.025.242.038.518.038.828V214h-1.121v-4.102c0-1.184-.51-1.777-1.532-1.777-.528 0-1.13.176-1.804.526V214h-1.121v-6.754zm11.628 6.638c-.661.168-1.176.253-1.545.253-.37 0-.682-.06-.937-.178a1.293 1.293 0 0 1-.581-.506 2.363 2.363 0 0 1-.284-.707 3.99 3.99 0 0 1-.085-.872v-3.746h-.91v-.882h.91v-1.934h1.121v1.934h2.058v.882h-2.058v3.732c0 .935.37 1.402 1.107 1.402.133 0 .481-.048 1.046-.144l.158.766z" fill="#222"/><g fill-rule="nonzero"><path fill="#8C3123" d="M244.324 129.412l-4.015 1.998v35.1l4.015 1.997 9.852-19.55z"/><path fill="#E05243" d="M265.25 163.459l-20.926 5.041v-39.088l20.926 5.042 9.89 14.56z"/><path fill="#8C3123" d="M265.25 163.459l20.92 5.041 3.617-19.046-3.618-20.042-20.919 5.042z"/><path fill="#E05243" d="M286.17 129.412l4.021 1.998v35.1l-4.022 1.997z"/><path fill="#8C3123" d="M256.125 155.424l9.125 1.164 7.235-7.573-7.235-7.566-9.125 1.141z"/><path fill="#5E1F18" d="M274.375 136.378l-9.125 1.654-9.125-1.654L265.25 119z"/><path fill="#F2B0A9" d="M274.375 161.622l-9.125-1.668-9.125 1.668L265.25 179z"/><path fill="#E05243" d="M274.375 136.378l-9.125-2.246V119l9.125 4.537z"/><path fill="#8C3123" d="M256.125 136.378l9.125-2.246V119l-9.125 4.537z"/><path fill="#E05243" d="M265.25 179l9.125-4.537v-12.841l-9.125 2.246z"/><path fill="#8C3123" d="M265.25 179l-9.125-4.537v-12.841l9.125 2.246z"/><path fill="#E05243" d="M274.375 155.424l-9.125 1.164v-15.14l9.125 1.142z"/></g><path d="M244.288 189.218a7.12 7.12 0 0 1 2.639.52l-.356.963c-.884-.305-1.656-.458-2.317-.458-.547 0-1.054.108-1.521.325a3.342 3.342 0 0 0-1.162.868 4.113 4.113 0 0 0-.721 1.244c-.174.467-.26.956-.26 1.466 0 .53.092 1.032.277 1.508.184.476.443.893.776 1.25a3.57 3.57 0 0 0 1.24.852c.495.21 1.036.314 1.624.314.702 0 1.433-.136 2.194-.41l.356.861c-.953.41-1.9.616-2.844.616-.583 0-1.13-.085-1.64-.253a4.275 4.275 0 0 1-1.337-.708 4.61 4.61 0 0 1-.981-1.076 4.823 4.823 0 0 1-.619-1.371 5.846 5.846 0 0 1-.208-1.576c0-.934.195-1.772.584-2.515a4.369 4.369 0 0 1 1.699-1.767c.743-.436 1.602-.653 2.577-.653zm7.356 2.898c.934 0 1.703.299 2.307.896.604.597.905 1.422.905 2.474 0 1.117-.308 2.004-.926 2.663-.617.658-1.416.988-2.396.988-.934 0-1.697-.309-2.29-.927-.592-.617-.889-1.454-.889-2.512 0-1.089.302-1.958.906-2.608.604-.65 1.398-.974 2.383-.974zm-.096.957c-.56 0-1.05.217-1.47.65-.42.433-.629 1.027-.629 1.784 0 .752.205 1.385.615 1.9.41.515.942.773 1.593.773a1.92 1.92 0 0 0 1.504-.684c.401-.456.602-1.05.602-1.784 0-.42-.065-.8-.195-1.142-.13-.341-.3-.62-.513-.834a2.279 2.279 0 0 0-.707-.492 1.972 1.972 0 0 0-.8-.17zm5.428-.827h.786l.246.574c.87-.474 1.663-.71 2.379-.71.369 0 .69.057.964.174.273.116.485.262.635.437.15.176.27.397.36.663.088.267.145.52.17.762.025.242.038.518.038.828V199h-1.121v-4.102c0-1.184-.51-1.777-1.532-1.777-.528 0-1.13.176-1.804.526V199h-1.121v-6.754zm11.628 6.638c-.661.168-1.176.253-1.545.253-.37 0-.682-.06-.937-.178a1.293 1.293 0 0 1-.581-.506 2.363 2.363 0 0 1-.284-.707 3.99 3.99 0 0 1-.085-.872v-3.746h-.91v-.882h.91v-1.934h1.121v1.934h2.058v.882h-2.058v3.732c0 .935.37 1.402 1.107 1.402.133 0 .481-.048 1.046-.144l.158.766zm4.614-6.768c.328 0 .623.04.885.12.262.08.48.181.653.304.173.123.322.284.448.482.125.198.22.39.287.574.066.185.117.407.154.667.036.26.059.485.068.676.009.192.014.417.014.677v.533h-4.642c0 .247.056.491.167.735.112.244.27.467.472.67.203.203.47.368.8.496.33.127.696.191 1.097.191.474 0 .987-.082 1.538-.246l.198.766a6.657 6.657 0 0 1-2.16.376c-.496 0-.937-.066-1.322-.199-.386-.132-.695-.304-.93-.516a2.603 2.603 0 0 1-.578-.762 3.372 3.372 0 0 1-.31-.885 4.899 4.899 0 0 1-.086-.933c0-.506.061-.969.184-1.388.123-.42.29-.771.5-1.056a3.15 3.15 0 0 1 .734-.721c.28-.196.574-.339.882-.427.308-.09.623-.134.947-.134zm-.24.97c-.4 0-.746.111-1.035.332-.29.221-.5.496-.632.824a2.81 2.81 0 0 0-.199 1.06h3.528c0-1.477-.554-2.215-1.661-2.215zm4.868-.84h.786l.246.574c.87-.474 1.663-.71 2.379-.71.369 0 .69.057.964.174.273.116.485.262.635.437.15.176.27.397.36.663.088.267.145.52.17.762.025.242.038.518.038.828V199h-1.121v-4.102c0-1.184-.51-1.777-1.532-1.777-.528 0-1.13.176-1.804.526V199h-1.121v-6.754zm11.628 6.638c-.661.168-1.176.253-1.545.253-.37 0-.682-.06-.937-.178a1.293 1.293 0 0 1-.58-.506 2.363 2.363 0 0 1-.285-.707 3.99 3.99 0 0 1-.085-.872v-3.746h-.91v-.882h.91v-1.934h1.121v1.934h2.058v.882h-2.058v3.732c0 .935.37 1.402 1.108 1.402.132 0 .48-.048 1.045-.144l.158.766zm-45.73 5.313c.748 0 1.552.13 2.414.39l-.376 1.06c-.82-.237-1.532-.356-2.133-.356-.675 0-1.245.142-1.712.427-.468.285-.701.653-.701 1.104 0 .25.075.474.225.67.15.196.35.356.595.479.246.123.527.245.841.365.314.121.635.232.96.332.326.1.646.228.96.383.315.155.596.324.842.51.246.184.444.424.594.72.15.296.226.631.226 1.005 0 .26-.041.519-.123.776a2.566 2.566 0 0 1-.41.766 2.971 2.971 0 0 1-.711.666c-.283.192-.64.346-1.07.465-.43.118-.91.178-1.439.178a6.102 6.102 0 0 1-1.46-.164 11.68 11.68 0 0 1-1.493-.493l.396-1.127c1.14.423 2.04.635 2.7.635.693 0 1.257-.139 1.693-.417.435-.278.652-.65.652-1.114 0-.31-.096-.578-.29-.803a2.126 2.126 0 0 0-.752-.547 9.821 9.821 0 0 0-1.022-.39c-.374-.12-.746-.25-1.118-.39a6.38 6.38 0 0 1-1.018-.481 2.198 2.198 0 0 1-.752-.739c-.194-.31-.29-.674-.29-1.093 0-.374.09-.732.27-1.074.18-.341.429-.641.748-.898.319-.258.718-.463 1.196-.616a5.102 5.102 0 0 1 1.559-.229zm8.511 9.687c-.66.168-1.175.253-1.545.253-.369 0-.68-.06-.936-.178a1.293 1.293 0 0 1-.581-.506 2.363 2.363 0 0 1-.284-.707 3.99 3.99 0 0 1-.085-.872v-3.746h-.91v-.882h.91v-1.934h1.12v1.934h2.058v.882h-2.057v3.732c0 .935.369 1.402 1.107 1.402.132 0 .481-.048 1.046-.144l.157.766zm4.656-6.768c.934 0 1.703.299 2.307.896.604.597.906 1.422.906 2.474 0 1.117-.31 2.004-.927 2.663-.617.658-1.416.988-2.396.988-.934 0-1.697-.309-2.29-.927-.592-.617-.888-1.454-.888-2.512 0-1.089.301-1.958.905-2.608.604-.65 1.398-.974 2.383-.974zm-.096.957c-.56 0-1.05.217-1.47.65-.42.433-.629 1.027-.629 1.784 0 .752.205 1.385.616 1.9.41.515.94.773 1.592.773a1.92 1.92 0 0 0 1.504-.684c.401-.456.602-1.05.602-1.784 0-.42-.065-.8-.195-1.142-.13-.341-.3-.62-.513-.834a2.279 2.279 0 0 0-.707-.492 1.972 1.972 0 0 0-.8-.17zm6.426-.321a3.089 3.089 0 0 1 1.886-.636c.474 0 .905.09 1.292.267l-.341.895a3.059 3.059 0 0 0-1.108-.205c-.57 0-1.105.157-1.606.472V214h-1.121v-6.754h.786l.212.506zm6.713-.636c.5 0 .926.058 1.275.175.348.116.617.285.806.509.19.223.325.471.407.745.082.273.123.588.123.943V214h-.793l-.26-.615c-.551.501-1.185.752-1.9.752-.638 0-1.178-.193-1.62-.578-.442-.385-.663-.835-.663-1.35 0-.273.05-.52.15-.738.1-.219.245-.401.434-.547.19-.146.405-.27.646-.373.242-.102.523-.18.844-.236a9.91 9.91 0 0 1 .968-.116c.323-.023.679-.034 1.066-.034v-.533c0-.155-.006-.29-.017-.403a1.56 1.56 0 0 0-.113-.41 1.076 1.076 0 0 0-.26-.394 1.368 1.368 0 0 0-.492-.266 2.404 2.404 0 0 0-.78-.113c-.464 0-1.066.102-1.804.308l-.212-.82a6.27 6.27 0 0 1 2.195-.418zm1.483 3.897h-.417c-.26 0-.485.004-.677.013-.191.01-.416.036-.673.079a2.452 2.452 0 0 0-.632.181c-.164.078-.305.19-.42.339a.832.832 0 0 0-.175.53c0 .286.145.542.434.765.29.223.635.335 1.036.335.587 0 1.096-.23 1.524-.69v-1.552zm6.371-3.904c.538 0 1.16.18 1.866.54l.144-.403h.786v7.178c0 .137-.005.269-.014.396a4.642 4.642 0 0 1-.082.54 3.15 3.15 0 0 1-.191.636 3.048 3.048 0 0 1-.373.619 2.393 2.393 0 0 1-.588.557 3.07 3.07 0 0 1-.875.376c-.357.1-.757.15-1.2.15a5.384 5.384 0 0 1-2.091-.437l.314-.814a4.65 4.65 0 0 0 1.634.315c1.563 0 2.345-.864 2.345-2.591v-.5c-.588.31-1.183.466-1.784.466-.292 0-.577-.038-.855-.113-.278-.075-.55-.2-.817-.376a2.801 2.801 0 0 1-.697-.656 3.13 3.13 0 0 1-.478-.998 4.698 4.698 0 0 1-.182-1.35c0-.525.073-.997.22-1.419.145-.421.33-.76.553-1.015.223-.255.48-.47.769-.643.29-.173.566-.292.83-.359.265-.066.52-.099.766-.099zm.068.91c-.633 0-1.143.227-1.53.683-.388.456-.582 1.06-.582 1.812 0 .501.08.952.24 1.353.159.401.412.726.758.974.347.249.764.373 1.251.373.497 0 .987-.13 1.47-.39v-4.423c-.624-.255-1.16-.382-1.607-.382zm8.094-.903c.328 0 .623.04.885.12.263.08.48.181.653.304.173.123.323.284.448.482s.221.39.287.574c.066.185.118.407.154.667.036.26.06.485.068.676.01.192.014.417.014.677v.533h-4.642c0 .247.056.491.168.735.112.244.269.467.472.67.202.203.469.368.8.496.33.127.695.191 1.097.191.473 0 .986-.082 1.538-.246l.198.766a6.657 6.657 0 0 1-2.16.376c-.497 0-.938-.066-1.323-.199-.385-.132-.695-.304-.93-.516a2.603 2.603 0 0 1-.577-.762 3.372 3.372 0 0 1-.311-.885 4.899 4.899 0 0 1-.086-.933c0-.506.062-.969.185-1.388.123-.42.29-.771.499-1.056a3.15 3.15 0 0 1 .735-.721c.28-.196.574-.339.881-.427a3.36 3.36 0 0 1 .947-.134zm-.239.97a1.66 1.66 0 0 0-1.036.332c-.29.221-.5.496-.632.824a2.81 2.81 0 0 0-.198 1.06h3.527c0-1.477-.554-2.215-1.661-2.215z" fill="#222"/><g fill-rule="nonzero"><path fill="#2E73B8" d="M216.5 131.374l-6.25-6.836L201.437 147l8.813 22.447 6.25-6.821z"/><path fill="#5294CF" d="M199.313 175l10.937-5.553v-44.91L199.312 119l-12.984 28z"/><path fill="#2E73B8" d="M183.688 175h15.625v-56h-15.625l-9.375 28z"/><path fill="#205B99" d="M172.75 169.439L183.688 175v-56l-10.938 5.538L167.914 147z"/><path fill="#19486F" d="M166.5 162.626l6.25 6.813v-44.901l-6.25 6.836z"/></g><path d="M182.69 189.218a7.12 7.12 0 0 1 2.638.52l-.355.963c-.884-.305-1.657-.458-2.318-.458-.547 0-1.054.108-1.52.325a3.342 3.342 0 0 0-1.163.868 4.113 4.113 0 0 0-.721 1.244c-.173.467-.26.956-.26 1.466 0 .53.092 1.032.277 1.508.185.476.443.893.776 1.25a3.57 3.57 0 0 0 1.24.852c.495.21 1.036.314 1.624.314.702 0 1.433-.136 2.195-.41l.355.861c-.952.41-1.9.616-2.844.616-.583 0-1.13-.085-1.64-.253a4.275 4.275 0 0 1-1.337-.708 4.61 4.61 0 0 1-.98-1.076 4.823 4.823 0 0 1-.62-1.371 5.846 5.846 0 0 1-.208-1.576c0-.934.195-1.772.585-2.515a4.369 4.369 0 0 1 1.698-1.767c.743-.436 1.602-.653 2.577-.653zm5.16.068h1.641l3.117 5.893 3.165-5.893h1.539V199h-1.163v-8.046l-2.987 5.264H192l-2.987-5.264V199h-1.162v-9.714zm16.51-.089c.747 0 1.551.13 2.412.39l-.376 1.06c-.82-.237-1.53-.356-2.132-.356-.675 0-1.246.142-1.713.427-.467.285-.7.653-.7 1.104 0 .25.075.474.225.67.15.196.349.356.595.479s.526.245.84.365c.315.121.635.232.961.332.326.1.646.228.96.383.315.155.595.324.841.51.247.184.445.424.595.72.15.296.226.631.226 1.005 0 .26-.041.519-.123.776a2.566 2.566 0 0 1-.41.766 2.971 2.971 0 0 1-.711.666c-.283.192-.64.346-1.07.465-.43.118-.91.178-1.44.178a6.102 6.102 0 0 1-1.459-.164 11.68 11.68 0 0 1-1.493-.493l.396-1.127c1.14.423 2.04.635 2.7.635.693 0 1.257-.139 1.692-.417.435-.278.653-.65.653-1.114 0-.31-.097-.578-.29-.803a2.126 2.126 0 0 0-.752-.547 9.821 9.821 0 0 0-1.022-.39c-.374-.12-.747-.25-1.118-.39a6.38 6.38 0 0 1-1.019-.481 2.198 2.198 0 0 1-.752-.739 2.025 2.025 0 0 1-.29-1.093c0-.374.09-.732.27-1.074.18-.341.43-.641.748-.898.32-.258.718-.463 1.197-.616a5.102 5.102 0 0 1 1.558-.229zm-19.572 16.115v7.663h1.415a8.94 8.94 0 0 0 1.056-.048c.23-.023.429-.057.595-.103a4.89 4.89 0 0 0 .567-.198c.212-.087.4-.191.564-.314a3.281 3.281 0 0 0 .923-1.121c.301-.58.451-1.283.451-2.113 0-.574-.083-1.092-.25-1.555-.165-.463-.387-.839-.662-1.128a3.559 3.559 0 0 0-.882-.687 3.203 3.203 0 0 0-.981-.342 5.53 5.53 0 0 0-.91-.054h-1.886zm1.846-1.026c.629 0 1.2.063 1.716.188.515.125.946.302 1.295.53.349.228.648.485.899.772.25.287.445.608.584.96.14.354.24.701.305 1.043.063.342.095.698.095 1.067 0 .424-.032.831-.095 1.223a5.96 5.96 0 0 1-.332 1.197 4.455 4.455 0 0 1-.601 1.09 3.84 3.84 0 0 1-.947.868 4.203 4.203 0 0 1-1.32.57c-.255.065-.54.113-.854.144-.315.032-.574.05-.78.055a41.79 41.79 0 0 1-.868.007h-2.105v-9.714h3.008zm9.133.889v3.26c.086-.004.237-.007.45-.01.215-.002.381-.004.5-.007a9.688 9.688 0 0 0 1.015-.082c.13-.02.287-.052.472-.095.184-.044.335-.094.45-.15.117-.058.24-.13.37-.22.13-.088.231-.187.304-.297.073-.11.133-.24.181-.393a1.815 1.815 0 0 0 .031-.892 1.32 1.32 0 0 0-.17-.396 1.267 1.267 0 0 0-.336-.363 1.788 1.788 0 0 0-.564-.253 3.033 3.033 0 0 0-.83-.102h-1.873zm0 4.163v3.637h1.811c.164 0 .302-.002.414-.004a5.29 5.29 0 0 0 .482-.04c.21-.026.388-.06.536-.103.148-.044.314-.11.496-.199a1.4 1.4 0 0 0 .44-.317 1.56 1.56 0 0 0 .284-.476 1.75 1.75 0 0 0 .117-.66c0-.605-.235-1.08-.704-1.421-.47-.342-1.101-.513-1.894-.513-.087 0-.747.032-1.982.096zm-1.163-5.052h3.425c.333 0 .637.035.913.106.276.07.503.16.683.27.18.11.34.24.479.39a2.027 2.027 0 0 1 .496.888c.045.16.074.291.085.393.011.103.017.2.017.291 0 .397-.134.792-.403 1.186-.27.394-.554.648-.855.762.602.11 1.095.4 1.48.872s.578 1.008.578 1.61c0 .141-.013.29-.038.444-.025.155-.074.33-.147.526a2.928 2.928 0 0 1-.28.561 2.625 2.625 0 0 1-.465.53c-.196.175-.42.327-.673.454a3.925 3.925 0 0 1-.93.311c-.367.08-.769.12-1.206.12h-3.159v-9.714z" fill="#222"/><g fill-rule="nonzero"><path d="M127.581 122.455a3.103 3.103 0 0 1 3.103 3.104l12.156 46.551v2.876a3.103 3.103 0 0 1-3.104 3.104H103.53a3.103 3.103 0 0 1-3.103-3.104v-2.596l13.645-46.821a3.103 3.103 0 0 1 3.103-3.103l10.407-.01z" fill="#4F4F4F"/><path d="M139.736 119.89a3.103 3.103 0 0 1 3.104 3.103v49.397a3.103 3.103 0 0 1-3.104 3.103H103.53a3.103 3.103 0 0 1-3.103-3.103v-49.387a3.103 3.103 0 0 1 3.103-3.103l36.207-.01z" fill="#7D7C7C"/><path d="M136.209 143.414h-29.204v-3.435h29.204v3.435zm0-5.804h-29.204v-3.434h29.204v3.434zm0-6.072h-29.204v-3.435h29.204v3.435z" fill="#FFF"/></g><path d="M111.94 189.218a7.12 7.12 0 0 1 2.638.52l-.355.963c-.884-.305-1.657-.458-2.318-.458-.547 0-1.054.108-1.52.325a3.342 3.342 0 0 0-1.163.868 4.113 4.113 0 0 0-.721 1.244c-.173.467-.26.956-.26 1.466 0 .53.092 1.032.277 1.508.185.476.443.893.776 1.25a3.57 3.57 0 0 0 1.24.852c.495.21 1.036.314 1.624.314.702 0 1.433-.136 2.195-.41l.355.861c-.952.41-1.9.616-2.844.616-.583 0-1.13-.085-1.64-.253a4.275 4.275 0 0 1-1.337-.708 4.61 4.61 0 0 1-.98-1.076 4.823 4.823 0 0 1-.62-1.371 5.846 5.846 0 0 1-.208-1.576c0-.934.195-1.772.585-2.515a4.369 4.369 0 0 1 1.698-1.767c.743-.436 1.602-.653 2.577-.653zm5.16.068h1.641l3.117 5.893 3.165-5.893h1.539V199h-1.163v-8.046l-2.987 5.264h-1.162l-2.987-5.264V199H117.1v-9.714zm16.51-.089c.747 0 1.551.13 2.412.39l-.376 1.06c-.82-.237-1.53-.356-2.132-.356-.675 0-1.246.142-1.713.427-.467.285-.7.653-.7 1.104 0 .25.075.474.225.67.15.196.349.356.595.479s.526.245.84.365c.315.121.635.232.961.332.326.1.646.228.96.383.315.155.595.324.841.51.247.184.445.424.595.72.15.296.226.631.226 1.005 0 .26-.041.519-.123.776a2.566 2.566 0 0 1-.41.766 2.971 2.971 0 0 1-.711.666c-.283.192-.64.346-1.07.465-.43.118-.91.178-1.44.178a6.102 6.102 0 0 1-1.459-.164 11.68 11.68 0 0 1-1.493-.493l.396-1.127c1.14.423 2.04.635 2.7.635.693 0 1.257-.139 1.692-.417.435-.278.653-.65.653-1.114 0-.31-.097-.578-.29-.803a2.126 2.126 0 0 0-.752-.547 9.821 9.821 0 0 0-1.022-.39c-.374-.12-.747-.25-1.118-.39a6.38 6.38 0 0 1-1.019-.481 2.198 2.198 0 0 1-.752-.739 2.025 2.025 0 0 1-.29-1.093c0-.374.09-.732.27-1.074.18-.341.43-.641.748-.898.32-.258.718-.463 1.197-.616a5.102 5.102 0 0 1 1.558-.229zm-27.802 15c.747 0 1.551.13 2.413.39l-.376 1.06c-.82-.237-1.532-.356-2.133-.356-.675 0-1.245.142-1.712.427-.468.285-.701.653-.701 1.104 0 .25.075.474.225.67.15.196.349.356.595.479s.527.245.841.365c.314.121.635.232.96.332.326.1.646.228.96.383.315.155.596.324.842.51.246.184.444.424.594.72.15.296.226.631.226 1.005 0 .26-.041.519-.123.776a2.566 2.566 0 0 1-.41.766 2.971 2.971 0 0 1-.711.666c-.283.192-.64.346-1.07.465-.43.118-.91.178-1.439.178a6.102 6.102 0 0 1-1.46-.164 11.68 11.68 0 0 1-1.493-.493l.396-1.127c1.14.423 2.04.635 2.7.635.693 0 1.257-.139 1.693-.417.435-.278.652-.65.652-1.114 0-.31-.096-.578-.29-.803a2.126 2.126 0 0 0-.752-.547 9.821 9.821 0 0 0-1.022-.39c-.374-.12-.746-.25-1.118-.39a6.38 6.38 0 0 1-1.018-.481 2.198 2.198 0 0 1-.752-.739c-.194-.31-.29-.674-.29-1.093 0-.374.09-.732.27-1.074.18-.341.429-.641.748-.898.319-.258.718-.463 1.196-.616a5.102 5.102 0 0 1 1.559-.229zm7.827 2.92c.328 0 .623.04.885.119.262.08.48.181.653.304.173.123.322.284.448.482.125.198.22.39.287.574.066.185.117.407.154.667.036.26.059.485.068.676.009.192.014.417.014.677v.533h-4.642c0 .247.056.491.167.735.112.244.27.467.472.67.203.203.47.368.8.496.33.127.696.191 1.097.191.474 0 .987-.082 1.538-.246l.198.766a6.657 6.657 0 0 1-2.16.376c-.496 0-.937-.066-1.322-.199-.386-.132-.695-.304-.93-.516a2.603 2.603 0 0 1-.578-.762 3.372 3.372 0 0 1-.31-.885 4.899 4.899 0 0 1-.086-.933c0-.506.061-.969.184-1.388.123-.42.29-.771.5-1.056a3.15 3.15 0 0 1 .734-.721c.28-.196.574-.339.882-.427.308-.09.623-.134.947-.134zm-.24.97c-.4 0-.746.11-1.035.331-.29.221-.5.496-.632.824a2.81 2.81 0 0 0-.199 1.06h3.528c0-1.477-.554-2.215-1.661-2.215zm5.866-.335a3.089 3.089 0 0 1 1.886-.636c.474 0 .905.09 1.292.267l-.341.895a3.059 3.059 0 0 0-1.108-.205c-.57 0-1.105.157-1.606.472V214h-1.121v-6.754h.786l.212.506zm9.59-.506L126.48 214h-1.162l-2.365-6.754h1.23l1.75 5.64 1.757-5.64h1.163zm4.58-.13c.329 0 .624.04.886.12.262.08.48.181.653.304.173.123.322.284.447.482.126.198.222.39.288.574.066.185.117.407.153.667.037.26.06.485.069.676.009.192.013.417.013.677v.533h-4.64c0 .247.056.491.167.735.112.244.27.467.472.67.203.203.47.368.8.496.33.127.696.191 1.097.191.474 0 .987-.082 1.538-.246l.198.766a6.657 6.657 0 0 1-2.16.376c-.497 0-.938-.066-1.323-.199-.385-.132-.695-.304-.93-.516a2.603 2.603 0 0 1-.577-.762 3.372 3.372 0 0 1-.311-.885 4.899 4.899 0 0 1-.085-.933c0-.506.061-.969.184-1.388.123-.42.29-.771.5-1.056a3.15 3.15 0 0 1 .734-.721c.28-.196.574-.339.882-.427a3.35 3.35 0 0 1 .947-.134zm-.239.97c-.4 0-.746.111-1.035.332-.29.221-.5.496-.633.824a2.81 2.81 0 0 0-.198 1.06h3.528c0-1.477-.554-2.215-1.662-2.215zm5.866-.334a3.089 3.089 0 0 1 1.886-.636c.474 0 .905.09 1.292.267l-.341.895a3.059 3.059 0 0 0-1.108-.205c-.57 0-1.105.157-1.606.472V214h-1.121v-6.754h.786l.212.506z" fill="#222"/><g fill-rule="nonzero"><path d="M56.831 122.455a3.103 3.103 0 0 1 3.103 3.104L72.09 172.11v2.876a3.103 3.103 0 0 1-3.104 3.104H32.78a3.103 3.103 0 0 1-3.103-3.104v-2.596l13.645-46.821a3.103 3.103 0 0 1 3.103-3.103l10.407-.01z" fill="#4F4F4F"/><path d="M68.986 119.89a3.103 3.103 0 0 1 3.104 3.103v49.397a3.103 3.103 0 0 1-3.104 3.103H32.78a3.103 3.103 0 0 1-3.103-3.103v-49.387a3.103 3.103 0 0 1 3.103-3.103l36.207-.01z" fill="#7D7C7C"/><path d="M65.459 143.414H36.255v-3.435H65.46v3.435zm0-5.804H36.255v-3.434H65.46v3.434zm0-6.072H36.255v-3.435H65.46v3.435z" fill="#FFF"/></g><path d="M36.8 190.312v7.663h1.416a8.94 8.94 0 0 0 1.056-.048c.23-.023.428-.057.595-.103a4.89 4.89 0 0 0 .567-.198c.212-.087.4-.191.564-.314a3.281 3.281 0 0 0 .923-1.121c.3-.58.451-1.283.451-2.113 0-.574-.083-1.092-.25-1.555-.166-.463-.387-.839-.663-1.128a3.559 3.559 0 0 0-.881-.687 3.203 3.203 0 0 0-.981-.342 5.53 5.53 0 0 0-.91-.054h-1.886zm1.846-1.026c.63 0 1.201.063 1.716.188.515.125.947.302 1.296.53.348.228.648.485.899.772.25.287.445.608.584.96.14.354.24.701.304 1.043.064.342.096.698.096 1.067 0 .424-.032.831-.096 1.223a5.96 5.96 0 0 1-.331 1.197 4.455 4.455 0 0 1-.602 1.09 3.84 3.84 0 0 1-.947.868 4.203 4.203 0 0 1-1.319.57c-.255.065-.54.113-.854.144a10.5 10.5 0 0 1-.78.055 41.79 41.79 0 0 1-.868.007H35.64v-9.714h3.007zm14.383 2.666c0 .324-.038.631-.116.923-.077.292-.198.57-.362.834a2.27 2.27 0 0 1-.68.687c-.29.194-.628.336-1.016.427L53.597 199h-1.3l-2.631-4.047h-1.88V199h-1.169v-9.714h3.569c.164 0 .312.005.444.014.132.009.302.033.51.072.207.038.39.09.55.157.159.066.326.166.502.3.175.135.321.293.437.476.117.182.212.414.288.697.075.283.112.6.112.95zm-5.243 1.976h1.675c.232 0 .437-.008.615-.024a3.3 3.3 0 0 0 .626-.13 1.72 1.72 0 0 0 .594-.294c.158-.125.292-.308.404-.547a2.01 2.01 0 0 0 .167-.851c0-.232-.03-.442-.089-.629a1.529 1.529 0 0 0-.225-.461 1.38 1.38 0 0 0-.335-.315 1.834 1.834 0 0 0-.383-.201 2.437 2.437 0 0 0-.41-.11 3.54 3.54 0 0 0-.684-.061h-1.955v3.623zm8.661-4.642h1.64l3.118 5.893 3.165-5.893h1.538V199h-1.162v-8.046l-2.987 5.264h-1.162l-2.988-5.264V199h-1.162v-9.714zm-21.39 14.911c.748 0 1.552.13 2.414.39l-.376 1.06c-.82-.237-1.532-.356-2.133-.356-.675 0-1.245.142-1.712.427-.468.285-.701.653-.701 1.104 0 .25.075.474.225.67.15.196.349.356.595.479s.527.245.841.365c.314.121.635.232.96.332.326.1.646.228.96.383.315.155.596.324.842.51.246.184.444.424.594.72.15.296.226.631.226 1.005 0 .26-.041.519-.123.776a2.566 2.566 0 0 1-.41.766 2.971 2.971 0 0 1-.711.666c-.283.192-.64.346-1.07.465-.43.118-.91.178-1.439.178a6.102 6.102 0 0 1-1.46-.164 11.68 11.68 0 0 1-1.493-.493l.396-1.127c1.14.423 2.04.635 2.7.635.693 0 1.257-.139 1.693-.417.435-.278.652-.65.652-1.114 0-.31-.096-.578-.29-.803a2.126 2.126 0 0 0-.752-.547 9.821 9.821 0 0 0-1.022-.39c-.374-.12-.746-.25-1.118-.39a6.38 6.38 0 0 1-1.018-.481 2.198 2.198 0 0 1-.752-.739c-.194-.31-.29-.674-.29-1.093 0-.374.09-.732.27-1.074.18-.341.429-.641.748-.898.319-.258.718-.463 1.196-.616a5.102 5.102 0 0 1 1.559-.229zm7.828 2.92c.328 0 .623.04.885.119.262.08.48.181.653.304.173.123.322.284.448.482.125.198.22.39.287.574.066.185.117.407.154.667.036.26.059.485.068.676.009.192.014.417.014.677v.533h-4.642c0 .247.056.491.167.735.112.244.27.467.472.67.203.203.47.368.8.496.33.127.696.191 1.097.191.474 0 .987-.082 1.538-.246l.198.766a6.657 6.657 0 0 1-2.16.376c-.496 0-.937-.066-1.322-.199-.386-.132-.695-.304-.93-.516a2.603 2.603 0 0 1-.578-.762 3.372 3.372 0 0 1-.31-.885 4.899 4.899 0 0 1-.086-.933c0-.506.061-.969.184-1.388.123-.42.29-.771.5-1.056a3.15 3.15 0 0 1 .734-.721c.28-.196.574-.339.882-.427.308-.09.623-.134.947-.134zm-.24.97c-.4 0-.746.11-1.035.331-.29.221-.5.496-.632.824a2.81 2.81 0 0 0-.199 1.06h3.528c0-1.477-.554-2.215-1.661-2.215zm5.866-.335a3.089 3.089 0 0 1 1.886-.636c.474 0 .905.09 1.292.267l-.341.895a3.059 3.059 0 0 0-1.108-.205c-.57 0-1.105.157-1.606.472V214h-1.121v-6.754h.786l.212.506zm9.59-.506L55.73 214h-1.162l-2.365-6.754h1.23l1.75 5.64 1.757-5.64h1.163zm4.58-.13c.329 0 .624.04.886.12.262.08.48.181.653.304.173.123.322.284.447.482.126.198.222.39.288.574.066.185.117.407.153.667.037.26.06.485.069.676.009.192.013.417.013.677v.533h-4.64c0 .247.056.491.167.735.112.244.27.467.472.67.203.203.47.368.8.496.33.127.696.191 1.097.191.474 0 .987-.082 1.538-.246l.198.766a6.657 6.657 0 0 1-2.16.376c-.497 0-.938-.066-1.323-.199-.385-.132-.695-.304-.93-.516a2.603 2.603 0 0 1-.577-.762 3.372 3.372 0 0 1-.311-.885 4.899 4.899 0 0 1-.085-.933c0-.506.061-.969.184-1.388.123-.42.29-.771.5-1.056a3.15 3.15 0 0 1 .734-.721c.28-.196.574-.339.882-.427a3.35 3.35 0 0 1 .947-.134zm-.239.97c-.4 0-.746.111-1.035.332-.29.221-.5.496-.633.824a2.81 2.81 0 0 0-.198 1.06h3.528c0-1.477-.554-2.215-1.662-2.215zm5.866-.334a3.089 3.089 0 0 1 1.886-.636c.474 0 .905.09 1.292.267l-.341.895a3.059 3.059 0 0 0-1.108-.205c-.57 0-1.105.157-1.606.472V214H67.31v-6.754h.786l.212.506z" fill="#222"/><g fill-rule="nonzero"><path d="M340.135 51.604v1.157c0 2.107-2.34 4.283-5.22 4.283h-15.411c-2.88 0-5.221-2.176-5.221-4.283v-1.157h25.852z" fill="#9D5125"/><path d="M324.233 40.326c2.595-.004 4.952 1.494 6.025 3.83a3.387 3.387 0 0 1 3.398-.225 3.312 3.312 0 0 1 1.845 2.829c2.605.213 4.634 2.698 4.634 4.67v.428c0 2.122-2.34 4.272-5.232 4.272h-15.4c-2.883 0-5.224-2.15-5.224-4.272v-.424c0-1.636 1.39-3.884 3.346-4.442v-.185a6.468 6.468 0 0 1 1.946-4.593 6.623 6.623 0 0 1 4.662-1.888z" fill="#F58535"/><path d="M320.759 47.34l-1.729 5.966h1.013l.389-1.45h1.78l.366 1.45h1.013l-1.589-5.965h-1.243zm-.155 3.743l.734-2.948.697 2.941-1.43.007zm7.335.918l.793-4.66h.961l-1.207 5.965h-1.123l-.781-4.493h-.019l-.774 4.493h-1.126l-1.17-5.965h.979l.796 4.634h.018l.8-4.634h1.02l.818 4.66h.015zm4.876-1.951c.859.297 1.237.758 1.226 1.574 0 1.269-.785 1.795-2.01 1.795-1.494 0-1.835-.98-1.835-1.813v-.142h.968v.152c0 .726.323 1.088.995 1.088a.865.865 0 0 0 .656-.233.844.844 0 0 0 .265-.637 1.004 1.004 0 0 0-.874-1.052l-.664-.228c-.899-.334-1.266-.783-1.266-1.636 0-1.088.749-1.69 1.89-1.69 1.556 0 1.717.954 1.717 1.57v.135h-.972v-.127a.745.745 0 0 0-.206-.643.765.765 0 0 0-.645-.22.779.779 0 0 0-.612.24.76.76 0 0 0-.203.62c0 .51.272.783.914 1.011l.656.236z" fill="#FFF"/></g><path d="M141.762 56.827c1.549 0 2.633-.272 3.254-.817.622-.544.932-1.307.932-2.288 0-1.058-.322-1.836-.966-2.335-.644-.498-1.71-.747-3.197-.747h-1.104v3.174c0 1.012.015 2.016.046 3.013h1.035zm-1.035-12.88c-.03.92-.046 1.84-.046 2.76v2.783h1.035c1.242 0 2.147-.23 2.714-.69.567-.46.851-1.173.851-2.139 0-.966-.26-1.66-.782-2.082-.521-.421-1.326-.632-2.415-.632h-1.357zm2.093-1.173c1.717 0 3.001.349 3.853 1.046.85.698 1.276 1.607 1.276 2.726 0 .767-.234 1.468-.701 2.104-.468.637-1.262 1.085-2.381 1.346.705.123 1.303.303 1.794.54.49.238.893.518 1.207.84.315.322.541.686.679 1.093.138.406.207.831.207 1.276 0 .521-.103 1.035-.31 1.541-.208.506-.564.962-1.07 1.368-.506.407-1.192.733-2.059.978-.866.245-1.95.368-3.254.368h-6.187v-1.058l1.978-.207c.03-.966.046-1.936.046-2.91v-6.854a92.9 92.9 0 0 0-.046-2.932l-1.978-.207v-1.058h6.946zm14.099 9.269c-.353.107-.686.215-1 .322-.315.107-.58.2-.794.276-.828.322-1.372.686-1.633 1.092-.26.407-.391.817-.391 1.231 0 .307.042.552.127.736.084.184.195.345.333.483.337.337.782.506 1.334.506.307 0 .602-.065.886-.196.283-.13.663-.371 1.138-.724v-3.726zm4.623 4.738c-.291.567-.61.95-.955 1.15-.345.2-.762.299-1.253.299-.644 0-1.158-.138-1.541-.414a2.049 2.049 0 0 1-.782-1.127c-.276.276-.54.517-.794.724a4.94 4.94 0 0 1-.759.518 3.27 3.27 0 0 1-.816.31 4.194 4.194 0 0 1-.966.104c-.874 0-1.61-.241-2.208-.724-.598-.484-.897-1.185-.897-2.105 0-.337.054-.667.161-.989.107-.322.31-.64.61-.954.299-.315.712-.618 1.241-.909.53-.291 1.208-.583 2.036-.874.307-.107.663-.218 1.07-.333.406-.116.816-.234 1.23-.357v-.621c0-1.043-.157-1.763-.472-2.162-.314-.399-.847-.598-1.598-.598-.138 0-.287.008-.449.023a5.884 5.884 0 0 0-.494.069l-.322 1.472c-.184.966-.66 1.449-1.426 1.449-.337 0-.613-.1-.828-.299-.215-.2-.345-.46-.391-.782.153-.89.644-1.614 1.472-2.174.828-.56 1.909-.839 3.243-.839 1.319 0 2.28.322 2.886.966.606.644.909 1.763.909 3.358v4.83c0 .72.222 1.081.667 1.081a.752.752 0 0 0 .437-.127 1.86 1.86 0 0 0 .345-.31l.115-.115.529.46zm10.787-1.472c-.307.981-.851 1.733-1.633 2.254-.782.521-1.733.782-2.852.782-.813 0-1.549-.134-2.208-.403a4.732 4.732 0 0 1-1.69-1.15c-.468-.498-.828-1.107-1.082-1.828-.253-.72-.379-1.533-.379-2.438 0-.92.153-1.744.46-2.473a5.628 5.628 0 0 1 1.23-1.851 5.31 5.31 0 0 1 1.783-1.162 5.734 5.734 0 0 1 2.139-.402c.567 0 1.1.08 1.598.241.499.162.936.38 1.311.656.376.276.675.602.897.977.223.376.357.786.403 1.231-.138.66-.544.989-1.219.989-.843 0-1.319-.498-1.426-1.495l-.253-1.38a3.502 3.502 0 0 0-.966-.138c-.46 0-.885.1-1.277.299-.39.2-.735.49-1.035.874-.299.383-.532.855-.701 1.414-.169.56-.253 1.2-.253 1.921 0 1.487.33 2.607.989 3.358.66.751 1.495 1.127 2.507 1.127 1.257 0 2.246-.59 2.967-1.771l.69.368zm13.478 1.771V58h-3.749l-3.289-5.52-1.311 1.311a99.512 99.512 0 0 0 .046 2.99l1.61.299V58h-5.796v-.92l1.61-.299a148.513 148.513 0 0 0 .046-3.611v-9.706l-1.817-.23v-.874l4.071-1.035.322.184-.092 3.266v7.613l4.117-4.117-1.702-.253v-.966h5.267v.966l-2.139.299-2.438 2.392 3.657 6.026 1.587.345zm6.739-5.635c.552 0 .924-.115 1.115-.345.192-.23.288-.552.288-.966 0-.69-.195-1.265-.587-1.725-.39-.46-.877-.69-1.46-.69-.291 0-.59.065-.897.195a2.53 2.53 0 0 0-.863.633c-.268.291-.494.675-.678 1.15-.184.475-.307 1.058-.368 1.748h3.45zm-3.496 1.058c.03 1.395.368 2.446 1.012 3.151.644.705 1.48 1.058 2.507 1.058.705 0 1.292-.15 1.76-.449a4.834 4.834 0 0 0 1.276-1.23l.667.414c-.353.92-.928 1.633-1.725 2.139-.797.506-1.756.759-2.875.759-.813 0-1.545-.13-2.197-.391a4.629 4.629 0 0 1-1.679-1.139 5.116 5.116 0 0 1-1.08-1.816c-.254-.714-.38-1.522-.38-2.427 0-.874.142-1.675.425-2.403a5.638 5.638 0 0 1 1.173-1.875 5.395 5.395 0 0 1 3.921-1.656c.676 0 1.293.111 1.852.333.56.223 1.04.533 1.438.932.399.399.71.885.931 1.46.223.576.334 1.216.334 1.921a4.723 4.723 0 0 1-.161 1.219h-7.199zm21.85 4.577V58h-5.612v-.92l1.541-.299c.015-.567.023-1.18.023-1.84v-3.887c0-.966-.119-1.652-.357-2.059-.237-.406-.655-.609-1.253-.609-.49 0-.966.119-1.426.356-.46.238-.943.595-1.449 1.07v5.106c0 .66.008 1.28.023 1.863l1.472.299V58h-5.635v-.92l1.564-.299a72.54 72.54 0 0 0 .023-1.863v-2.99c0-.629-.008-1.138-.023-1.53l-.046-1.276-1.679-.207v-.851l3.703-1.426.345.23.184 1.84c.613-.69 1.23-1.207 1.851-1.553.622-.345 1.315-.517 2.082-.517 1.058 0 1.851.326 2.38.978.53.651.794 1.705.794 3.162v4.163c0 .66.008 1.273.023 1.84l1.472.299zm9.315-7.958c-.813-.629-1.556-.943-2.231-.943-.383 0-.747.084-1.093.253a2.553 2.553 0 0 0-.92.793c-.268.36-.479.813-.632 1.357-.153.545-.23 1.185-.23 1.921 0 1.457.264 2.534.793 3.232.53.697 1.2 1.046 2.013 1.046.767 0 1.533-.322 2.3-.966v-6.693zm4.14 7.958V58l-3.864.23-.184-1.426c-.445.49-.928.87-1.449 1.138-.521.269-1.135.403-1.84.403-.675 0-1.296-.13-1.863-.391a4.044 4.044 0 0 1-1.46-1.139c-.407-.498-.725-1.103-.955-1.817-.23-.713-.345-1.521-.345-2.426 0-.905.126-1.721.38-2.45.253-.728.597-1.353 1.034-1.874a4.43 4.43 0 0 1 1.553-1.196 4.554 4.554 0 0 1 1.932-.414c1.196 0 2.208.46 3.036 1.38v-4.554l-1.909-.23v-.874l4.117-1.035.322.184-.092 3.266v12.006l1.587.299zm12.696-7.889c.797.291 1.464.602 2.001.931.537.33.974.687 1.311 1.07.337.383.579.79.724 1.219.146.43.219.882.219 1.357 0 .675-.142 1.292-.426 1.851a4.387 4.387 0 0 1-1.184 1.45c-.506.406-1.112.72-1.817.942-.705.223-1.487.334-2.346.334a9.801 9.801 0 0 1-2.553-.333c-.828-.223-1.533-.51-2.116-.863l.138-3.312h1.679l.46 2.737a4.91 4.91 0 0 0 1.081.414c.368.092.79.138 1.265.138 1.027 0 1.836-.23 2.426-.69.59-.46.886-1.104.886-1.932 0-.322-.05-.606-.15-.851a1.868 1.868 0 0 0-.471-.667 3.698 3.698 0 0 0-.805-.552 9.907 9.907 0 0 0-1.173-.506l-1.012-.368c-1.288-.49-2.304-1.115-3.048-1.875-.743-.759-1.115-1.713-1.115-2.863 0-.66.13-1.257.391-1.794.26-.537.625-.997 1.092-1.38.468-.383 1.032-.682 1.691-.897.66-.215 1.395-.322 2.208-.322.813 0 1.56.107 2.242.322a6.451 6.451 0 0 1 1.829.897l-.161 3.082h-1.656l-.483-2.691a4.51 4.51 0 0 0-1.817-.391c-.414 0-.797.054-1.15.161a2.75 2.75 0 0 0-.92.472 2.23 2.23 0 0 0-.621.782c-.153.314-.23.67-.23 1.069 0 .69.218 1.23.655 1.622.438.39 1.07.74 1.898 1.046l1.058.391zm12.144 2.254c.552 0 .924-.115 1.115-.345.192-.23.288-.552.288-.966 0-.69-.195-1.265-.587-1.725-.39-.46-.877-.69-1.46-.69-.291 0-.59.065-.897.195a2.53 2.53 0 0 0-.863.633c-.268.291-.494.675-.678 1.15-.184.475-.307 1.058-.368 1.748h3.45zm-3.496 1.058c.03 1.395.368 2.446 1.012 3.151.644.705 1.48 1.058 2.507 1.058.705 0 1.292-.15 1.76-.449a4.834 4.834 0 0 0 1.276-1.23l.667.414c-.353.92-.928 1.633-1.725 2.139-.797.506-1.756.759-2.875.759-.813 0-1.545-.13-2.197-.391a4.629 4.629 0 0 1-1.679-1.139 5.116 5.116 0 0 1-1.08-1.816c-.254-.714-.38-1.522-.38-2.427 0-.874.142-1.675.425-2.403a5.638 5.638 0 0 1 1.173-1.875 5.395 5.395 0 0 1 3.922-1.656c.675 0 1.292.111 1.851.333.56.223 1.04.533 1.438.932.399.399.71.885.931 1.46.223.576.334 1.216.334 1.921a4.723 4.723 0 0 1-.161 1.219h-7.199zm13.294-3.197c.43-.828.928-1.48 1.495-1.955.567-.475 1.142-.713 1.725-.713.322 0 .652.092.989.276.337.184.552.514.644.989 0 .445-.138.801-.414 1.07-.276.268-.636.402-1.081.402-.537 0-1.05-.253-1.541-.759l-.115-.115a6.05 6.05 0 0 0-.954 1.058 6.028 6.028 0 0 0-.725 1.403v3.921c0 .652.008 1.27.023 1.852l1.84.345V58h-5.98v-.92l1.541-.299a70.24 70.24 0 0 0 .023-1.852v-3.001c0-.629-.008-1.138-.023-1.53l-.046-1.276-1.679-.207v-.851l3.703-1.426.345.23.23 2.438zm17.227-1.288l-1.357.253-3.933 9.959h-1.127l-4.117-9.982-1.288-.23v-.966h5.934v.966l-1.817.299 2.553 6.854 2.507-6.877-1.656-.276v-.966h4.301v.966zm6.785 3.427c.552 0 .924-.115 1.115-.345.192-.23.288-.552.288-.966 0-.69-.195-1.265-.587-1.725-.39-.46-.877-.69-1.46-.69-.291 0-.59.065-.897.195a2.53 2.53 0 0 0-.863.633c-.268.291-.494.675-.678 1.15-.184.475-.307 1.058-.368 1.748h3.45zm-3.496 1.058c.03 1.395.368 2.446 1.012 3.151.644.705 1.48 1.058 2.507 1.058.705 0 1.292-.15 1.76-.449a4.834 4.834 0 0 0 1.276-1.23l.667.414c-.353.92-.928 1.633-1.725 2.139-.797.506-1.756.759-2.875.759-.813 0-1.545-.13-2.197-.391a4.629 4.629 0 0 1-1.679-1.139 5.116 5.116 0 0 1-1.08-1.816c-.254-.714-.38-1.522-.38-2.427 0-.874.142-1.675.425-2.403a5.638 5.638 0 0 1 1.173-1.875 5.395 5.395 0 0 1 3.921-1.656c.676 0 1.293.111 1.852.333.56.223 1.04.533 1.438.932.399.399.71.885.931 1.46.223.576.334 1.216.334 1.921a4.723 4.723 0 0 1-.161 1.219h-7.199zm13.294-3.197c.43-.828.928-1.48 1.495-1.955.567-.475 1.142-.713 1.725-.713.322 0 .652.092.989.276.337.184.552.514.644.989 0 .445-.138.801-.414 1.07-.276.268-.636.402-1.081.402-.537 0-1.05-.253-1.541-.759l-.115-.115c-.353.307-.67.66-.955 1.058a6.028 6.028 0 0 0-.724 1.403v3.921c0 .652.008 1.27.023 1.852l1.84.345V58h-5.98v-.92l1.541-.299a70.24 70.24 0 0 0 .023-1.852v-3.001c0-.629-.008-1.138-.023-1.53l-.046-1.276-1.679-.207v-.851l3.703-1.426.345.23.23 2.438zm11.293 2.093a7.775 7.775 0 0 1 1.472.701c.399.254.717.522.954.805.238.284.407.59.506.92.1.33.15.671.15 1.024 0 .49-.103.95-.31 1.38-.208.43-.51.801-.909 1.115-.399.315-.89.56-1.472.736-.583.177-1.242.265-1.978.265s-1.391-.084-1.967-.253a8.415 8.415 0 0 1-1.759-.759l-.046-2.576h1.541l.345 2.001c.613.307 1.25.46 1.909.46.813 0 1.407-.142 1.782-.426.376-.283.564-.686.564-1.207 0-.445-.161-.805-.483-1.081-.322-.276-.89-.567-1.702-.874l-1.058-.391c-.89-.353-1.575-.79-2.059-1.311-.483-.521-.724-1.173-.724-1.955 0-.475.096-.916.287-1.323.192-.406.472-.758.84-1.058.368-.299.82-.532 1.357-.701.537-.169 1.158-.253 1.863-.253.66 0 1.25.077 1.771.23a8.16 8.16 0 0 1 1.587.667l-.115 2.438h-1.472l-.368-1.886a3.36 3.36 0 0 0-.69-.253 3.316 3.316 0 0 0-.805-.092c-.629 0-1.115.138-1.46.414-.346.276-.518.66-.518 1.15 0 .399.153.728.46.989.307.26.89.544 1.748.851l.759.253zM48.834 57.15c1.275 0 1.913-.44 1.913-1.32 0-.494-.374-.892-1.123-1.195-.748-.302-1.566-.646-2.453-1.03a10.592 10.592 0 0 1-2.453-1.484c-.748-.605-1.122-1.457-1.122-2.557 0-1.429.513-2.46 1.538-3.091 1.026-.633 2.26-.949 3.7-.949.444 0 .943.042 1.497.124a5.547 5.547 0 0 1 1.538.453c.472.22.873.509 1.206.866.333.358.499.811.499 1.36v.825a.557.557 0 0 1-.166.412c-.167.275-.61.413-1.33.413-.721 0-1.165-.138-1.331-.413a.557.557 0 0 1-.166-.412c0-.33-.18-.577-.54-.742a2.668 2.668 0 0 0-1.123-.247c-.61 0-1.11.096-1.497.288-.388.193-.582.509-.582.949 0 .494.374.893 1.122 1.195.749.302 1.58.646 2.495 1.03.914.386 1.76.867 2.536 1.444s1.164 1.443 1.164 2.597c0 1.264-.513 2.267-1.538 3.01-1.026.742-2.287 1.113-3.784 1.113-.942 0-1.732-.11-2.37-.33a8.099 8.099 0 0 1-1.62-.742 3.905 3.905 0 0 1-1.248-1.072.8.8 0 0 1-.333-.495c-.11-.385.028-.77.416-1.154.277-.275.513-.44.707-.495a.905.905 0 0 1 .54 0 .808.808 0 0 1 .5.33c.221.22.498.44.83.66.278.164.624.316 1.04.453.416.137.929.206 1.538.206zm21.869 2.639c-.388 0-.582-.193-.582-.578V47.915c0-1.044.526-1.594 1.58-1.649h.166c.61-.055 1.012.097 1.206.454.194.357.318.756.374 1.195v11.296c0 .385-.194.578-.582.578h-2.162zm-.416-15.584c-.499-.385-.748-.907-.748-1.567 0-.55.222-1.044.665-1.484.333-.33.86-.55 1.58-.66.61 0 1.109.193 1.497.578.388.44.637.934.748 1.484v.082c0 .605-.194 1.1-.582 1.485-.388.384-.943.577-1.663.577-.665 0-1.164-.165-1.497-.495zm21.869 13.687c-.555-.604-.998-1.347-1.33-2.226-.333-.825-.5-1.787-.5-2.886 0-.824.167-1.704.5-2.638a5.056 5.056 0 0 1 1.163-2.144c.278-.385.582-.715.915-.99a5.21 5.21 0 0 1 .998-.66 6.108 6.108 0 0 1 2.744-.659c.61 0 1.15.069 1.621.206a8.34 8.34 0 0 1 1.372.536c.166.11.291.165.374.165.084 0 .18.055.291.165v-5.03c-.055-.44.07-.838.375-1.195.304-.357.706-.536 1.205-.536.665 0 1.095.179 1.29.536.193.357.318.756.373 1.196v17.48c0 .384-.194.577-.582.577h-1.995c-.444 0-.666-.193-.666-.578v-.66c-.055.11-.11.18-.166.207a.651.651 0 0 0-.166.124c-.388.274-.887.494-1.497.66a6.689 6.689 0 0 1-1.746.247c-.942 0-1.774-.165-2.495-.495a6.59 6.59 0 0 1-2.078-1.402zm1.912-7.008a7.12 7.12 0 0 0-.25 1.896 8.212 8.212 0 0 0 .167 1.65c.11.439.291.92.54 1.442.25.522.624.92 1.123 1.196.443.274.942.412 1.497.412.332 0 .72-.11 1.164-.33.443-.275.804-.55 1.08-.824.278-.275.5-.797.666-1.567.055-.275.11-.577.166-.907.056-.33.083-.88.083-1.649 0-.275-.013-.522-.041-.742-.028-.22-.07-.467-.125-.742-.443-1.76-1.469-2.639-3.076-2.639-.777 0-1.414.275-1.913.825-.499.55-.86 1.21-1.08 1.979zm12.722 8.905c-.388 0-.582-.193-.582-.578v-17.48c0-.604.166-1.044.499-1.319a1.77 1.77 0 0 1 1.164-.412c.444 0 .818.165 1.123.495.304.33.457.742.457 1.237v17.48c0 .384-.194.577-.582.577h-2.079zm17.794-10.39c.111.275.18.564.208.866.028.303.07.591.125.866.055.275.083.577.083.907v.825c0 .44-.222.66-.665.66h-9.313c.166 1.099.582 1.923 1.247 2.473.776.824 1.885 1.319 3.326 1.484 1.386 0 2.633-.22 3.742-.66.277-.11.554-.082.831.083.222.11.389.33.5.66 0 .11.013.22.041.33.028.11.014.247-.042.411-.055.11-.124.22-.207.33-.084.11-.236.22-.458.33-.72.275-1.469.495-2.245.66a11.49 11.49 0 0 1-1.122.123c-.416.028-.984.042-1.705.042-1.22-.11-2.19-.303-2.91-.578a5.414 5.414 0 0 1-1.247-.66 16.744 16.744 0 0 1-1.165-.906 4.02 4.02 0 0 1-.873-1.03c-.25-.413-.485-.84-.706-1.279a10.37 10.37 0 0 1-.416-1.402 7.554 7.554 0 0 1-.166-1.649c0-1.099.221-2.033.665-2.803.776-1.759 2.078-2.886 3.908-3.38a7.355 7.355 0 0 1 1.455-.33c.471-.055.984-.083 1.538-.083.776 0 1.538.151 2.287.454a5.86 5.86 0 0 1 1.954 1.278c.61.604 1.053 1.264 1.33 1.979zm-2.993 1.732a3.93 3.93 0 0 0-.25-1.402c-.72-1.704-2.023-2.253-3.908-1.649-.942.385-1.635 1.017-2.078 1.897-.167.275-.278.66-.333 1.154h6.569zM76.523 71.167c.167.11.084.206-.249.289-.333.082-.638.15-.915.206a68.51 68.51 0 0 0-4.531.824c-1.525.33-2.924.935-4.2 1.814-.277.22-.582.44-.914.66a3.71 3.71 0 0 1-1.164.495c-.61.11-1.234.137-1.871.082a7.074 7.074 0 0 0-1.871.082c-1.552.33-3.049.797-4.49 1.402a30.511 30.511 0 0 0-3.576 1.65c-.11.054-.318.137-.623.247-.305.11-.513.11-.624 0a390.572 390.572 0 0 0-4.24-4.618c-1.386-1.484-2.8-2.996-4.241-4.535-.056-.11.055-.22.332-.33 1.275-.44 2.55-.81 3.825-1.113a66.948 66.948 0 0 0 4.075-1.113 39.06 39.06 0 0 0 1.58-.742c.554-.275 1.053-.55 1.496-.824.5-.33.873-.797 1.123-1.402.25-.605.402-1.25.457-1.938.056-.687.056-1.401 0-2.143a28.294 28.294 0 0 1-.083-2.103l-.166-4.287a60.157 60.157 0 0 0-.125-4.123 20.33 20.33 0 0 1-.042-1.278V46.76c0-.165.07-.398.208-.7.139-.303.54-.454 1.206-.454.665 0 1.08.11 1.247.33.167.22.333.55.5.989.332-.275.609-.467.83-.577.222-.11.5-.22.832-.33a4.77 4.77 0 0 1 .832-.247 4.71 4.71 0 0 1 .914-.083c1.94 0 3.493.632 4.657 1.897 1.164 1.154 1.746 2.83 1.746 5.03 0 .769-.111 1.62-.333 2.555-.11.44-.235.852-.374 1.237a3.504 3.504 0 0 1-.624 1.072c-.277.33-.568.632-.873.907a4.956 4.956 0 0 1-1.122.742c-.887.385-1.857.577-2.91.577-1.054 0-1.94-.192-2.661-.577a1.302 1.302 0 0 0-.333-.247 1.302 1.302 0 0 1-.332-.248v1.196c0 .192-.028.508-.084.948-.055.55-.235 1.278-.54 2.185-.305.907-1.012 1.69-2.12 2.35-.61.275-1.206.55-1.788.824-.582.275-1.095.495-1.538.66a30.634 30.634 0 0 1-4.033 1.567c-1.414.44-2.786.852-4.116 1.236l3.95 4.247a326.068 326.068 0 0 1 3.95 4.328 35.241 35.241 0 0 1 5.778-2.39c2.079-.66 4.144-.935 6.195-.825a15.13 15.13 0 0 1 4.698-2.515 27.616 27.616 0 0 1 5.28-1.196c-.72-.44-1.428-.838-2.12-1.195a21.86 21.86 0 0 1-2.038-1.196 38.45 38.45 0 0 1-2.619-1.649c-.97-.66-1.843-1.1-2.62-1.319a22.769 22.769 0 0 0-2.327-.371 7.382 7.382 0 0 0-2.329.124c-1.275.275-2.161.577-2.66.907-.5.33-1.164.742-1.996 1.236 1.164.88 2.259 1.8 3.284 2.763 1.026.962 2.176 1.992 3.451 3.092l-7.65-5.69c-.11-.055-.11-.137 0-.247 2.162-1.759 4.823-2.638 7.983-2.638.61 0 1.289.027 2.037.082.748.055 1.4.22 1.954.495 1.608.934 3.215 1.855 4.823 2.762 1.607.907 3.215 1.828 4.822 2.762zM59.145 49.812a4.4 4.4 0 0 0-.25 1.03c-.055.413-.083 1.251-.083 2.515 0 .44.07.88.208 1.32.139.44.319.879.54 1.319.222.385.541.7.957.948.416.247.845.371 1.289.371 1.22 0 2.079-.467 2.577-1.402a6.37 6.37 0 0 0 .583-1.731c.332-1.54.166-3.05-.5-4.535-.554-1.1-1.44-1.65-2.66-1.65a2.79 2.79 0 0 0-1.663.537c-.5.357-.832.783-.998 1.278zm29.352 9.4c0 .384-.222.577-.665.577h-2.079c-.333 0-.499-.193-.499-.578v-8.327a3.61 3.61 0 0 0-.083-.784c-.055-.247-.194-.508-.416-.783-.332-.495-.887-.714-1.663-.66-.166.055-.346.11-.54.165a3.668 3.668 0 0 0-.624.248c-.277.165-.513.316-.707.453a3.276 3.276 0 0 0-.623.619c-.167.22-.347.426-.54.618a2.056 2.056 0 0 0-.458.7c-.222.44-.333.88-.333 1.32v6.431c0 .385-.194.578-.582.578h-2.078c-.388 0-.582-.193-.582-.578V47.503a2.09 2.09 0 0 1 .249-1.278c.222-.412.61-.618 1.164-.618h.416c.61-.055 1.011.137 1.205.577.195.44.264.88.208 1.32v.494c.111-.11.222-.206.333-.289.11-.082.222-.178.333-.288a6.629 6.629 0 0 1 1.663-.99c.665-.275 1.413-.44 2.245-.494 1.33 0 2.439.357 3.326 1.071.887.77 1.33 1.677 1.33 2.721v9.482z" fill="#222"/></g></svg>