<svg width="50" height="60" xmlns="http://www.w3.org/2000/svg"><g fill="none"><path fill="#8C3123" d="M4.074 10.412L.059 12.41v35.1l4.015 1.997 9.852-19.55z"/><path fill="#E05243" d="M25 44.459L4.074 49.5V10.412L25 15.454l9.89 14.56z"/><path fill="#8C3123" d="M25 44.459L45.92 49.5l3.617-19.046-3.618-20.042L25 15.454z"/><path fill="#E05243" d="M45.92 10.412l4.021 1.998v35.1l-4.022 1.997z"/><path fill="#8C3123" d="M15.875 36.424L25 37.588l7.235-7.573L25 22.449l-9.125 1.141z"/><path fill="#5E1F18" d="M34.125 17.378L25 19.032l-9.125-1.654L25 0z"/><path fill="#F2B0A9" d="M34.125 42.622L25 40.954l-9.125 1.668L25 60z"/><path fill="#E05243" d="M34.125 17.378L25 15.132V0l9.125 4.537z"/><path fill="#8C3123" d="M15.875 17.378L25 15.132V0l-9.125 4.537z"/><path fill="#E05243" d="M25 60l9.125-4.537V42.622L25 44.868z"/><path fill="#8C3123" d="M25 60l-9.125-4.537V42.622L25 44.868z"/><path fill="#E05243" d="M34.125 36.424L25 37.588v-15.14l9.125 1.142z"/></g></svg>