<svg width="50" height="60" xmlns="http://www.w3.org/2000/svg"><g fill="none"><path fill="#FBBF93" d="M17.671 34.515L6.514 49.603.671 34.543l10.658-.654zm14.543 0L43.486 49.69l5.728-15.132-10.543-.669z"/><path fill="#6B3A19" d="M17.671 24.442L6.514 9.31.671 24.456l10.75.648zm14.543 0L43.486 9.31l5.843 15.146-10.658.655z"/><path fill="#9D5025" d="M32.214 24.442l11.272-.842V9.31l-11.272 2.936z"/><path fill="#F58536" d="M49.329 24.456l-5.843-.856V9.31l5.843 2.943z"/><path fill="#9D5025" d="M32.214 34.515l11.272.885v14.29l-11.272-2.98z"/><path fill="#F58536" d="M49.214 34.558l-5.728.842v14.29l5.728-2.886zM17.671 24.442L6.514 23.6V9.31l11.157 2.936z"/><path fill="#9D5025" d="M.671 24.456l5.843-.856V9.31L.671 12.253z"/><path fill="#F58536" d="M17.671 34.515L6.514 35.4v14.29l11.157-2.98z"/><path fill="#9D5025" d="M.671 34.544l5.843.856v14.29L.671 46.747z"/><path fill="#FBBF93" d="M36.614 36.4L25 35.242l-11.729 1.144L25 59z"/><path fill="#6B3A19" d="M36.614 22.6L25 23.758l-11.729-1.144L25 0z"/><path fill="#F58536" d="M36.614 22.6L25 20.902V0l11.614 5.85z"/><path fill="#9D5025" d="M13.271 22.614L25 20.902V0L13.271 5.907z"/><path fill="#F58536" d="M36.614 36.4L25 38.098V59l11.614-5.85z"/><path fill="#9D5025" d="M13.271 36.386L25 38.098V59l-11.729-5.907z"/></g></svg>