<svg width="50" height="60" xmlns="http://www.w3.org/2000/svg"><g fill="none" fill-rule="evenodd"><g fill-rule="nonzero"><path fill="#19486F" d="M49.967 56.98h-50V54.5l25-7.02 25 7.02z"/><path fill="#2E73B8" d="M-.033 45h50v9.5h-50z"/></g><path fill="#FFF" d="M42 48h4v4h-4z"/><g fill-rule="nonzero"><path fill="#19486F" d="M49.967 41.98h-50V39.5l25-7.02 25 7.02z"/><path fill="#2E73B8" d="M-.033 30h50v9.5h-50z"/></g><path fill="#FFF" d="M42 33h4v4h-4z"/><g fill-rule="nonzero"><path fill="#19486F" d="M49.967 26.98h-50V24.5l25-7.02 25 7.02z"/><path fill="#2E73B8" d="M-.033 15h50v9.5h-50z"/></g><path fill="#FFF" d="M42 18h4v4h-4z"/><g fill-rule="nonzero"><path fill="#19486F" d="M49.967 11.98h-50V9.5l25-7.02 25 7.02z"/><path fill="#2E73B8" d="M-.033 0h50v9.5h-50z"/></g><path fill="#FFF" d="M42 3h4v4h-4z"/></g></svg>