<svg width="386" height="79" xmlns="http://www.w3.org/2000/svg"><g fill="none" fill-rule="evenodd"><g fill-rule="nonzero"><path d="M334.68 53.178v1.313c0 2.393-2.66 4.864-5.93 4.864h-17.5c-3.27 0-5.93-2.471-5.93-4.864v-1.313h29.36z" fill="#9D5125"/><path d="M316.62 40.37c2.948-.004 5.624 1.697 6.843 4.35a3.847 3.847 0 0 1 3.858-.256 3.761 3.761 0 0 1 2.096 3.212c2.958.243 5.262 3.064 5.262 5.304v.486c0 2.41-2.658 4.851-5.941 4.851H311.25c-3.275 0-5.933-2.442-5.933-4.851v-.482c0-1.857 1.579-4.41 3.8-5.044v-.21a7.345 7.345 0 0 1 2.21-5.216 7.52 7.52 0 0 1 5.294-2.143z" fill="#F58535"/><path d="M312.675 48.336l-1.962 6.775h1.15l.441-1.648h2.021l.417 1.648h1.15l-1.804-6.775h-1.413zm-.175 4.25l.833-3.348.792 3.34-1.625.008zm8.33 1.042l.9-5.292h1.09l-1.37 6.775h-1.275l-.888-5.103h-.02l-.88 5.103h-1.279l-1.329-6.775h1.113l.904 5.263h.02l.909-5.263h1.158l.93 5.292h.016zm5.537-2.216c.975.338 1.404.861 1.391 1.788 0 1.441-.891 2.038-2.283 2.038-1.696 0-2.083-1.112-2.083-2.059v-.16h1.1v.172c0 .824.366 1.236 1.129 1.236a.982.982 0 0 0 .745-.265.958.958 0 0 0 .3-.723 1.14 1.14 0 0 0-.991-1.195l-.754-.26c-1.021-.378-1.438-.889-1.438-1.856 0-1.236.85-1.92 2.146-1.92 1.767 0 1.95 1.084 1.95 1.784v.152h-1.104V50a.846.846 0 0 0-.234-.73.869.869 0 0 0-.733-.25.885.885 0 0 0-.694.273.862.862 0 0 0-.23.703c0 .58.308.89 1.037 1.149l.746.267z" fill="#FFF"/></g><text font-family="SourceSerifPro-Semibold, Source Serif Pro" font-size="23" font-weight="500" fill="#222"><tspan x="143" y="58">Authoring Tool</tspan></text><path d="M56.834 57.15c1.275 0 1.913-.44 1.913-1.32 0-.494-.374-.892-1.123-1.195-.748-.302-1.566-.646-2.453-1.03a10.592 10.592 0 0 1-2.453-1.484c-.748-.605-1.122-1.457-1.122-2.557 0-1.429.513-2.46 1.538-3.091 1.026-.633 2.26-.949 3.7-.949.444 0 .943.042 1.497.124a5.547 5.547 0 0 1 1.538.453c.472.22.873.509 1.206.866.333.358.499.811.499 1.36v.825a.557.557 0 0 1-.166.412c-.167.275-.61.413-1.33.413-.721 0-1.165-.138-1.331-.413a.557.557 0 0 1-.166-.412c0-.33-.18-.577-.54-.742a2.668 2.668 0 0 0-1.123-.247c-.61 0-1.11.096-1.497.288-.388.193-.582.509-.582.949 0 .494.374.893 1.122 1.195.749.302 1.58.646 2.495 1.03.914.386 1.76.867 2.536 1.444s1.164 1.443 1.164 2.597c0 1.264-.513 2.267-1.538 3.01-1.026.742-2.287 1.113-3.784 1.113-.942 0-1.732-.11-2.37-.33a8.099 8.099 0 0 1-1.62-.742 3.905 3.905 0 0 1-1.248-1.072.8.8 0 0 1-.333-.495c-.11-.385.028-.77.416-1.154.277-.275.513-.44.707-.495a.905.905 0 0 1 .54 0 .808.808 0 0 1 .5.33c.221.22.498.44.83.66.278.164.624.316 1.04.453.416.137.929.206 1.538.206zm21.869 2.639c-.388 0-.582-.193-.582-.578V47.915c0-1.044.526-1.594 1.58-1.649h.166c.61-.055 1.012.097 1.206.454.194.357.318.756.374 1.195v11.296c0 .385-.194.578-.582.578h-2.162zm-.416-15.584c-.499-.385-.748-.907-.748-1.567 0-.55.222-1.044.665-1.484.333-.33.86-.55 1.58-.66.61 0 1.109.193 1.497.578.388.44.637.934.748 1.484v.082c0 .605-.194 1.1-.582 1.485-.388.384-.943.577-1.663.577-.665 0-1.164-.165-1.497-.495zm21.869 13.687c-.555-.604-.998-1.347-1.33-2.226-.333-.825-.5-1.787-.5-2.886 0-.824.167-1.704.5-2.638a5.056 5.056 0 0 1 1.163-2.144c.278-.385.582-.715.915-.99a5.21 5.21 0 0 1 .998-.66 6.108 6.108 0 0 1 2.744-.659c.61 0 1.15.069 1.621.206a8.34 8.34 0 0 1 1.372.536c.166.11.291.165.374.165.084 0 .18.055.291.165v-5.03c-.055-.44.07-.838.375-1.195.304-.357.706-.536 1.205-.536.665 0 1.095.179 1.29.536.193.357.318.756.373 1.196v17.48c0 .384-.194.577-.582.577h-1.995c-.444 0-.666-.193-.666-.578v-.66c-.055.11-.11.18-.166.207a.651.651 0 0 0-.166.124c-.388.274-.887.494-1.497.66a6.689 6.689 0 0 1-1.746.247c-.942 0-1.774-.165-2.495-.495a6.59 6.59 0 0 1-2.078-1.402zm1.912-7.008a7.12 7.12 0 0 0-.25 1.896 8.212 8.212 0 0 0 .167 1.65c.11.439.291.92.54 1.442.25.522.624.92 1.123 1.196.443.274.942.412 1.497.412.332 0 .72-.11 1.164-.33.443-.275.804-.55 1.08-.824.278-.275.5-.797.666-1.567.055-.275.11-.577.166-.907.056-.33.083-.88.083-1.649 0-.275-.013-.522-.041-.742-.028-.22-.07-.467-.125-.742-.443-1.76-1.469-2.639-3.076-2.639-.777 0-1.414.275-1.913.825-.499.55-.86 1.21-1.08 1.979zm12.722 8.905c-.388 0-.582-.193-.582-.578v-17.48c0-.604.166-1.044.499-1.319a1.77 1.77 0 0 1 1.164-.412c.444 0 .818.165 1.123.495.304.33.457.742.457 1.237v17.48c0 .384-.194.577-.582.577h-2.079zm17.794-10.39c.111.275.18.564.208.866.028.303.07.591.125.866.055.275.083.577.083.907v.825c0 .44-.222.66-.665.66h-9.313c.166 1.099.582 1.923 1.247 2.473.776.824 1.885 1.319 3.326 1.484 1.386 0 2.633-.22 3.742-.66.277-.11.554-.082.831.083.222.11.389.33.5.66 0 .11.013.22.041.33.028.11.014.247-.042.411-.055.11-.124.22-.207.33-.084.11-.236.22-.458.33-.72.275-1.469.495-2.245.66a11.49 11.49 0 0 1-1.122.123c-.416.028-.984.042-1.705.042-1.22-.11-2.19-.303-2.91-.578a5.414 5.414 0 0 1-1.247-.66 16.744 16.744 0 0 1-1.165-.906 4.02 4.02 0 0 1-.873-1.03c-.25-.413-.485-.84-.706-1.279a10.37 10.37 0 0 1-.416-1.402 7.554 7.554 0 0 1-.166-1.649c0-1.099.221-2.033.665-2.803.776-1.759 2.078-2.886 3.908-3.38a7.355 7.355 0 0 1 1.455-.33c.471-.055.984-.083 1.538-.083.776 0 1.538.151 2.287.454a5.86 5.86 0 0 1 1.954 1.278c.61.604 1.053 1.264 1.33 1.979zm-2.993 1.732a3.93 3.93 0 0 0-.25-1.402c-.72-1.704-2.023-2.253-3.908-1.649-.942.385-1.635 1.017-2.078 1.897-.167.275-.278.66-.333 1.154h6.569zM84.523 71.167c.167.11.084.206-.249.289-.333.082-.638.15-.915.206a68.51 68.51 0 0 0-4.531.824c-1.525.33-2.924.935-4.2 1.814-.277.22-.582.44-.914.66a3.71 3.71 0 0 1-1.164.495c-.61.11-1.234.137-1.871.082a7.074 7.074 0 0 0-1.871.082c-1.552.33-3.049.797-4.49 1.402a30.511 30.511 0 0 0-3.576 1.65c-.11.054-.318.137-.623.247-.305.11-.513.11-.624 0a390.572 390.572 0 0 0-4.24-4.618c-1.386-1.484-2.8-2.996-4.241-4.535-.056-.11.055-.22.332-.33 1.275-.44 2.55-.81 3.825-1.113a66.948 66.948 0 0 0 4.075-1.113 39.06 39.06 0 0 0 1.58-.742c.554-.275 1.053-.55 1.496-.824.5-.33.873-.797 1.123-1.402.25-.605.402-1.25.457-1.938.056-.687.056-1.401 0-2.143a28.294 28.294 0 0 1-.083-2.103l-.166-4.287a60.157 60.157 0 0 0-.125-4.123 20.33 20.33 0 0 1-.042-1.278V46.76c0-.165.07-.398.208-.7.139-.303.54-.454 1.206-.454.665 0 1.08.11 1.247.33.167.22.333.55.5.989.332-.275.609-.467.83-.577.222-.11.5-.22.832-.33a4.77 4.77 0 0 1 .832-.247 4.71 4.71 0 0 1 .914-.083c1.94 0 3.493.632 4.657 1.897 1.164 1.154 1.746 2.83 1.746 5.03 0 .769-.111 1.62-.333 2.555-.11.44-.235.852-.374 1.237a3.504 3.504 0 0 1-.624 1.072c-.277.33-.568.632-.873.907a4.956 4.956 0 0 1-1.122.742c-.887.385-1.857.577-2.91.577-1.054 0-1.94-.192-2.661-.577a1.302 1.302 0 0 0-.333-.247 1.302 1.302 0 0 1-.332-.248v1.196c0 .192-.028.508-.084.948-.055.55-.235 1.278-.54 2.185-.305.907-1.012 1.69-2.12 2.35-.61.275-1.206.55-1.788.824-.582.275-1.095.495-1.538.66a30.634 30.634 0 0 1-4.033 1.567c-1.414.44-2.786.852-4.116 1.236l3.95 4.247a326.068 326.068 0 0 1 3.95 4.328 35.241 35.241 0 0 1 5.778-2.39c2.079-.66 4.144-.935 6.195-.825a15.13 15.13 0 0 1 4.698-2.515 27.616 27.616 0 0 1 5.28-1.196c-.72-.44-1.428-.838-2.12-1.195a21.86 21.86 0 0 1-2.038-1.196 38.45 38.45 0 0 1-2.619-1.649c-.97-.66-1.843-1.1-2.62-1.319a22.769 22.769 0 0 0-2.327-.371 7.382 7.382 0 0 0-2.329.124c-1.275.275-2.161.577-2.66.907-.5.33-1.164.742-1.996 1.236 1.164.88 2.259 1.8 3.284 2.763 1.026.962 2.176 1.992 3.451 3.092l-7.65-5.69c-.11-.055-.11-.137 0-.247 2.162-1.759 4.823-2.638 7.983-2.638.61 0 1.289.027 2.037.082.748.055 1.4.22 1.954.495 1.608.934 3.215 1.855 4.823 2.762 1.607.907 3.215 1.828 4.822 2.762zM67.145 49.812a4.4 4.4 0 0 0-.25 1.03c-.055.413-.083 1.251-.083 2.515 0 .44.07.88.208 1.32.139.44.319.879.54 1.319.222.385.541.7.957.948.416.247.845.371 1.289.371 1.22 0 2.079-.467 2.577-1.402a6.37 6.37 0 0 0 .583-1.731c.332-1.54.166-3.05-.5-4.535-.554-1.1-1.44-1.65-2.66-1.65a2.79 2.79 0 0 0-1.663.537c-.5.357-.832.783-.998 1.278zm29.352 9.4c0 .384-.222.577-.665.577h-2.079c-.333 0-.499-.193-.499-.578v-8.327a3.61 3.61 0 0 0-.083-.784c-.055-.247-.194-.508-.416-.783-.332-.495-.887-.714-1.663-.66-.166.055-.346.11-.54.165a3.668 3.668 0 0 0-.624.248c-.277.165-.513.316-.707.453a3.276 3.276 0 0 0-.623.619c-.167.22-.347.426-.54.618a2.056 2.056 0 0 0-.458.7c-.222.44-.333.88-.333 1.32v6.431c0 .385-.194.578-.582.578h-2.078c-.388 0-.582-.193-.582-.578V47.503a2.09 2.09 0 0 1 .249-1.278c.222-.412.61-.618 1.164-.618h.416c.61-.055 1.011.137 1.205.577.195.44.264.88.208 1.32v.494c.111-.11.222-.206.333-.289.11-.082.222-.178.333-.288a6.629 6.629 0 0 1 1.663-.99c.665-.275 1.413-.44 2.245-.494 1.33 0 2.439.357 3.326 1.071.887.77 1.33 1.677 1.33 2.721v9.482z" fill="#222"/></g></svg>