<svg width="386" height="260" xmlns="http://www.w3.org/2000/svg"><g fill="none" fill-rule="evenodd"><g fill-rule="nonzero"><path fill="#19486F" d="M308.967 175.98h-50v-2.48l25-7.02 25 7.02z"/><path fill="#2E73B8" d="M258.967 164h50v9.5h-50z"/></g><path fill="#FFF" d="M301 167h4v4h-4z"/><g fill-rule="nonzero"><path fill="#19486F" d="M308.967 160.98h-50v-2.48l25-7.02 25 7.02z"/><path fill="#2E73B8" d="M258.967 149h50v9.5h-50z"/></g><path fill="#FFF" d="M301 152h4v4h-4z"/><g fill-rule="nonzero"><path fill="#19486F" d="M308.967 145.98h-50v-2.48l25-7.02 25 7.02z"/><path fill="#2E73B8" d="M258.967 134h50v9.5h-50z"/></g><path fill="#FFF" d="M301 137h4v4h-4z"/><g fill-rule="nonzero"><path fill="#19486F" d="M308.967 130.98h-50v-2.48l25-7.02 25 7.02z"/><path fill="#2E73B8" d="M258.967 119h50v9.5h-50z"/></g><path fill="#FFF" d="M301 122h4v4h-4z"/><path d="M253.238 189.286h1.162v6.296c0 .387.033.72.1.998a1.8 1.8 0 0 0 .42.78c.456.514 1.128.772 2.017.772.642 0 1.179-.14 1.61-.42.43-.28.71-.676.837-1.187a4.09 4.09 0 0 0 .089-.943v-6.296h1.148a1521.644 1521.644 0 0 0 .014 6.399c0 .21-.005.393-.014.55-.009.157-.04.363-.092.619a2.862 2.862 0 0 1-.216.666c-.09.19-.229.39-.413.605-.185.214-.403.39-.656.53a3.818 3.818 0 0 1-.971.345 5.96 5.96 0 0 1-1.336.137 5.644 5.644 0 0 1-1.436-.168c-.424-.111-.757-.245-.998-.4a2.584 2.584 0 0 1-.626-.56 2.52 2.52 0 0 1-.362-.564 3.15 3.15 0 0 1-.16-.496c-.078-.3-.117-.727-.117-1.278v-6.385zm12.866 2.83c.095 0 .185.001.27.004.084.002.166.008.246.017.08.009.148.016.205.02.057.005.123.014.198.028l.164.03c.034.007.091.02.17.041l.148.038a12.912 12.912 0 0 1 .314.096l-.287.854c-.61-.168-1.148-.253-1.613-.253-.269 0-.507.028-.714.082a1.54 1.54 0 0 0-.479.198 1.063 1.063 0 0 0-.273.27.91.91 0 0 0-.137.27.88.88 0 0 0-.03.226c0 .187.096.353.29.5.193.145.435.263.724.355.29.09.603.199.94.324.337.126.65.258.94.397.29.139.531.334.725.584.193.25.29.54.29.868 0 .187-.024.368-.071.544a1.793 1.793 0 0 1-.274.55 1.897 1.897 0 0 1-.52.496c-.211.139-.495.254-.85.345a4.946 4.946 0 0 1-1.224.137c-.697 0-1.463-.171-2.297-.513l.314-.848c.47.174.854.297 1.152.37.299.072.592.109.879.109 1.112 0 1.668-.353 1.668-1.06a.587.587 0 0 0-.164-.41 1.214 1.214 0 0 0-.438-.29 13.355 13.355 0 0 0-1.323-.455 4.347 4.347 0 0 1-1.322-.64 1.467 1.467 0 0 1-.438-.522 1.57 1.57 0 0 1-.164-.725c0-.164.026-.331.079-.502a1.75 1.75 0 0 1 .294-.54c.143-.19.322-.356.536-.5.214-.143.5-.261.858-.355.358-.093.762-.14 1.214-.14zm7.047 0c.328 0 .624.04.886.12.262.08.48.181.652.304.174.123.323.284.448.482.126.198.221.39.287.574.066.185.118.407.154.667.037.26.06.485.068.676.01.192.014.417.014.677v.533h-4.641c0 .247.055.491.167.735.112.244.269.467.472.67.203.203.47.368.8.496.33.127.696.191 1.097.191a5.42 5.42 0 0 0 1.538-.246l.198.766a6.657 6.657 0 0 1-2.16.376c-.497 0-.938-.066-1.323-.199-.385-.132-.695-.304-.93-.516a2.603 2.603 0 0 1-.577-.762 3.372 3.372 0 0 1-.311-.885 4.899 4.899 0 0 1-.086-.933c0-.506.062-.969.185-1.388.123-.42.29-.771.499-1.056a3.15 3.15 0 0 1 .735-.721c.28-.196.574-.339.882-.427.307-.09.623-.134.946-.134zm-.239.97c-.4 0-.746.111-1.036.332a1.93 1.93 0 0 0-.632.824 2.81 2.81 0 0 0-.198 1.06h3.527c0-1.477-.553-2.215-1.66-2.215zm5.865-.334a3.089 3.089 0 0 1 1.887-.636c.474 0 .905.09 1.292.267l-.342.895a3.059 3.059 0 0 0-1.107-.205 2.97 2.97 0 0 0-1.607.472V199h-1.12v-6.754h.785l.212.506zm10.22-2.44v7.663h1.415a8.94 8.94 0 0 0 1.056-.048c.23-.023.429-.057.595-.103a4.89 4.89 0 0 0 .567-.198c.212-.087.4-.191.564-.314a3.281 3.281 0 0 0 .923-1.121c.301-.58.451-1.283.451-2.113 0-.574-.083-1.092-.25-1.555-.165-.463-.387-.839-.662-1.128a3.559 3.559 0 0 0-.882-.687 3.203 3.203 0 0 0-.981-.342 5.53 5.53 0 0 0-.91-.054h-1.886zm1.846-1.026c.629 0 1.2.063 1.716.188.515.125.946.302 1.295.53.349.228.648.485.899.772.25.287.445.608.584.96.14.354.24.701.305 1.043.063.342.095.698.095 1.067 0 .424-.032.831-.095 1.223a5.96 5.96 0 0 1-.332 1.197 4.455 4.455 0 0 1-.602 1.09 3.84 3.84 0 0 1-.946.868 4.203 4.203 0 0 1-1.32.57c-.255.065-.54.113-.854.144-.315.032-.574.05-.78.055a41.79 41.79 0 0 1-.868.007h-2.105v-9.714h3.008zm9.454 2.83c.501 0 .926.058 1.275.175.348.116.617.285.806.509.19.223.325.471.407.745.082.273.123.588.123.943V199h-.793l-.26-.615c-.551.501-1.184.752-1.9.752-.638 0-1.178-.193-1.62-.578-.442-.385-.663-.835-.663-1.35 0-.273.05-.52.15-.738.1-.219.245-.401.434-.547.19-.146.405-.27.646-.373.242-.102.523-.18.845-.236a9.91 9.91 0 0 1 .967-.116c.323-.023.679-.034 1.066-.034v-.533c0-.155-.005-.29-.017-.403a1.56 1.56 0 0 0-.113-.41 1.064 1.064 0 0 0-.26-.394 1.368 1.368 0 0 0-.492-.266 2.404 2.404 0 0 0-.779-.113c-.465 0-1.066.102-1.805.308l-.211-.82a6.27 6.27 0 0 1 2.194-.418zm1.483 3.897h-.417c-.26 0-.485.004-.676.013-.192.01-.416.036-.674.079a2.452 2.452 0 0 0-.632.181c-.164.078-.304.19-.42.339a.832.832 0 0 0-.175.53c0 .286.145.542.434.765.29.223.635.335 1.036.335.588 0 1.096-.23 1.524-.69v-1.552zm7.178 2.87c-.66.17-1.176.254-1.545.254-.37 0-.681-.06-.936-.178a1.293 1.293 0 0 1-.581-.506 2.363 2.363 0 0 1-.284-.707 3.99 3.99 0 0 1-.086-.872v-3.746h-.909v-.882h.91v-1.934h1.12v1.934h2.058v.882h-2.058v3.732c0 .935.37 1.402 1.108 1.402.132 0 .48-.048 1.046-.144l.157.766zm3.944-6.767c.502 0 .927.058 1.275.175.349.116.618.285.807.509.189.223.325.471.407.745.082.273.123.588.123.943V199h-.793l-.26-.615c-.551.501-1.185.752-1.9.752-.638 0-1.179-.193-1.62-.578-.443-.385-.664-.835-.664-1.35 0-.273.05-.52.15-.738.101-.219.246-.401.435-.547a2.92 2.92 0 0 1 .646-.373c.241-.102.523-.18.844-.236a9.91 9.91 0 0 1 .967-.116c.324-.023.68-.034 1.067-.034v-.533c0-.155-.006-.29-.017-.403a1.56 1.56 0 0 0-.113-.41 1.076 1.076 0 0 0-.26-.394 1.377 1.377 0 0 0-.492-.266 2.404 2.404 0 0 0-.78-.113c-.464 0-1.066.102-1.804.308l-.212-.82a6.27 6.27 0 0 1 2.194-.418zm1.484 3.897h-.417c-.26 0-.486.004-.677.013-.191.01-.416.036-.673.079a2.452 2.452 0 0 0-.633.181c-.164.078-.304.19-.42.339a.832.832 0 0 0-.174.53c0 .286.144.542.434.765.29.223.634.335 1.035.335.588 0 1.096-.23 1.525-.69v-1.552zm-50.391 8.184c.747 0 1.551.13 2.413.39l-.376 1.06c-.82-.237-1.532-.356-2.133-.356-.675 0-1.245.142-1.712.427-.468.285-.701.653-.701 1.104 0 .25.075.474.225.67.15.196.35.356.595.479.246.123.527.245.841.365.314.121.635.232.96.332.326.1.646.228.96.383.315.155.596.324.842.51.246.184.444.424.594.72.15.296.226.631.226 1.005 0 .26-.041.519-.123.776a2.566 2.566 0 0 1-.41.766 2.971 2.971 0 0 1-.711.666c-.283.192-.64.346-1.07.465-.43.118-.91.178-1.439.178a6.102 6.102 0 0 1-1.46-.164 11.68 11.68 0 0 1-1.493-.493l.396-1.127c1.14.423 2.04.635 2.7.635.693 0 1.257-.139 1.693-.417.435-.278.652-.65.652-1.114 0-.31-.096-.578-.29-.803a2.126 2.126 0 0 0-.752-.547 9.821 9.821 0 0 0-1.022-.39c-.374-.12-.746-.25-1.118-.39a6.38 6.38 0 0 1-1.018-.481 2.198 2.198 0 0 1-.752-.739c-.194-.31-.29-.674-.29-1.093 0-.374.09-.732.27-1.074.18-.341.429-.641.748-.898.319-.258.718-.463 1.196-.616a5.102 5.102 0 0 1 1.559-.229zm8.51 9.687c-.66.168-1.175.253-1.545.253-.369 0-.68-.06-.936-.178a1.293 1.293 0 0 1-.581-.506 2.363 2.363 0 0 1-.284-.707 3.99 3.99 0 0 1-.085-.872v-3.746h-.91v-.882h.91v-1.934h1.12v1.934h2.058v.882h-2.057v3.732c0 .935.369 1.402 1.107 1.402.132 0 .481-.048 1.046-.144l.157.766zm4.656-6.768c.934 0 1.703.299 2.307.896.604.597.906 1.422.906 2.474 0 1.117-.31 2.004-.927 2.663-.617.658-1.416.988-2.396.988-.934 0-1.697-.309-2.29-.927-.592-.617-.888-1.454-.888-2.512 0-1.089.301-1.958.905-2.608.604-.65 1.398-.974 2.383-.974zm-.096.957c-.56 0-1.05.217-1.47.65-.42.433-.629 1.027-.629 1.784 0 .752.205 1.385.616 1.9.41.515.94.773 1.592.773a1.92 1.92 0 0 0 1.504-.684c.401-.456.602-1.05.602-1.784 0-.42-.065-.8-.195-1.142-.13-.341-.3-.62-.513-.834a2.279 2.279 0 0 0-.707-.492 1.972 1.972 0 0 0-.8-.17zm6.426-.321a3.089 3.089 0 0 1 1.886-.636c.474 0 .905.09 1.292.267l-.341.895a3.059 3.059 0 0 0-1.108-.205c-.57 0-1.105.157-1.606.472V214h-1.121v-6.754h.786l.212.506zm6.713-.636c.5 0 .926.058 1.275.175.348.116.617.285.806.509.19.223.325.471.407.745.082.273.123.588.123.943V214h-.793l-.26-.615c-.551.501-1.185.752-1.9.752-.638 0-1.178-.193-1.62-.578-.442-.385-.663-.835-.663-1.35 0-.273.05-.52.15-.738.1-.219.245-.401.434-.547.19-.146.405-.27.646-.373.242-.102.523-.18.844-.236a9.91 9.91 0 0 1 .968-.116c.323-.023.679-.034 1.066-.034v-.533c0-.155-.006-.29-.017-.403a1.56 1.56 0 0 0-.113-.41 1.076 1.076 0 0 0-.26-.394 1.368 1.368 0 0 0-.492-.266 2.404 2.404 0 0 0-.78-.113c-.464 0-1.066.102-1.804.308l-.212-.82a6.27 6.27 0 0 1 2.195-.418zm1.483 3.897h-.417c-.26 0-.485.004-.677.013-.191.01-.416.036-.673.079a2.452 2.452 0 0 0-.632.181c-.164.078-.305.19-.42.339a.832.832 0 0 0-.175.53c0 .286.145.542.434.765.29.223.635.335 1.036.335.587 0 1.096-.23 1.524-.69v-1.552zm6.371-3.904c.538 0 1.16.18 1.866.54l.144-.403h.786v7.178c0 .137-.005.269-.014.396a4.642 4.642 0 0 1-.082.54 3.15 3.15 0 0 1-.191.636 3.048 3.048 0 0 1-.373.619 2.393 2.393 0 0 1-.588.557 3.07 3.07 0 0 1-.875.376c-.357.1-.757.15-1.2.15a5.384 5.384 0 0 1-2.091-.437l.314-.814a4.65 4.65 0 0 0 1.634.315c1.563 0 2.345-.864 2.345-2.591v-.5c-.588.31-1.183.466-1.784.466-.292 0-.577-.038-.855-.113-.278-.075-.55-.2-.817-.376a2.801 2.801 0 0 1-.697-.656 3.13 3.13 0 0 1-.478-.998 4.698 4.698 0 0 1-.182-1.35c0-.525.073-.997.22-1.419.145-.421.33-.76.553-1.015.223-.255.48-.47.769-.643.29-.173.566-.292.83-.359.265-.066.52-.099.766-.099zm.068.91c-.633 0-1.143.227-1.53.683-.388.456-.582 1.06-.582 1.812 0 .501.08.952.24 1.353.159.401.412.726.758.974.347.249.764.373 1.251.373.497 0 .987-.13 1.47-.39v-4.423c-.624-.255-1.16-.382-1.607-.382zm8.094-.903c.328 0 .623.04.885.12.263.08.48.181.653.304.173.123.323.284.448.482s.221.39.287.574c.066.185.118.407.154.667.036.26.06.485.068.676.01.192.014.417.014.677v.533h-4.642c0 .247.056.491.168.735.112.244.269.467.472.67.202.203.469.368.8.496.33.127.695.191 1.097.191.473 0 .986-.082 1.538-.246l.198.766a6.657 6.657 0 0 1-2.16.376c-.497 0-.938-.066-1.323-.199-.385-.132-.695-.304-.93-.516a2.603 2.603 0 0 1-.577-.762 3.372 3.372 0 0 1-.311-.885 4.899 4.899 0 0 1-.086-.933c0-.506.062-.969.185-1.388.123-.42.29-.771.499-1.056a3.15 3.15 0 0 1 .735-.721c.28-.196.574-.339.881-.427a3.36 3.36 0 0 1 .947-.134zm-.239.97a1.66 1.66 0 0 0-1.036.332c-.29.221-.5.496-.632.824a2.81 2.81 0 0 0-.198 1.06h3.527c0-1.477-.554-2.215-1.661-2.215z" fill="#222"/><g transform="translate(165 164)"><g fill-rule="nonzero"><path fill="#19486F" d="M50.967 11.98h-50V9.5l25-7.02 25 7.02z"/><path fill="#2E73B8" d="M.967 0h50v9.5h-50z"/></g><rect fill="#FFF" x="43" y="3" width="4" height="4" rx="2"/><path fill="#FFF" d="M5 3h30v4H5z"/></g><g transform="translate(165 149)"><g fill-rule="nonzero"><path fill="#19486F" d="M50.967 11.98h-50V9.5l25-7.02 25 7.02z"/><path fill="#2E73B8" d="M.967 0h50v9.5h-50z"/></g><rect fill="#FFF" x="43" y="3" width="4" height="4" rx="2"/><path fill="#FFF" d="M5 3h30v4H5z"/></g><g transform="translate(165 134)"><g fill-rule="nonzero"><path fill="#19486F" d="M50.967 11.98h-50V9.5l25-7.02 25 7.02z"/><path fill="#2E73B8" d="M.967 0h50v9.5h-50z"/></g><rect fill="#FFF" x="43" y="3" width="4" height="4" rx="2"/><path fill="#FFF" d="M5 3h30v4H5z"/></g><g transform="translate(165 119)"><g fill-rule="nonzero"><path fill="#19486F" d="M50.967 11.98h-50V9.5l25-7.02 25 7.02z"/><path fill="#2E73B8" d="M.967 0h50v9.5h-50z"/></g><rect fill="#FFF" x="43" y="3" width="4" height="4" rx="2"/><path fill="#FFF" d="M5 3h30v4H5z"/></g><path d="M181.396 189.197c.748 0 1.552.13 2.414.39l-.376 1.06c-.82-.237-1.532-.356-2.133-.356-.675 0-1.245.142-1.713.427-.467.285-.7.653-.7 1.104 0 .25.075.474.225.67.15.196.349.356.595.479s.526.245.84.365c.315.121.635.232.961.332.326.1.646.228.96.383.315.155.595.324.842.51.246.184.444.424.594.72.15.296.226.631.226 1.005 0 .26-.041.519-.123.776a2.566 2.566 0 0 1-.41.766 2.971 2.971 0 0 1-.711.666c-.283.192-.64.346-1.07.465-.43.118-.91.178-1.44.178a6.102 6.102 0 0 1-1.459-.164 11.68 11.68 0 0 1-1.493-.493l.396-1.127c1.14.423 2.04.635 2.7.635.693 0 1.257-.139 1.692-.417.436-.278.653-.65.653-1.114 0-.31-.097-.578-.29-.803a2.126 2.126 0 0 0-.752-.547 9.821 9.821 0 0 0-1.022-.39c-.374-.12-.746-.25-1.118-.39a6.38 6.38 0 0 1-1.018-.481 2.198 2.198 0 0 1-.752-.739c-.194-.31-.291-.674-.291-1.093 0-.374.09-.732.27-1.074.18-.341.43-.641.749-.898.319-.258.717-.463 1.196-.616a5.102 5.102 0 0 1 1.558-.229zm4.034 3.05h1.23l2.16 5.728 2.01-5.729h1.162l-3.896 10.384h-1.197l1.354-3.295-2.823-7.089zm8.134 0h.787l.246.573c.87-.474 1.663-.71 2.379-.71.369 0 .69.057.963.174.274.116.486.262.636.437.15.176.27.397.36.663.088.267.145.52.17.762.025.242.038.518.038.828V199h-1.122v-4.102c0-1.184-.51-1.777-1.53-1.777-.53 0-1.131.176-1.805.526V199h-1.122v-6.754zm7.698 3.533c0-.533.064-1.013.191-1.439.128-.426.297-.774.51-1.046a3.05 3.05 0 0 1 1.63-1.06c.3-.074.615-.112.943-.112.647 0 1.278.134 1.894.403l-.274.82c-.506-.172-1-.26-1.483-.26-.237 0-.46.023-.67.066-.21.043-.418.122-.626.236-.207.114-.385.26-.533.44a2.08 2.08 0 0 0-.359.708 3.37 3.37 0 0 0-.136 1.005c0 .415.047.78.143 1.097.096.317.221.573.376.77.155.195.34.355.557.478.217.123.436.208.657.256.22.048.459.072.714.072.428 0 .857-.075 1.285-.226l.273.773a5.359 5.359 0 0 1-1.948.376c-.3 0-.589-.03-.864-.09a3.086 3.086 0 0 1-.841-.324 2.655 2.655 0 0 1-.739-.598c-.207-.242-.376-.564-.505-.967a4.488 4.488 0 0 1-.195-1.378zm-25.204 8.417c.747 0 1.551.13 2.413.39l-.376 1.06c-.82-.237-1.532-.356-2.133-.356-.675 0-1.245.142-1.712.427-.468.285-.701.653-.701 1.104 0 .25.075.474.225.67.15.196.349.356.595.479s.527.245.841.365c.314.121.635.232.96.332.326.1.646.228.96.383.315.155.596.324.842.51.246.184.444.424.594.72.15.296.226.631.226 1.005 0 .26-.041.519-.123.776a2.566 2.566 0 0 1-.41.766 2.971 2.971 0 0 1-.711.666c-.283.192-.64.346-1.07.465-.43.118-.91.178-1.439.178a6.102 6.102 0 0 1-1.46-.164 11.68 11.68 0 0 1-1.493-.493l.396-1.127c1.14.423 2.04.635 2.7.635.693 0 1.257-.139 1.693-.417.435-.278.652-.65.652-1.114 0-.31-.096-.578-.29-.803a2.126 2.126 0 0 0-.752-.547 9.821 9.821 0 0 0-1.022-.39c-.374-.12-.746-.25-1.118-.39a6.38 6.38 0 0 1-1.018-.481 2.198 2.198 0 0 1-.752-.739c-.194-.31-.29-.674-.29-1.093 0-.374.09-.732.27-1.074.18-.341.429-.641.748-.898.319-.258.718-.463 1.196-.616a5.102 5.102 0 0 1 1.559-.229zm7.827 2.92c.328 0 .623.04.885.119.262.08.48.181.653.304.173.123.322.284.448.482.125.198.22.39.287.574.066.185.117.407.154.667.036.26.059.485.068.676.009.192.014.417.014.677v.533h-4.642c0 .247.056.491.167.735.112.244.27.467.472.67.203.203.47.368.8.496.33.127.696.191 1.097.191.474 0 .987-.082 1.538-.246l.198.766a6.657 6.657 0 0 1-2.16.376c-.496 0-.937-.066-1.322-.199-.386-.132-.695-.304-.93-.516a2.603 2.603 0 0 1-.578-.762 3.372 3.372 0 0 1-.31-.885 4.899 4.899 0 0 1-.086-.933c0-.506.061-.969.184-1.388.123-.42.29-.771.5-1.056a3.15 3.15 0 0 1 .734-.721c.28-.196.574-.339.882-.427.308-.09.623-.134.947-.134zm-.24.97c-.4 0-.746.11-1.035.331-.29.221-.5.496-.632.824a2.81 2.81 0 0 0-.199 1.06h3.528c0-1.477-.554-2.215-1.661-2.215zm5.866-.335a3.089 3.089 0 0 1 1.886-.636c.474 0 .905.09 1.292.267l-.341.895a3.059 3.059 0 0 0-1.108-.205c-.57 0-1.105.157-1.606.472V214h-1.121v-6.754h.786l.212.506zm9.59-.506L196.73 214h-1.162l-2.365-6.754h1.23l1.75 5.64 1.757-5.64h1.163zm4.58-.13c.329 0 .624.04.886.12.262.08.48.181.653.304.173.123.322.284.447.482.126.198.222.39.288.574.066.185.117.407.153.667.037.26.06.485.069.676.009.192.013.417.013.677v.533h-4.641c0 .247.056.491.167.735.112.244.27.467.472.67.203.203.47.368.8.496.33.127.696.191 1.097.191.474 0 .987-.082 1.538-.246l.198.766a6.657 6.657 0 0 1-2.16.376c-.497 0-.938-.066-1.323-.199-.385-.132-.695-.304-.93-.516a2.603 2.603 0 0 1-.577-.762 3.372 3.372 0 0 1-.311-.885 4.899 4.899 0 0 1-.085-.933c0-.506.061-.969.184-1.388.123-.42.29-.771.5-1.056a3.15 3.15 0 0 1 .734-.721c.28-.196.574-.339.882-.427a3.35 3.35 0 0 1 .947-.134zm-.239.97c-.4 0-.746.111-1.035.332-.29.221-.5.496-.633.824a2.81 2.81 0 0 0-.198 1.06h3.528c0-1.477-.554-2.215-1.662-2.215zm5.866-.334a3.089 3.089 0 0 1 1.886-.636c.474 0 .905.09 1.292.267l-.341.895a3.059 3.059 0 0 0-1.108-.205c-.57 0-1.105.157-1.606.472V214h-1.121v-6.754h.786l.212.506z" fill="#222"/><g fill-rule="nonzero" transform="translate(78.048 119)"><path d="M44.514 8.797c0 3.048-9.925 5.587-22.166 5.587-12.24 0-22.165-2.499-22.165-5.587v-2.52L22.348 3.23l22.166 3.048v2.52zM22.348 18.854L.183 50.122v2.519c0 3.047 9.925 5.587 22.165 5.587 12.241 0 22.166-2.499 22.166-5.587v-2.52L22.348 18.855z" fill="#19486F"/><ellipse fill="#2E73B8" cx="22.348" cy="6.278" rx="22.166" ry="5.587"/><path d="M22.348 16.335c-12.24 0-22.165-2.5-22.165-5.587v39.374c0 3.047 9.925 5.587 22.165 5.587 12.241 0 22.166-2.5 22.166-5.587V10.748c0 3.088-9.925 5.587-22.166 5.587z" fill="#2E73B8"/></g><path d="M87.098 189.286h1.162v6.296c0 .387.033.72.1.998.065.278.206.538.42.78.456.514 1.128.772 2.016.772.643 0 1.18-.14 1.61-.42.43-.28.71-.676.838-1.187a4.09 4.09 0 0 0 .089-.943v-6.296h1.148a1521.62 1521.62 0 0 0 .014 6.399c0 .21-.005.393-.014.55-.01.157-.04.363-.092.619a2.862 2.862 0 0 1-.216.666c-.09.19-.229.39-.413.605-.185.214-.404.39-.656.53a3.818 3.818 0 0 1-.971.345c-.394.091-.84.137-1.337.137a5.644 5.644 0 0 1-1.435-.168c-.424-.111-.757-.245-.998-.4a2.584 2.584 0 0 1-.626-.56 2.52 2.52 0 0 1-.362-.564 3.15 3.15 0 0 1-.16-.496c-.078-.3-.117-.727-.117-1.278v-6.385zm12.865 2.83c.096 0 .186.001.27.004.085.002.167.008.246.017.08.009.149.016.206.02.057.005.123.014.198.028l.164.03c.034.007.091.02.17.041l.148.038a12.912 12.912 0 0 1 .314.096l-.287.854c-.61-.168-1.148-.253-1.613-.253-.27 0-.507.028-.715.082a1.54 1.54 0 0 0-.478.198 1.063 1.063 0 0 0-.273.27.91.91 0 0 0-.137.27.88.88 0 0 0-.031.226c0 .187.097.353.29.5.194.145.436.263.725.355.29.09.603.199.94.324.337.126.65.258.94.397.29.139.531.334.725.584.193.25.29.54.29.868 0 .187-.024.368-.072.544a1.793 1.793 0 0 1-.273.55 1.897 1.897 0 0 1-.52.496c-.211.139-.495.254-.85.345a4.946 4.946 0 0 1-1.224.137c-.698 0-1.463-.171-2.297-.513l.314-.848c.47.174.854.297 1.152.37.299.072.591.109.879.109 1.112 0 1.668-.353 1.668-1.06a.587.587 0 0 0-.165-.41 1.214 1.214 0 0 0-.437-.29 13.355 13.355 0 0 0-1.323-.455 4.347 4.347 0 0 1-1.323-.64 1.467 1.467 0 0 1-.437-.522 1.57 1.57 0 0 1-.164-.725c0-.164.026-.331.079-.502.052-.171.15-.351.293-.54a2.22 2.22 0 0 1 .537-.5c.214-.143.5-.261.858-.355a4.83 4.83 0 0 1 1.213-.14zm7.048 0c.328 0 .623.04.885.12.263.08.48.181.653.304.173.123.323.284.448.482s.221.39.287.574c.066.185.118.407.154.667.036.26.06.485.068.676.01.192.014.417.014.677v.533h-4.642c0 .247.056.491.168.735.112.244.269.467.472.67.202.203.469.368.8.496.33.127.696.191 1.097.191a5.42 5.42 0 0 0 1.538-.246l.198.766a6.657 6.657 0 0 1-2.16.376c-.497 0-.938-.066-1.323-.199-.385-.132-.695-.304-.93-.516a2.603 2.603 0 0 1-.577-.762 3.372 3.372 0 0 1-.311-.885 4.899 4.899 0 0 1-.086-.933c0-.506.062-.969.185-1.388.123-.42.29-.771.499-1.056a3.15 3.15 0 0 1 .735-.721c.28-.196.574-.339.881-.427a3.36 3.36 0 0 1 .947-.134zm-.239.97a1.66 1.66 0 0 0-1.036.332c-.29.221-.5.496-.632.824a2.81 2.81 0 0 0-.198 1.06h3.527c0-1.477-.554-2.215-1.661-2.215zm5.865-.334a3.089 3.089 0 0 1 1.887-.636c.474 0 .905.09 1.292.267l-.342.895a3.059 3.059 0 0 0-1.107-.205 2.97 2.97 0 0 0-1.607.472V199h-1.12v-6.754h.785l.212.506zm-39.375 12.56v7.663h1.415a8.94 8.94 0 0 0 1.056-.048 3.606 3.606 0 0 0 1.163-.301c.211-.087.4-.191.563-.314a3.281 3.281 0 0 0 .923-1.121c.301-.58.451-1.283.451-2.113 0-.574-.083-1.092-.249-1.555-.166-.463-.387-.839-.663-1.128a3.559 3.559 0 0 0-.882-.687 3.203 3.203 0 0 0-.98-.342 5.53 5.53 0 0 0-.91-.054h-1.887zm1.846-1.026c.629 0 1.2.063 1.716.188.515.125.947.302 1.295.53.349.228.648.485.9.772.25.287.445.608.584.96.139.354.24.701.304 1.043.064.342.095.698.095 1.067 0 .424-.031.831-.095 1.223a5.96 5.96 0 0 1-.332 1.197 4.455 4.455 0 0 1-.601 1.09 3.84 3.84 0 0 1-.947.868 4.203 4.203 0 0 1-1.32.57c-.255.065-.54.113-.854.144-.314.032-.574.05-.78.055a41.79 41.79 0 0 1-.867.007H72.1v-9.714h3.008zm9.454 2.83c.501 0 .926.058 1.275.175.349.116.617.285.807.509.189.223.324.471.406.745.082.273.123.588.123.943V214h-.793l-.26-.615c-.55.501-1.184.752-1.9.752-.638 0-1.178-.193-1.62-.578-.442-.385-.663-.835-.663-1.35 0-.273.05-.52.15-.738.1-.219.245-.401.434-.547.19-.146.405-.27.646-.373.242-.102.523-.18.845-.236a9.91 9.91 0 0 1 .967-.116c.324-.023.679-.034 1.066-.034v-.533c0-.155-.005-.29-.017-.403a1.56 1.56 0 0 0-.112-.41 1.076 1.076 0 0 0-.26-.394 1.386 1.386 0 0 0-.492-.266 2.404 2.404 0 0 0-.78-.113c-.465 0-1.066.102-1.804.308l-.212-.82a6.27 6.27 0 0 1 2.194-.418zm1.483 3.897h-.417c-.26 0-.485.004-.676.013-.192.01-.416.036-.674.079a2.452 2.452 0 0 0-.632.181c-.164.078-.304.19-.42.339a.832.832 0 0 0-.175.53c0 .286.145.542.434.765.29.223.635.335 1.036.335.588 0 1.096-.23 1.524-.69v-1.552zm7.178 2.87c-.66.17-1.176.254-1.545.254s-.681-.06-.936-.178a1.293 1.293 0 0 1-.581-.506 2.363 2.363 0 0 1-.284-.707 3.99 3.99 0 0 1-.085-.872v-3.746h-.91v-.882h.91v-1.934h1.12v1.934h2.058v.882h-2.057v3.732c0 .935.369 1.402 1.107 1.402.132 0 .48-.048 1.046-.144l.157.766zm3.944-6.767c.502 0 .927.058 1.275.175.349.116.618.285.807.509.19.223.325.471.407.745.082.273.123.588.123.943V214h-.793l-.26-.615c-.551.501-1.185.752-1.9.752-.638 0-1.178-.193-1.62-.578-.442-.385-.664-.835-.664-1.35 0-.273.05-.52.15-.738.101-.219.246-.401.435-.547.19-.146.404-.27.646-.373.241-.102.523-.18.844-.236a9.91 9.91 0 0 1 .967-.116c.324-.023.68-.034 1.067-.034v-.533c0-.155-.006-.29-.017-.403a1.56 1.56 0 0 0-.113-.41 1.076 1.076 0 0 0-.26-.394 1.377 1.377 0 0 0-.492-.266 2.404 2.404 0 0 0-.78-.113c-.464 0-1.066.102-1.804.308l-.212-.82a6.27 6.27 0 0 1 2.194-.418zm1.484 3.897h-.417c-.26 0-.485.004-.677.013-.191.01-.416.036-.673.079a2.452 2.452 0 0 0-.633.181c-.164.078-.304.19-.42.339a.832.832 0 0 0-.174.53c0 .286.144.542.434.765.29.223.634.335 1.035.335.588 0 1.096-.23 1.525-.69v-1.552zm3.657-7.342h1.121v3.896a3.873 3.873 0 0 1 1.805-.458c.273 0 .542.033.807.1.264.066.53.182.796.348.267.166.5.375.7.626.201.25.364.578.49.984.125.406.187.864.187 1.374 0 1.112-.295 1.99-.885 2.632-.59.642-1.355.964-2.293.964a3.96 3.96 0 0 1-1.812-.451l-.137.314h-.779v-10.33zm2.543 4.368c-.488 0-.962.12-1.422.362v4.54c.488.21.969.314 1.443.314.21 0 .412-.023.608-.068.196-.046.395-.13.598-.25.203-.12.38-.272.53-.455.15-.182.273-.423.37-.724.095-.301.143-.64.143-1.019 0-.428-.05-.808-.15-1.138-.101-.33-.229-.591-.384-.783a2.004 2.004 0 0 0-.546-.471 2.047 2.047 0 0 0-.602-.246 2.798 2.798 0 0 0-.588-.062zm7.711-.923c.501 0 .926.058 1.275.175.349.116.617.285.807.509.189.223.324.471.406.745.082.273.123.588.123.943V214h-.793l-.26-.615c-.55.501-1.184.752-1.9.752-.638 0-1.178-.193-1.62-.578-.442-.385-.663-.835-.663-1.35 0-.273.05-.52.15-.738.1-.219.245-.401.434-.547.19-.146.405-.27.646-.373.242-.102.523-.18.845-.236a9.91 9.91 0 0 1 .967-.116c.324-.023.679-.034 1.066-.034v-.533c0-.155-.005-.29-.017-.403a1.56 1.56 0 0 0-.112-.41 1.076 1.076 0 0 0-.26-.394 1.386 1.386 0 0 0-.492-.266 2.404 2.404 0 0 0-.78-.113c-.465 0-1.066.102-1.804.308l-.212-.82a6.27 6.27 0 0 1 2.194-.418zm1.483 3.897h-.417c-.26 0-.485.004-.676.013-.192.01-.416.036-.674.079a2.452 2.452 0 0 0-.632.181c-.164.078-.304.19-.42.339a.832.832 0 0 0-.175.53c0 .286.145.542.434.765.29.223.635.335 1.036.335.588 0 1.096-.23 1.524-.69v-1.552zm6.392-3.897c.096 0 .186.001.27.004.084.002.166.008.246.017.08.009.148.016.205.02.057.005.123.014.198.028l.165.03c.034.007.09.02.17.041l.147.038a12.912 12.912 0 0 1 .314.096l-.286.854c-.611-.168-1.149-.253-1.614-.253-.268 0-.507.028-.714.082a1.54 1.54 0 0 0-.478.198 1.063 1.063 0 0 0-.274.27.91.91 0 0 0-.137.27.88.88 0 0 0-.03.226c0 .187.096.353.29.5.194.145.435.263.725.355.29.09.602.199.94.324.337.126.65.258.94.397.29.139.53.334.724.584.194.25.29.54.29.868 0 .187-.023.368-.071.544a1.793 1.793 0 0 1-.273.55 1.897 1.897 0 0 1-.52.496c-.212.139-.496.254-.851.345a4.946 4.946 0 0 1-1.224.137c-.697 0-1.463-.171-2.297-.513l.315-.848c.47.174.853.297 1.152.37.298.072.591.109.878.109 1.112 0 1.668-.353 1.668-1.06a.587.587 0 0 0-.164-.41 1.214 1.214 0 0 0-.437-.29 13.355 13.355 0 0 0-1.323-.455 4.347 4.347 0 0 1-1.323-.64 1.467 1.467 0 0 1-.437-.522 1.57 1.57 0 0 1-.164-.725c0-.164.026-.331.078-.502.053-.171.15-.351.294-.54a2.22 2.22 0 0 1 .537-.5c.214-.143.5-.261.858-.355.357-.093.762-.14 1.213-.14zm7.048 0c.328 0 .623.04.885.12.262.08.48.181.653.304.173.123.322.284.448.482.125.198.22.39.287.574.066.185.117.407.154.667.036.26.059.485.068.676.01.192.014.417.014.677v.533h-4.642c0 .247.056.491.168.735.111.244.268.467.471.67.203.203.47.368.8.496.33.127.696.191 1.097.191.474 0 .987-.082 1.538-.246l.199.766a6.657 6.657 0 0 1-2.16.376c-.497 0-.938-.066-1.323-.199-.385-.132-.695-.304-.93-.516a2.603 2.603 0 0 1-.578-.762 3.372 3.372 0 0 1-.31-.885 4.899 4.899 0 0 1-.086-.933c0-.506.061-.969.184-1.388.123-.42.29-.771.5-1.056a3.15 3.15 0 0 1 .734-.721c.28-.196.574-.339.882-.427.308-.09.623-.134.947-.134zm-.24.97c-.4 0-.746.111-1.035.332-.29.221-.5.496-.632.824a2.81 2.81 0 0 0-.199 1.06h3.528c0-1.477-.554-2.215-1.661-2.215z" fill="#222"/><g fill-rule="nonzero"><path d="M311.135 51.604v1.157c0 2.107-2.34 4.283-5.22 4.283h-15.411c-2.88 0-5.221-2.176-5.221-4.283v-1.157h25.852z" fill="#9D5125"/><path d="M295.233 40.326c2.595-.004 4.952 1.494 6.025 3.83a3.387 3.387 0 0 1 3.398-.225 3.312 3.312 0 0 1 1.845 2.829c2.605.213 4.634 2.698 4.634 4.67v.428c0 2.122-2.34 4.272-5.232 4.272h-15.4c-2.883 0-5.224-2.15-5.224-4.272v-.424c0-1.636 1.39-3.884 3.346-4.442v-.185a6.468 6.468 0 0 1 1.946-4.593 6.623 6.623 0 0 1 4.662-1.888z" fill="#F58535"/><path d="M291.759 47.34l-1.729 5.966h1.013l.389-1.45h1.78l.366 1.45h1.013l-1.589-5.965h-1.243zm-.155 3.743l.734-2.948.697 2.941-1.43.007zm7.335.918l.793-4.66h.961l-1.207 5.965h-1.123l-.781-4.493h-.019l-.774 4.493h-1.126l-1.17-5.965h.979l.796 4.634h.018l.8-4.634h1.02l.818 4.66h.015zm4.876-1.951c.859.297 1.237.758 1.226 1.574 0 1.269-.785 1.795-2.01 1.795-1.494 0-1.835-.98-1.835-1.813v-.142h.968v.152c0 .726.323 1.088.995 1.088a.865.865 0 0 0 .656-.233.844.844 0 0 0 .265-.637 1.004 1.004 0 0 0-.874-1.052l-.664-.228c-.899-.334-1.266-.783-1.266-1.636 0-1.088.749-1.69 1.89-1.69 1.556 0 1.717.954 1.717 1.57v.135h-.972v-.127a.745.745 0 0 0-.206-.643.765.765 0 0 0-.645-.22.779.779 0 0 0-.612.24.76.76 0 0 0-.203.62c0 .51.272.783.914 1.011l.656.236z" fill="#FFF"/></g><path d="M177.547 53.837l-.092 3.427c-1.365.72-2.906 1.081-4.623 1.081-1.18 0-2.258-.18-3.231-.54a7.018 7.018 0 0 1-2.507-1.564c-.698-.683-1.242-1.518-1.633-2.507-.392-.99-.587-2.105-.587-3.347 0-1.227.203-2.33.61-3.312a7.274 7.274 0 0 1 1.69-2.507 7.403 7.403 0 0 1 2.553-1.587c.981-.368 2.055-.552 3.22-.552.69 0 1.391.077 2.104.23.714.153 1.438.445 2.174.874l.092 3.427h-1.633l-.46-2.829c-.72-.322-1.434-.483-2.139-.483-.72 0-1.395.146-2.024.437a4.653 4.653 0 0 0-1.645 1.288c-.467.567-.835 1.269-1.104 2.105-.268.835-.402 1.805-.402 2.909 0 1.104.126 2.074.38 2.91.253.835.609 1.537 1.069 2.104.46.567 1 .997 1.621 1.288.622.291 1.3.437 2.036.437.399 0 .805-.042 1.219-.126.414-.085.82-.211 1.219-.38l.46-2.783h1.633zm7.314 3.243V58h-5.773v-.92l1.61-.299a149.299 149.299 0 0 0 .046-3.611v-9.706l-1.817-.23v-.874l4.117-1.035.322.184-.092 3.266v8.395a142.643 142.643 0 0 0 .046 3.611l1.541.299zm6.946-9.361c-.905 0-1.59.402-2.058 1.207-.468.806-.702 1.998-.702 3.577 0 1.595.234 2.783.701 3.565.468.782 1.154 1.173 2.059 1.173.905 0 1.59-.391 2.058-1.173.468-.782.702-1.97.702-3.565 0-1.58-.234-2.771-.702-3.576-.467-.806-1.153-1.208-2.058-1.208zm0-1.081c.705 0 1.395.13 2.07.391.675.26 1.269.644 1.782 1.15a5.776 5.776 0 0 1 1.242 1.851c.315.729.472 1.56.472 2.496 0 .935-.15 1.763-.449 2.484a5.473 5.473 0 0 1-1.207 1.829 4.993 4.993 0 0 1-1.771 1.126 6.041 6.041 0 0 1-2.139.38 6.041 6.041 0 0 1-2.139-.38 4.993 4.993 0 0 1-1.771-1.127 5.473 5.473 0 0 1-1.208-1.828c-.299-.72-.448-1.549-.448-2.484s.153-1.767.46-2.496a5.538 5.538 0 0 1 1.242-1.851 5.314 5.314 0 0 1 1.782-1.15 5.669 5.669 0 0 1 2.082-.391zm19.297 10.442V58l-3.726.23-.207-1.955c-1.196 1.38-2.522 2.07-3.979 2.07-.475 0-.905-.073-1.288-.218a2.295 2.295 0 0 1-.978-.713c-.268-.33-.475-.756-.62-1.277-.146-.521-.211-1.165-.196-1.932l.069-5.842-1.426-.276v-.874l3.772-.345.253.184-.115 3.266v3.542c0 1.012.138 1.717.414 2.116.276.399.675.598 1.196.598.46 0 .935-.13 1.426-.391a6.24 6.24 0 0 0 1.403-1.035l.069-6.785-1.426-.276v-.851l3.726-.368.253.184-.069 3.266v6.463l1.449.299zm9.269-7.958c-.813-.629-1.556-.943-2.231-.943-.383 0-.747.084-1.093.253a2.553 2.553 0 0 0-.92.793c-.268.36-.479.813-.632 1.358-.153.544-.23 1.184-.23 1.92 0 1.457.264 2.534.793 3.232.53.697 1.2 1.046 2.013 1.046.767 0 1.533-.322 2.3-.966v-6.693zm4.14 7.958V58l-3.864.23-.184-1.426c-.445.49-.928.87-1.449 1.139-.521.268-1.135.402-1.84.402-.675 0-1.296-.13-1.863-.391a4.044 4.044 0 0 1-1.46-1.139c-.407-.498-.725-1.103-.955-1.816-.23-.714-.345-1.522-.345-2.427s.126-1.721.38-2.45c.253-.728.597-1.353 1.034-1.874a4.43 4.43 0 0 1 1.553-1.196 4.554 4.554 0 0 1 1.932-.414c1.196 0 2.208.46 3.036 1.38v-4.554l-1.909-.23v-.874l4.117-1.035.322.184-.092 3.266v12.006l1.587.299zm12.696-7.889c.797.291 1.464.602 2.001.931.537.33.974.687 1.311 1.07.337.383.579.79.724 1.219.146.43.219.882.219 1.357 0 .675-.142 1.292-.426 1.851a4.387 4.387 0 0 1-1.184 1.45c-.506.406-1.112.72-1.817.942-.705.223-1.487.334-2.346.334a9.801 9.801 0 0 1-2.553-.333c-.828-.223-1.533-.51-2.116-.863l.138-3.312h1.679l.46 2.737a4.91 4.91 0 0 0 1.081.414c.368.092.79.138 1.265.138 1.027 0 1.836-.23 2.426-.69.59-.46.886-1.104.886-1.932 0-.322-.05-.606-.15-.851a1.868 1.868 0 0 0-.471-.667 3.698 3.698 0 0 0-.805-.552 9.907 9.907 0 0 0-1.173-.506l-1.012-.368c-1.288-.49-2.304-1.115-3.048-1.875-.743-.759-1.115-1.713-1.115-2.863 0-.66.13-1.257.391-1.794.26-.537.625-.997 1.092-1.38.468-.383 1.032-.682 1.691-.897.66-.215 1.395-.322 2.208-.322.813 0 1.56.107 2.242.322a6.451 6.451 0 0 1 1.829.897l-.161 3.082h-1.656l-.483-2.691a4.51 4.51 0 0 0-1.817-.391c-.414 0-.797.054-1.15.161a2.75 2.75 0 0 0-.92.472 2.23 2.23 0 0 0-.621.782c-.153.314-.23.67-.23 1.069 0 .69.218 1.23.655 1.622.438.39 1.07.74 1.898 1.046l1.058.391zm16.238-1.173l-1.38.253-3.588 9.821c-.322.905-.648 1.69-.978 2.358-.33.667-.67 1.218-1.023 1.655-.353.438-.732.76-1.139.967-.406.207-.847.31-1.322.31-.598 0-1.12-.142-1.564-.425-.445-.284-.667-.671-.667-1.162.107-.353.299-.61.575-.77.276-.162.59-.242.943-.242.291 0 .567.054.828.161.26.107.552.314.874.621l.23.207a5.42 5.42 0 0 0 1.081-1.265c.307-.49.59-1.073.851-1.748l-4.255-10.488-1.311-.253v-.966h5.911v.966l-1.794.299 2.622 7.107 2.484-7.13-1.725-.276v-.966h4.347v.966zm13.777 9.062V58h-5.612v-.92l1.541-.299c.015-.567.023-1.18.023-1.84v-3.887c0-.966-.119-1.652-.357-2.059-.237-.406-.655-.609-1.253-.609-.49 0-.966.119-1.426.356-.46.238-.943.595-1.449 1.07v5.106c0 .66.008 1.28.023 1.863l1.472.299V58h-5.635v-.92l1.564-.299a72.54 72.54 0 0 0 .023-1.863v-2.99c0-.629-.008-1.138-.023-1.53l-.046-1.276-1.679-.207v-.851l3.703-1.426.345.23.184 1.84c.613-.69 1.23-1.207 1.851-1.553.622-.345 1.315-.517 2.082-.517 1.058 0 1.851.326 2.38.978.53.651.794 1.705.794 3.162v4.163c0 .66.008 1.273.023 1.84l1.472.299zm11.362-1.771c-.307.981-.851 1.733-1.633 2.254-.782.521-1.733.782-2.852.782-.813 0-1.549-.134-2.208-.402a4.732 4.732 0 0 1-1.69-1.15c-.468-.499-.828-1.108-1.081-1.829-.254-.72-.38-1.533-.38-2.438 0-.92.153-1.744.46-2.473a5.628 5.628 0 0 1 1.23-1.851 5.31 5.31 0 0 1 1.783-1.162 5.734 5.734 0 0 1 2.139-.402c.567 0 1.1.08 1.599.241.498.162.935.38 1.31.656a3.3 3.3 0 0 1 .898.977c.222.376.356.786.402 1.231-.138.66-.544.989-1.219.989-.843 0-1.319-.498-1.426-1.495l-.253-1.38a3.502 3.502 0 0 0-.966-.138c-.46 0-.885.1-1.276.299-.392.2-.736.49-1.035.874-.3.383-.533.855-.702 1.414-.169.56-.253 1.2-.253 1.921 0 1.487.33 2.607.989 3.358.66.751 1.495 1.127 2.507 1.127 1.257 0 2.246-.59 2.967-1.771l.69.368zM77.834 57.15c1.275 0 1.913-.44 1.913-1.32 0-.494-.374-.892-1.123-1.195-.748-.302-1.566-.646-2.453-1.03a10.592 10.592 0 0 1-2.453-1.484c-.748-.605-1.122-1.457-1.122-2.557 0-1.429.513-2.46 1.538-3.091 1.026-.633 2.26-.949 3.7-.949.444 0 .943.042 1.497.124a5.547 5.547 0 0 1 1.538.453c.472.22.873.509 1.206.866.333.358.499.811.499 1.36v.825a.557.557 0 0 1-.166.412c-.167.275-.61.413-1.33.413-.721 0-1.165-.138-1.331-.413a.557.557 0 0 1-.166-.412c0-.33-.18-.577-.54-.742a2.668 2.668 0 0 0-1.123-.247c-.61 0-1.11.096-1.497.288-.388.193-.582.509-.582.949 0 .494.374.893 1.122 1.195.749.302 1.58.646 2.495 1.03.914.386 1.76.867 2.536 1.444s1.164 1.443 1.164 2.597c0 1.264-.513 2.267-1.538 3.01-1.026.742-2.287 1.113-3.784 1.113-.942 0-1.732-.11-2.37-.33a8.099 8.099 0 0 1-1.62-.742 3.905 3.905 0 0 1-1.248-1.072.8.8 0 0 1-.333-.495c-.11-.385.028-.77.416-1.154.277-.275.513-.44.707-.495a.905.905 0 0 1 .54 0 .808.808 0 0 1 .5.33c.221.22.498.44.83.66.278.164.624.316 1.04.453.416.137.929.206 1.538.206zm21.869 2.639c-.388 0-.582-.193-.582-.578V47.915c0-1.044.526-1.594 1.58-1.649h.166c.61-.055 1.012.097 1.206.454.194.357.318.756.374 1.195v11.296c0 .385-.194.578-.582.578h-2.162zm-.416-15.584c-.499-.385-.748-.907-.748-1.567 0-.55.222-1.044.665-1.484.333-.33.86-.55 1.58-.66.61 0 1.109.193 1.497.578.388.44.637.934.748 1.484v.082c0 .605-.194 1.1-.582 1.485-.388.384-.943.577-1.663.577-.665 0-1.164-.165-1.497-.495zm21.869 13.687c-.555-.604-.998-1.347-1.33-2.226-.333-.825-.5-1.787-.5-2.886 0-.824.167-1.704.5-2.638a5.056 5.056 0 0 1 1.163-2.144c.278-.385.582-.715.915-.99a5.21 5.21 0 0 1 .998-.66 6.108 6.108 0 0 1 2.744-.659c.61 0 1.15.069 1.621.206a8.34 8.34 0 0 1 1.372.536c.166.11.291.165.374.165.084 0 .18.055.291.165v-5.03c-.055-.44.07-.838.375-1.195.304-.357.706-.536 1.205-.536.665 0 1.095.179 1.29.536.193.357.318.756.373 1.196v17.48c0 .384-.194.577-.582.577h-1.995c-.444 0-.666-.193-.666-.578v-.66c-.055.11-.11.18-.166.207a.651.651 0 0 0-.166.124c-.388.274-.887.494-1.497.66a6.689 6.689 0 0 1-1.746.247c-.942 0-1.774-.165-2.495-.495a6.59 6.59 0 0 1-2.078-1.402zm1.912-7.008a7.12 7.12 0 0 0-.25 1.896 8.212 8.212 0 0 0 .167 1.65c.11.439.291.92.54 1.442.25.522.624.92 1.123 1.196.443.274.942.412 1.497.412.332 0 .72-.11 1.164-.33.443-.275.804-.55 1.08-.824.278-.275.5-.797.666-1.567.055-.275.11-.577.166-.907.056-.33.083-.88.083-1.649 0-.275-.013-.522-.041-.742-.028-.22-.07-.467-.125-.742-.443-1.76-1.469-2.639-3.076-2.639-.777 0-1.414.275-1.913.825-.499.55-.86 1.21-1.08 1.979zm12.722 8.905c-.388 0-.582-.193-.582-.578v-17.48c0-.604.166-1.044.499-1.319a1.77 1.77 0 0 1 1.164-.412c.444 0 .818.165 1.123.495.304.33.457.742.457 1.237v17.48c0 .384-.194.577-.582.577h-2.079zm17.794-10.39c.111.275.18.564.208.866.028.303.07.591.125.866.055.275.083.577.083.907v.825c0 .44-.222.66-.665.66h-9.313c.166 1.099.582 1.923 1.247 2.473.776.824 1.885 1.319 3.326 1.484 1.386 0 2.633-.22 3.742-.66.277-.11.554-.082.831.083.222.11.389.33.5.66 0 .11.013.22.041.33.028.11.014.247-.042.411-.055.11-.124.22-.207.33-.084.11-.236.22-.458.33-.72.275-1.469.495-2.245.66a11.49 11.49 0 0 1-1.122.123c-.416.028-.984.042-1.705.042-1.22-.11-2.19-.303-2.91-.578a5.414 5.414 0 0 1-1.247-.66 16.744 16.744 0 0 1-1.165-.906 4.02 4.02 0 0 1-.873-1.03c-.25-.413-.485-.84-.706-1.279a10.37 10.37 0 0 1-.416-1.402 7.554 7.554 0 0 1-.166-1.649c0-1.099.221-2.033.665-2.803.776-1.759 2.078-2.886 3.908-3.38a7.355 7.355 0 0 1 1.455-.33c.471-.055.984-.083 1.538-.083.776 0 1.538.151 2.287.454a5.86 5.86 0 0 1 1.954 1.278c.61.604 1.053 1.264 1.33 1.979zm-2.993 1.732a3.93 3.93 0 0 0-.25-1.402c-.72-1.704-2.023-2.253-3.908-1.649-.942.385-1.635 1.017-2.078 1.897-.167.275-.278.66-.333 1.154h6.569zm-45.068 20.036c.167.11.084.206-.249.289-.333.082-.638.15-.915.206a68.51 68.51 0 0 0-4.531.824c-1.525.33-2.924.935-4.2 1.814-.277.22-.582.44-.914.66a3.71 3.71 0 0 1-1.164.495c-.61.11-1.234.137-1.871.082a7.074 7.074 0 0 0-1.871.082c-1.552.33-3.049.797-4.49 1.402a30.511 30.511 0 0 0-3.576 1.65c-.11.054-.318.137-.623.247-.305.11-.513.11-.624 0a390.572 390.572 0 0 0-4.24-4.618c-1.386-1.484-2.8-2.996-4.241-4.535-.056-.11.055-.22.332-.33 1.275-.44 2.55-.81 3.825-1.113a66.948 66.948 0 0 0 4.075-1.113 39.06 39.06 0 0 0 1.58-.742c.554-.275 1.053-.55 1.496-.824.5-.33.873-.797 1.123-1.402.25-.605.402-1.25.457-1.938.056-.687.056-1.401 0-2.143a28.294 28.294 0 0 1-.083-2.103l-.166-4.287a60.157 60.157 0 0 0-.125-4.123 20.33 20.33 0 0 1-.042-1.278V46.76c0-.165.07-.398.208-.7.139-.303.54-.454 1.206-.454.665 0 1.08.11 1.247.33.167.22.333.55.5.989.332-.275.609-.467.83-.577.222-.11.5-.22.832-.33a4.77 4.77 0 0 1 .832-.247 4.71 4.71 0 0 1 .914-.083c1.94 0 3.493.632 4.657 1.897 1.164 1.154 1.746 2.83 1.746 5.03 0 .769-.111 1.62-.333 2.555-.11.44-.235.852-.374 1.237a3.504 3.504 0 0 1-.624 1.072c-.277.33-.568.632-.873.907a4.956 4.956 0 0 1-1.122.742c-.887.385-1.857.577-2.91.577-1.054 0-1.94-.192-2.661-.577a1.302 1.302 0 0 0-.333-.247 1.302 1.302 0 0 1-.332-.248v1.196c0 .192-.028.508-.084.948-.055.55-.235 1.278-.54 2.185-.305.907-1.012 1.69-2.12 2.35-.61.275-1.206.55-1.788.824-.582.275-1.095.495-1.538.66a30.634 30.634 0 0 1-4.033 1.567c-1.414.44-2.786.852-4.116 1.236l3.95 4.247a326.068 326.068 0 0 1 3.95 4.328 35.241 35.241 0 0 1 5.778-2.39c2.079-.66 4.144-.935 6.195-.825a15.13 15.13 0 0 1 4.698-2.515 27.616 27.616 0 0 1 5.28-1.196c-.72-.44-1.428-.838-2.12-1.195a21.86 21.86 0 0 1-2.038-1.196 38.45 38.45 0 0 1-2.619-1.649c-.97-.66-1.843-1.1-2.62-1.319a22.769 22.769 0 0 0-2.327-.371 7.382 7.382 0 0 0-2.329.124c-1.275.275-2.161.577-2.66.907-.5.33-1.164.742-1.996 1.236 1.164.88 2.259 1.8 3.284 2.763 1.026.962 2.176 1.992 3.451 3.092l-7.65-5.69c-.11-.055-.11-.137 0-.247 2.162-1.759 4.823-2.638 7.983-2.638.61 0 1.289.027 2.037.082.748.055 1.4.22 1.954.495 1.608.934 3.215 1.855 4.823 2.762 1.607.907 3.215 1.828 4.822 2.762zM88.145 49.812a4.4 4.4 0 0 0-.25 1.03c-.055.413-.083 1.251-.083 2.515 0 .44.07.88.208 1.32.139.44.319.879.54 1.319.222.385.541.7.957.948.416.247.845.371 1.289.371 1.22 0 2.079-.467 2.577-1.402a6.37 6.37 0 0 0 .583-1.731c.332-1.54.166-3.05-.5-4.535-.554-1.1-1.44-1.65-2.66-1.65a2.79 2.79 0 0 0-1.663.537c-.5.357-.832.783-.998 1.278zm29.352 9.4c0 .384-.222.577-.665.577h-2.079c-.333 0-.499-.193-.499-.578v-8.327a3.61 3.61 0 0 0-.083-.784c-.055-.247-.194-.508-.416-.783-.332-.495-.887-.714-1.663-.66-.166.055-.346.11-.54.165a3.668 3.668 0 0 0-.624.248c-.277.165-.513.316-.707.453a3.276 3.276 0 0 0-.623.619c-.167.22-.347.426-.54.618a2.056 2.056 0 0 0-.458.7c-.222.44-.333.88-.333 1.32v6.431c0 .385-.194.578-.582.578h-2.078c-.388 0-.582-.193-.582-.578V47.503a2.09 2.09 0 0 1 .249-1.278c.222-.412.61-.618 1.164-.618h.416c.61-.055 1.011.137 1.205.577.195.44.264.88.208 1.32v.494c.111-.11.222-.206.333-.289.11-.082.222-.178.333-.288a6.629 6.629 0 0 1 1.663-.99c.665-.275 1.413-.44 2.245-.494 1.33 0 2.439.357 3.326 1.071.887.77 1.33 1.677 1.33 2.721v9.482z" fill="#222"/></g></svg>