<?xml version="1.0" encoding="UTF-8"?>
<svg width="128px" height="43px" viewBox="0 0 128 43" version="1.1" xmlns="http://www.w3.org/2000/svg" xmlns:xlink="http://www.w3.org/1999/xlink">
    <!-- Generator: Sketch 51.3 (57544) - http://www.bohemiancoding.com/sketch -->
    <title>logo-ipf-red</title>
    <desc>Created with Sketch.</desc>
    <defs></defs>
    <g id="브랜드사이트" stroke="none" stroke-width="1" fill="none" fill-rule="evenodd">
        <g id="iPF_brandsite" transform="translate(-130.000000, -19.000000)">
            <g id="header/desktop">
                <g id="logo/ipf-red" transform="translate(130.000000, 19.000000)">
                    <g id="ci_iportfolio_white_in_red">
                        <rect id="Rectangle-path" fill="#EF5030" fill-rule="nonzero" x="0" y="0" width="127.960851" height="42.906168"></rect>
                        <path d="M19.2817021,16.4244063 C19.012766,16.1557113 18.9225532,15.7951838 18.9225532,15.3479257 C18.9048003,15.0105011 19.0360829,14.6822782 19.2817021,14.4500083 C19.5506383,14.1813133 19.8212766,14.0911815 20.2706383,14.0911815 C20.72,14.0911815 20.9889362,14.1813133 21.2595745,14.4500083 C21.5051937,14.6822782 21.6364763,15.0105011 21.6187234,15.3479257 C21.6187234,15.7968844 21.5285106,16.1557113 21.2595745,16.4244063 C20.9906383,16.6931013 20.72,16.7832331 20.2706383,16.7832331 C19.8212766,16.7832331 19.5506383,16.6931013 19.2817021,16.4244063 Z M21.3480851,30.6975521 L19.1914894,30.6975521 L19.1914894,18.9378948 L21.3480851,18.9378948 L21.3480851,30.6975521 Z M24.9412766,30.6975521 L24.9412766,14.5418408 C26.1089362,14.2731458 27.4570213,14.1830139 28.9838298,14.1830139 C30.9605674,14.1830139 32.4879433,14.6319726 33.5659574,15.5298901 C34.5548936,16.4278075 35.0042553,17.5944199 35.0042553,19.0314279 C35.0042553,20.561969 34.5548936,21.7251802 33.746383,22.5329658 C32.5787234,23.6995782 30.9617021,24.2335669 28.8102128,24.2335669 L27.8212766,24.2335669 C27.5781742,24.2538281 27.3335163,24.2231285 27.1029787,24.1434351 L27.1029787,30.6958515 L24.9412766,30.6958515 L24.9412766,30.6975521 Z M27.0978723,22.4394327 C27.6574907,22.5581147 28.2279143,22.6185254 28.8,22.6196964 C30.0578723,22.6196964 31.0468085,22.3510014 31.8553191,21.721779 C32.573617,21.0925565 32.932766,20.284771 32.932766,19.1181586 C32.932766,18.0411111 32.573617,17.2333256 31.8553191,16.6948019 C31.2255319,16.1557113 30.2382979,15.8870163 29.0706383,15.8870163 C28.0817021,15.8870163 27.3685106,15.9771482 27.0944681,16.06728 L27.0944681,22.4411333 L27.0978723,22.4394327 Z M37.8791489,29.2622447 C36.8902128,28.2741954 36.347234,26.7487561 36.347234,24.8627894 C36.347234,22.9768227 36.8868085,21.4513834 37.9642553,20.3749028 C39.0417021,19.2082904 40.3897872,18.6743017 42.0970213,18.6743017 C43.8042553,18.6743017 45.1523404,19.2133922 46.2297872,20.3749028 C47.2481018,21.5773362 47.7927428,23.109428 47.7617021,24.6842263 C47.7617021,26.7487561 47.1319149,28.2741954 45.9642553,29.4459096 C44.9753191,30.4339589 43.6289362,30.8829176 42.0102128,30.8829176 C40.4731758,30.9062372 38.9888833,30.3233179 37.8791489,29.2605441 L37.8791489,29.2622447 Z M44.5276596,28.0956322 C45.2459574,27.1977148 45.6051064,26.1212343 45.6051064,24.7743581 C45.6051064,23.6077457 45.3356028,22.6202633 44.7965957,21.8119109 C44.0782979,20.8238616 43.1795745,20.2813698 42.1004255,20.2813698 C40.8425532,20.2813698 39.9438298,20.7303285 39.3157447,21.7183778 C38.6893617,22.6179958 38.4153191,23.6893746 38.4153191,24.8627894 C38.3859373,26.0324755 38.7671091,27.175567 39.492766,28.0939316 C40.0866853,28.8867525 41.0198857,29.3535128 42.0110638,29.3535128 C43.0022419,29.3535128 43.9354423,28.8867525 44.5293617,28.0939316 L44.5276596,28.0956322 Z M50.4578723,30.6992527 L50.4578723,18.9378948 L52.2553191,18.9378948 L52.3455319,21.2711197 L52.4357447,21.2711197 C52.6699391,20.5371547 53.1057852,19.8836773 53.693617,19.385153 C54.3234043,18.9361942 54.9514894,18.6674993 55.5812766,18.6674993 L56.2995745,18.7576311 L56.2995745,20.7320291 L55.4910638,20.6418972 C54.807547,20.658614 54.1596069,20.949803 53.693617,21.4496828 C53.2442553,21.8986415 52.8851064,22.6162952 52.7046809,23.4240808 C52.625943,23.7471732 52.5955422,24.0801366 52.6144681,24.4121301 L52.6144681,30.7043545 L50.4595745,30.7043545 L50.4578723,30.6992527 Z M59.4434043,16.7849337 L61.5097872,16.1574119 L61.5097872,18.9395954 L64.653617,18.9395954 L64.653617,20.5551666 L61.5097872,20.5551666 L61.5097872,26.847391 C61.5097872,27.4766134 61.6,28.1041353 61.8689362,28.5479922 C62.1378723,28.906819 62.4987234,29.0870827 63.1268085,29.0870827 C63.7548936,29.0870827 64.1157447,29.0870827 64.3846809,28.9969509 L64.4748936,30.612522 C63.8605972,30.7886738 63.2246291,30.8779729 62.5855319,30.8778158 C61.5965957,30.8778158 60.7880851,30.6091208 60.2502128,29.9798984 C59.7123404,29.3506759 59.4417021,28.3643272 59.4417021,26.9273192 L59.4417021,20.553466 L57.6493617,20.553466 L57.6493617,18.9378948 L59.4468085,18.9378948 L59.4468085,16.7832331 L59.4434043,16.7849337 Z M69.3259574,30.6992527 L67.2612766,30.6992527 L67.2612766,20.553466 L65.5591489,20.553466 L65.5591489,18.9378948 L67.2612766,18.9378948 L67.2612766,18.3988043 C67.2489098,17.5834335 67.3363671,16.7696104 67.5217021,15.9754476 C67.7262264,15.3243844 68.0976727,14.7381075 68.5991489,14.2748464 C68.9787748,13.9035398 69.4406096,13.6268039 69.947234,13.4670608 C70.4344028,13.2748137 70.9555705,13.1834019 71.4791489,13.1983658 C72.4680851,13.1983658 72.827234,13.2884977 73.2765957,13.5571927 L73.0076596,15.1727638 C72.5796943,14.9976809 72.1220219,14.9064595 71.6595745,14.9040688 C70.7608511,14.9040688 70.1321986,15.2628957 69.773617,15.9805494 C69.4608186,16.7179278 69.3076793,17.5130744 69.3242553,18.3137742 L69.3242553,18.9429966 L72.1174468,18.9429966 L72.1174468,20.5585678 L69.3276596,20.5585678 L69.3276596,30.7026539 L69.3259574,30.6992527 Z M74.5378723,29.2622447 C73.4604255,28.1857641 72.9208511,26.7487561 72.9208511,24.8627894 C72.9208511,22.9768227 73.4604255,21.4513834 74.5378723,20.3749028 C75.7055319,19.2082904 77.053617,18.6743017 78.7608511,18.6743017 C80.4680851,18.6743017 81.8161702,19.2133922 82.8034043,20.3749028 C83.8808511,21.721779 84.4204255,22.8883914 84.4204255,24.6842263 C84.4204255,26.7487561 83.7923404,28.2741954 82.5344681,29.4459096 C81.5455319,30.4339589 80.1991489,30.8829176 78.5804255,30.8829176 C76.9617021,30.8829176 75.6170213,30.3387252 74.5378723,29.2605441 L74.5378723,29.2622447 Z M81.186383,28.0055004 C81.8215099,27.0465095 82.1649973,25.9242364 82.1753191,24.7743581 C82.1753191,23.6077457 81.9058156,22.6202633 81.3668085,21.8119109 C80.7370213,20.8238616 79.8348936,20.2813698 78.6706383,20.2813698 C77.506383,20.2813698 76.6042553,20.7303285 75.8859574,21.7183778 C75.346383,22.5261634 75.0774468,23.6026439 75.0774468,24.8593882 C75.0774468,26.0260006 75.4365957,27.0140499 76.066383,28.0020992 C76.6944681,28.9000166 77.5046809,29.3489753 78.5821277,29.3489753 C79.5693617,29.3506759 80.4680851,28.9017172 81.186383,28.0037998 L81.186383,28.0055004 Z M87.1165957,30.6992527 L87.1165957,13.461959 L89.1829787,13.461959 L89.1829787,30.6975521 L87.1165957,30.6975521 L87.1165957,30.6992527 Z M92.6876596,16.7849337 C92.4187234,16.5162387 92.3285106,16.1574119 92.3285106,15.7084532 C92.3107578,15.3710286 92.4420403,15.0428057 92.6876596,14.8105358 C92.9565957,14.5418408 93.227234,14.4517089 93.6765957,14.4517089 C94.1259574,14.4517089 94.3948936,14.5418408 94.6655319,14.8105358 C94.9111512,15.0428057 95.0424337,15.3710286 95.0246809,15.7084532 C95.0246809,16.1574119 94.9344681,16.5162387 94.6655319,16.7849337 C94.3965957,17.0536287 94.1259574,17.1437606 93.6765957,17.1437606 C93.227234,17.1437606 92.9565957,17.0570299 92.6876596,16.7832331 L92.6876596,16.7849337 Z M94.8442553,30.6992527 L92.7778723,30.6992527 L92.7778723,18.9378948 L94.8442553,18.9378948 L94.8442553,30.6975521 L94.8442553,30.6992527 Z M99.1574468,29.2622447 C98.08,28.1857641 97.5404255,26.7487561 97.5404255,24.8627894 C97.5404255,23.0669545 98.08,21.5415153 99.1574468,20.3749028 C100.325106,19.2082904 101.673191,18.6743017 103.380426,18.6743017 C105.08766,18.6743017 106.435745,19.2133922 107.513191,20.3749028 C108.531506,21.5773362 109.076147,23.109428 109.045106,24.6842263 C109.045106,26.7487561 108.415319,28.2741954 107.157447,29.4459096 C106.168511,30.4339589 104.822128,30.8829176 103.203404,30.8829176 C101.584681,30.8829176 100.234894,30.3387252 99.1574468,29.2605441 L99.1574468,29.2622447 Z M105.805957,28.0055004 C106.434043,27.1977148 106.794894,26.1195337 106.794894,24.7743581 C106.794894,23.6077457 106.52539,22.6202633 105.986383,21.8119109 C105.358298,20.8238616 104.454468,20.2813698 103.290213,20.2813698 C102.125957,20.2813698 101.22383,20.8204604 100.594043,21.8119109 C99.9659574,22.7081277 99.6919149,23.6893746 99.6919149,24.8627894 C99.6919149,26.2096655 99.8723404,27.0174511 100.680851,28.0055004 C101.489362,28.9034178 102.297872,29.3523765 103.196596,29.3523765 C104.188936,29.3506759 105.08766,28.9017172 105.805957,28.0037998 L105.805957,28.0055004 Z" id="Shape" fill="#FFFFFF" fill-rule="nonzero"></path>
                    </g>
                </g>
            </g>
        </g>
    </g>
</svg>