<?xml version="1.0" encoding="UTF-8"?>
<svg width="115px" height="23px" viewBox="0 0 115 23" version="1.1" xmlns="http://www.w3.org/2000/svg" xmlns:xlink="http://www.w3.org/1999/xlink">
    <!-- Generator: Sketch 51.1 (57501) - http://www.bohemiancoding.com/sketch -->
    <title>logo_ipf</title>
    <desc>Created with Sketch.</desc>
    <defs>
        <path d="M0.460307199,4.11213399 C0.117144692,3.76980453 0.00203321764,3.3104764 0.00203321764,2.74064951 C-0.0206194573,2.31075546 0.146897096,1.89258472 0.460307199,1.59666246 C0.803469706,1.254333 1.14880413,1.13950097 1.72218958,1.13950097 C2.29557504,1.13950097 2.63873755,1.254333 2.98407197,1.59666246 C3.29748207,1.89258472 3.46499862,2.31075546 3.44234595,2.74064951 C3.44234595,3.31264304 3.32723447,3.76980453 2.98407197,4.11213399 C2.64090946,4.45446345 2.29557504,4.56929548 1.72218958,4.56929548 C1.14880413,4.56929548 0.803469706,4.45446345 0.460307199,4.11213399 Z M3.09701153,22.2967615 L0.345195725,22.2967615 L0.345195725,7.31443108 L3.09701153,7.31443108 L3.09701153,22.2967615 Z M7.68192325,22.2967615 L7.68192325,1.71366114 C9.17185667,1.37133168 10.892013,1.25649964 12.8402204,1.25649964 C15.3625373,1.25649964 17.3114686,1.82849317 18.6870145,2.97248022 C19.9488969,4.11646728 20.5222824,5.60278379 20.5222824,7.4335964 C20.5222824,9.38357433 19.9488969,10.8655576 18.9172375,11.8947126 C17.4273041,13.3810291 15.3639852,14.0613547 12.6186851,14.0613547 L11.3568028,14.0613547 C11.0466042,14.0871683 10.7344207,14.0480556 10.4402548,13.9465227 L10.4402548,22.2945949 L7.68192325,22.2945949 L7.68192325,22.2967615 Z M10.4337391,11.7755473 C11.147812,11.9267535 11.8756724,12.0037194 12.6056537,12.0052113 C14.2106986,12.0052113 15.4725809,11.6628819 16.5042404,10.8612243 C17.4207883,10.0595667 17.8790623,9.03041166 17.8790623,7.54409515 C17.8790623,6.17188846 17.4207883,5.14273344 16.5042404,4.45663009 C15.700632,3.76980453 14.4409215,3.42747507 12.9509881,3.42747507 C11.6891057,3.42747507 10.7790735,3.54230711 10.4293952,3.65713914 L10.4293952,11.7777139 L10.4337391,11.7755473 Z M24.1906462,20.4681155 C22.9287638,19.2092965 22.235923,17.2658185 22.235923,14.8630123 C22.235923,12.4602062 22.9244199,10.5167282 24.2992419,9.14524369 C25.6740638,7.65892718 27.3942202,6.97860155 29.5726505,6.97860155 C31.7510809,6.97860155 33.4712373,7.66542711 34.8460592,9.14524369 C36.1454284,10.6771977 36.8403902,12.6291513 36.8007823,14.6355149 C36.8007823,17.2658185 35.9971739,19.2092965 34.5072405,20.7021129 C33.2453581,21.960932 31.5273737,22.5329255 29.4618829,22.5329255 C27.500624,22.5626358 25.6066671,21.8199705 24.1906462,20.4659489 L24.1906462,20.4681155 Z M32.6741446,18.981799 C33.5906926,17.837812 34.0489665,16.4663275 34.0489665,14.7503469 C34.0489665,13.2640304 33.7050801,12.0059335 33.0173071,10.9760563 C32.1007591,9.71723722 30.9539882,9.02607838 29.5769944,9.02607838 C27.9719495,9.02607838 26.8251786,9.5980719 26.0237421,10.856891 C25.2244775,12.0030447 24.8747993,13.3680292 24.8747993,14.8630123 C24.8373081,16.3532448 25.3236832,17.8095947 26.2496212,18.9796324 C27.0074622,19.9897217 28.1982258,20.5843953 29.4629689,20.5843953 C30.7277119,20.5843953 31.9184755,19.9897217 32.6763165,18.9796324 L32.6741446,18.981799 Z M40.2410951,22.2989282 L40.2410951,7.31443108 L42.5346369,7.31443108 L42.6497484,10.2870641 L42.7648598,10.2870641 C43.0636919,9.35195985 43.6198314,8.51940031 44.3699047,7.88425797 C45.1735131,7.31226444 45.9749496,6.96993498 46.778558,6.96993498 L47.695106,7.08476701 L47.695106,9.60023854 L46.6634465,9.48540651 C45.7912793,9.50670441 44.9645077,9.87769224 44.3699047,10.5145615 C43.7965193,11.0865551 43.3382453,12.000878 43.1080223,13.0300331 C43.0075529,13.4416673 42.9687614,13.8658775 42.9929109,14.2888521 L42.9929109,22.3054281 L40.243267,22.3054281 L40.2410951,22.2989282 Z M51.7066323,4.57146213 L54.3433366,3.77197118 L54.3433366,7.31659772 L58.3548629,7.31659772 L58.3548629,9.37490776 L54.3433366,9.37490776 L54.3433366,17.3914837 C54.3433366,18.1931413 54.4584481,18.9926322 54.8016106,19.5581258 C55.1447731,20.0152873 55.605219,20.2449514 56.4066555,20.2449514 C57.2080919,20.2449514 57.6685378,20.2449514 58.0117003,20.1301194 L58.1268118,22.1884294 C57.3429697,22.4128547 56.5314746,22.5266258 55.7159866,22.5264256 C54.4541042,22.5264256 53.4224448,22.1840961 52.7361198,21.3824385 C52.0497948,20.5807809 51.7044603,19.3241285 51.7044603,17.4933159 L51.7044603,9.37274112 L49.4174343,9.37274112 L49.4174343,7.31443108 L51.7109761,7.31443108 L51.7109761,4.56929548 L51.7066323,4.57146213 Z M64.3167684,22.2989282 L61.682236,22.2989282 L61.682236,9.37274112 L59.5103214,9.37274112 L59.5103214,7.31443108 L61.682236,7.31443108 L61.682236,6.62760552 C61.666456,5.58878661 61.7780515,4.55193957 62.014539,3.54014047 C62.2755118,2.71065682 62.7494774,1.96371377 63.3893609,1.37349832 C63.8737634,0.900437052 64.4630646,0.547863157 65.1095173,0.344343302 C65.7311445,0.0994118983 66.3961544,-0.0170508633 67.0642404,0.00201384316 C68.3261228,0.00201384316 68.7843968,0.116845877 69.3577822,0.459175336 L69.0146197,2.51748537 C68.4685361,2.29442195 67.8845462,2.17820172 67.2944634,2.17515591 C66.1476925,2.17515591 65.345532,2.63231741 64.887982,3.54664039 C64.4888513,4.48609355 64.2934455,5.49914603 64.3145965,6.51927341 L64.3145965,7.32093101 L67.8787084,7.32093101 L67.8787084,9.37924105 L64.3189404,9.37924105 L64.3189404,22.3032614 L64.3167684,22.2989282 Z M70.967171,20.4681155 C69.592349,19.0966311 68.9038521,17.2658185 68.9038521,14.8630123 C68.9038521,12.4602062 69.592349,10.5167282 70.967171,9.14524369 C72.4571044,7.65892718 74.1772607,6.97860155 76.3556911,6.97860155 C78.5341214,6.97860155 80.2542778,7.66542711 81.5139883,9.14524369 C82.8888102,10.8612243 83.5773071,12.3475408 83.5773071,14.6355149 C83.5773071,17.2658185 82.7758707,19.2092965 81.1708258,20.7021129 C79.9089434,21.960932 78.1909589,22.5329255 76.1254681,22.5329255 C74.0599774,22.5329255 72.3441648,21.8396 70.967171,20.4659489 L70.967171,20.4681155 Z M79.4506694,18.866967 C80.2610913,17.6451697 80.6993811,16.2153435 80.7125518,14.7503469 C80.7125518,13.2640304 80.3686653,12.0059335 79.6808923,10.9760563 C78.8772839,9.71723722 77.7261692,9.02607838 76.2405796,9.02607838 C74.75499,9.02607838 73.6038753,9.5980719 72.6873273,10.856891 C71.9988304,11.886046 71.6556679,13.2575305 71.6556679,14.858679 C71.6556679,16.3449955 72.1139419,17.6038146 72.9175503,18.8626337 C73.7189868,20.0066208 74.7528181,20.5786143 76.1276401,20.5786143 C77.3873505,20.5807809 78.5341214,20.0087874 79.4506694,18.8648004 L79.4506694,18.866967 Z M87.0176199,22.2989282 L87.0176199,0.337843376 L89.6543242,0.337843376 L89.6543242,22.2967615 L87.0176199,22.2967615 L87.0176199,22.2989282 Z M94.1262964,4.57146213 C93.7831339,4.22913267 93.6680224,3.77197118 93.6680224,3.19997765 C93.6453697,2.77008359 93.8128863,2.35191286 94.1262964,2.0559906 C94.4694589,1.71366114 94.8147933,1.5988291 95.3881788,1.5988291 C95.9615642,1.5988291 96.3047267,1.71366114 96.6500611,2.0559906 C96.9634712,2.35191286 97.1309878,2.77008359 97.1083351,3.19997765 C97.1083351,3.77197118 96.9932236,4.22913267 96.6500611,4.57146213 C96.3068986,4.91379159 95.9615642,5.02862362 95.3881788,5.02862362 C94.8147933,5.02862362 94.4694589,4.91812487 94.1262964,4.56929548 L94.1262964,4.57146213 Z M96.8781122,22.2989282 L94.2414078,22.2989282 L94.2414078,7.31443108 L96.8781122,7.31443108 L96.8781122,22.2967615 L96.8781122,22.2989282 Z M102.381744,20.4681155 C101.006922,19.0966311 100.318425,17.2658185 100.318425,14.8630123 C100.318425,12.5750382 101.006922,10.6315602 102.381744,9.14524369 C103.871677,7.65892718 105.591834,6.97860155 107.770264,6.97860155 C109.948694,6.97860155 111.668851,7.66542711 113.043673,9.14524369 C114.343042,10.6771977 115.038004,12.6291513 114.998396,14.6355149 C114.998396,17.2658185 114.194787,19.2092965 112.589742,20.7021129 C111.32786,21.960932 109.609876,22.5329255 107.544385,22.5329255 C105.478894,22.5329255 103.756566,21.8396 102.381744,20.4659489 L102.381744,20.4681155 Z M110.865242,18.866967 C111.666679,17.837812 112.127125,16.4641609 112.127125,14.7503469 C112.127125,13.2640304 111.783238,12.0059335 111.095465,10.9760563 C110.294029,9.71723722 109.140742,9.02607838 107.655152,9.02607838 C106.169563,9.02607838 105.018448,9.71290394 104.21484,10.9760563 C103.413403,12.1178767 103.063725,13.3680292 103.063725,14.8630123 C103.063725,16.5789929 103.293948,17.6081479 104.325607,18.866967 C105.357267,20.010954 106.388926,20.5829476 107.535697,20.5829476 C108.801923,20.5807809 109.948694,20.0087874 110.865242,18.8648004 L110.865242,18.866967 Z" id="path-1"></path>
    </defs>
    <g id="Page-1" stroke="none" stroke-width="1" fill="none" fill-rule="evenodd">
        <g id="iPF_brandsite01" transform="translate(-130.000000, -29.000000)">
            <g id="header/desktop">
                <g id="logo/ipf" transform="translate(130.000000, 29.000000)">
                    <mask id="mask-2" fill="white">
                        <use xlink:href="#path-1"></use>
                    </mask>
                    <use id="Mask" fill="#333333" fill-rule="nonzero" xlink:href="#path-1"></use>
                    <g id="color/bk" mask="url(#mask-2)" fill="#333" fill-rule="evenodd">
                        <rect id="Rectangle-2" x="0" y="0" width="114.561677" height="22.9123354"></rect>
                    </g>
                </g>
            </g>
        </g>
    </g>
</svg>
