<?xml version="1.0" encoding="UTF-8"?>
<svg width="115px" height="23px" viewBox="0 0 115 23" version="1.1" xmlns="http://www.w3.org/2000/svg" xmlns:xlink="http://www.w3.org/1999/xlink">
    <!-- Generator: Sketch 51.2 (57519) - http://www.bohemiancoding.com/sketch -->
    <title>logo-ipf-bk</title>
    <desc>Created with Sketch.</desc>
    <defs>
        <path d="M0.460307199,4.19721263 C0.117144692,3.84780049 0.00203321764,3.37896901 0.00203321764,2.79735261 C-0.0206194573,2.35856419 0.146897096,1.93174165 0.460307199,1.62969686 C0.803469706,1.28028472 1.14880413,1.16307685 1.72218958,1.16307685 C2.29557504,1.16307685 2.63873755,1.28028472 2.98407197,1.62969686 C3.29748207,1.93174165 3.46499862,2.35856419 3.44234595,2.79735261 C3.44234595,3.38118048 3.32723447,3.84780049 2.98407197,4.19721263 C2.64090946,4.54662476 2.29557504,4.66383263 1.72218958,4.66383263 C1.14880413,4.66383263 0.803469706,4.54662476 0.460307199,4.19721263 Z M3.09701153,22.7580738 L0.345195725,22.7580738 L0.345195725,7.46576414 L3.09701153,7.46576414 L3.09701153,22.7580738 Z M7.68192325,22.7580738 L7.68192325,1.7491162 C9.17185667,1.39970406 10.892013,1.28249619 12.8402204,1.28249619 C15.3625373,1.28249619 17.3114686,1.86632406 18.6870145,3.03397981 C19.9488969,4.20163556 20.5222824,5.71870345 20.5222824,7.58739495 C20.5222824,9.57771725 19.9488969,11.0903622 18.9172375,12.1408101 C17.4273041,13.657878 15.3639852,14.3522793 12.6186851,14.3522793 L11.3568028,14.3522793 C11.0466042,14.378627 10.7344207,14.3387051 10.4402548,14.2350714 L10.4402548,22.7558624 L7.68192325,22.7558624 L7.68192325,22.7580738 Z M10.4337391,12.0191793 C11.147812,12.1735139 11.8756724,12.2520722 12.6056537,12.253595 C14.2106986,12.253595 15.4725809,11.9041829 16.5042404,11.0859393 C17.4207883,10.2676956 17.8790623,9.21724776 17.8790623,7.70017988 C17.8790623,6.2995827 17.4207883,5.24913482 16.5042404,4.54883623 C15.700632,3.84780049 14.4409215,3.49838835 12.9509881,3.49838835 C11.6891057,3.49838835 10.7790735,3.61559622 10.4293952,3.73280409 L10.4293952,12.0213907 L10.4337391,12.0191793 Z M24.1906462,20.8915938 C22.9287638,19.6067302 22.235923,17.6230423 22.235923,15.1705229 C22.235923,12.7180035 22.9244199,10.7343157 24.2992419,9.33445563 C25.6740638,7.81738775 27.3942202,7.12298641 29.5726505,7.12298641 C31.7510809,7.12298641 33.4712373,7.82402215 34.8460592,9.33445563 C36.1454284,10.8981052 36.8403902,12.8904441 36.8007823,14.9383186 C36.8007823,17.6230423 35.9971739,19.6067302 34.5072405,21.1304325 C33.2453581,22.4152961 31.5273737,22.999124 29.4618829,22.999124 C27.500624,23.0294489 25.6066671,22.2714181 24.1906462,20.8893823 L24.1906462,20.8915938 Z M32.6741446,19.3745259 C33.5906926,18.2068702 34.0489665,16.8070101 34.0489665,15.0555265 C34.0489665,13.5384586 33.7050801,12.2543322 33.0173071,11.2031471 C32.1007591,9.91828351 30.9539882,9.21282483 29.5769944,9.21282483 C27.9719495,9.21282483 26.8251786,9.7966527 26.0237421,11.0815163 C25.2244775,12.2513835 24.8747993,13.6446091 24.8747993,15.1705229 C24.8373081,16.6915878 25.3236832,18.1780691 26.2496212,19.3723144 C27.0074622,20.4033021 28.1982258,21.0102793 29.4629689,21.0102793 C30.7277119,21.0102793 31.9184755,20.4033021 32.6763165,19.3723144 L32.6741446,19.3745259 Z M40.2410951,22.7602853 L40.2410951,7.46576414 L42.5346369,7.46576414 L42.6497484,10.4998999 L42.7648598,10.4998999 C43.0636919,9.54544867 43.6198314,8.69566376 44.3699047,8.04738054 C45.1735131,7.46355267 45.9749496,7.11414053 46.778558,7.11414053 L47.695106,7.2313484 L47.695106,9.79886417 L46.6634465,9.6816563 C45.7912793,9.70339484 44.9645077,10.0820583 44.3699047,10.7321042 C43.7965193,11.3159321 43.3382453,12.2491721 43.1080223,13.29962 C43.0075529,13.7197707 42.9687614,14.1527578 42.9929109,14.5844836 L42.9929109,22.7669197 L40.243267,22.7669197 L40.2410951,22.7602853 Z M51.7066323,4.6660441 L54.3433366,3.85001196 L54.3433366,7.46797561 L58.3548629,7.46797561 L58.3548629,9.56887137 L54.3433366,9.56887137 L54.3433366,17.7513075 C54.3433366,18.5695511 54.4584481,19.3855833 54.8016106,19.9627767 C55.1447731,20.4293967 55.605219,20.6638125 56.4066555,20.6638125 C57.2080919,20.6638125 57.6685378,20.6638125 58.0117003,20.5466046 L58.1268118,22.6475004 C57.3429697,22.8765689 56.5314746,22.9926939 55.7159866,22.9924896 C54.4541042,22.9924896 53.4224448,22.6430774 52.7361198,21.8248338 C52.0497948,21.0065902 51.7044603,19.723938 51.7044603,17.8552466 L51.7044603,9.5666599 L49.4174343,9.5666599 L49.4174343,7.46576414 L51.7109761,7.46576414 L51.7109761,4.66383263 L51.7066323,4.6660441 Z M64.3167684,22.7602853 L61.682236,22.7602853 L61.682236,9.5666599 L59.5103214,9.5666599 L59.5103214,7.46576414 L61.682236,7.46576414 L61.682236,6.76472839 C61.666456,5.70441668 61.7780515,4.64611763 62.014539,3.61338475 C62.2755118,2.76673938 62.7494774,2.00434233 63.3893609,1.40191553 C63.8737634,0.919066784 64.4630646,0.559198256 65.1095173,0.351467646 C65.7311445,0.101468696 66.3961544,-0.0174036398 67.0642404,0.00205550888 C68.3261228,0.00205550888 68.7843968,0.119263378 69.3577822,0.468675515 L69.0146197,2.56957128 C68.4685361,2.34189275 67.8845462,2.22326797 67.2944634,2.22015914 C66.1476925,2.22015914 65.345532,2.68677915 64.887982,3.62001916 C64.4888513,4.57890928 64.2934455,5.61292147 64.3145965,6.65415493 L64.3145965,7.47239855 L67.8787084,7.47239855 L67.8787084,9.57329431 L64.3189404,9.57329431 L64.3189404,22.7647082 L64.3167684,22.7602853 Z M70.967171,20.8915938 C69.592349,19.4917338 68.9038521,17.6230423 68.9038521,15.1705229 C68.9038521,12.7180035 69.592349,10.7343157 70.967171,9.33445563 C72.4571044,7.81738775 74.1772607,7.12298641 76.3556911,7.12298641 C78.5341214,7.12298641 80.2542778,7.82402215 81.5139883,9.33445563 C82.8888102,11.0859393 83.5773071,12.6030071 83.5773071,14.9383186 C83.5773071,17.6230423 82.7758707,19.6067302 81.1708258,21.1304325 C79.9089434,22.4152961 78.1909589,22.999124 76.1254681,22.999124 C74.0599774,22.999124 72.3441648,22.2914538 70.967171,20.8893823 L70.967171,20.8915938 Z M79.4506694,19.257318 C80.2610913,18.0102421 80.6993811,16.5508333 80.7125518,15.0555265 C80.7125518,13.5384586 80.3686653,12.2543322 79.6808923,11.2031471 C78.8772839,9.91828351 77.7261692,9.21282483 76.2405796,9.21282483 C74.75499,9.21282483 73.6038753,9.7966527 72.6873273,11.0815163 C71.9988304,12.1319642 71.6556679,13.5318242 71.6556679,15.1661 C71.6556679,16.6831679 72.1139419,17.9680315 72.9175503,19.2528951 C73.7189868,20.4205509 74.7528181,21.0043787 76.1276401,21.0043787 C77.3873505,21.0065902 78.5341214,20.4227623 79.4506694,19.2551066 L79.4506694,19.257318 Z M87.0176199,22.7602853 L87.0176199,0.344833239 L89.6543242,0.344833239 L89.6543242,22.7580738 L87.0176199,22.7580738 L87.0176199,22.7602853 Z M94.1262964,4.6660441 C93.7831339,4.31663196 93.6680224,3.85001196 93.6680224,3.26618408 C93.6453697,2.82739567 93.8128863,2.40057312 94.1262964,2.09852833 C94.4694589,1.7491162 94.8147933,1.63190833 95.3881788,1.63190833 C95.9615642,1.63190833 96.3047267,1.7491162 96.6500611,2.09852833 C96.9634712,2.40057312 97.1309878,2.82739567 97.1083351,3.26618408 C97.1083351,3.85001196 96.9932236,4.31663196 96.6500611,4.6660441 C96.3068986,5.01545624 95.9615642,5.13266411 95.3881788,5.13266411 C94.8147933,5.13266411 94.4694589,5.01987918 94.1262964,4.66383263 L94.1262964,4.6660441 Z M96.8781122,22.7602853 L94.2414078,22.7602853 L94.2414078,7.46576414 L96.8781122,7.46576414 L96.8781122,22.7580738 L96.8781122,22.7602853 Z M102.381744,20.8915938 C101.006922,19.4917338 100.318425,17.6230423 100.318425,15.1705229 C100.318425,12.8352114 101.006922,10.8515235 102.381744,9.33445563 C103.871677,7.81738775 105.591834,7.12298641 107.770264,7.12298641 C109.948694,7.12298641 111.668851,7.82402215 113.043673,9.33445563 C114.343042,10.8981052 115.038004,12.8904441 114.998396,14.9383186 C114.998396,17.6230423 114.194787,19.6067302 112.589742,21.1304325 C111.32786,22.4152961 109.609876,22.999124 107.544385,22.999124 C105.478894,22.999124 103.756566,22.2914538 102.381744,20.8893823 L102.381744,20.8915938 Z M110.865242,19.257318 C111.666679,18.2068702 112.127125,16.8047987 112.127125,15.0555265 C112.127125,13.5384586 111.783238,12.2543322 111.095465,11.2031471 C110.294029,9.91828351 109.140742,9.21282483 107.655152,9.21282483 C106.169563,9.21282483 105.018448,9.91386057 104.21484,11.2031471 C103.413403,12.3685914 103.063725,13.6446091 103.063725,15.1705229 C103.063725,16.9220065 103.293948,17.9724544 104.325607,19.257318 C105.357267,20.4249738 106.388926,21.0088017 107.535697,21.0088017 C108.801923,21.0065902 109.948694,20.4227623 110.865242,19.2551066 L110.865242,19.257318 Z" id="path-1"></path>
    </defs>
    <g id="Symbols" stroke="none" stroke-width="1" fill="none" fill-rule="evenodd">
        <g id="logo/ipf">
            <g id="logo-ipf-bk">
                <mask id="mask-2" fill="white">
                    <use xlink:href="#path-1"></use>
                </mask>
                <use id="Mask" fill="#333333" fill-rule="nonzero" xlink:href="#path-1"></use>
                <g id="color/bk" mask="url(#mask-2)" fill="#333333">
                    <rect id="Rectangle-2" x="0" y="0" width="114.561677" height="22.9123354"></rect>
                </g>
            </g>
        </g>
    </g>
</svg>