<?xml version="1.0" encoding="UTF-8"?>
<svg width="156px" height="37px" viewBox="0 0 156 37" version="1.1" xmlns="http://www.w3.org/2000/svg" xmlns:xlink="http://www.w3.org/1999/xlink">
    <!-- Generator: Sketch 51.2 (57519) - http://www.bohemiancoding.com/sketch -->
    <title>logo-ipf-wh</title>
    <desc>Created with Sketch.</desc>
    <defs>
        <path d="M0.592395352,5.29213766 C0.150760125,4.85157453 0.00261666271,4.26043919 0.00261666271,3.52709677 C-0.026536345,2.9738418 0.189050175,2.43567425 0.592395352,2.05483517 C1.03403058,1.61427204 1.47846096,1.4664882 2.21638312,1.4664882 C2.95430527,1.4664882 3.39594049,1.61427204 3.84037088,2.05483517 C4.24371606,2.43567425 4.45930258,2.9738418 4.43014957,3.52709677 C4.43014957,4.26322756 4.28200611,4.85157453 3.84037088,5.29213766 C3.39873565,5.73270079 2.95430527,5.88048462 2.21638312,5.88048462 C1.47846096,5.88048462 1.03403058,5.73270079 0.592395352,5.29213766 Z M3.98571918,28.6949626 L0.444251889,28.6949626 L0.444251889,9.41335478 L3.98571918,9.41335478 L3.98571918,28.6949626 Z M9.88630123,28.6949626 L9.88630123,2.20540738 C11.8037808,1.76484425 14.0175472,1.61706041 16.5248054,1.61706041 C19.7709175,1.61706041 22.2791075,2.35319121 24.0493752,3.82545281 C25.673363,5.29771441 26.4112852,7.21053914 26.4112852,9.56671537 C26.4112852,12.0762522 25.673363,13.9835002 24.3456622,15.3079779 C22.4281826,17.2208027 19.772781,18.0963522 16.2396991,18.0963522 L14.6157114,18.0963522 C14.2164993,18.1295731 13.8147327,18.0792368 13.436154,17.9485683 L13.436154,28.6921743 L9.88630123,28.6921743 L9.88630123,28.6949626 Z M13.4277685,15.1546173 C14.3467493,15.3492132 15.283474,15.448265 16.2229282,15.450185 C18.2885512,15.450185 19.9125389,15.0096219 21.2402398,13.9779234 C22.4197972,12.9462249 23.0095758,11.6217472 23.0095758,9.70892245 C23.0095758,7.9429521 22.4197972,6.61847434 21.2402398,5.73548916 C20.2060307,4.85157453 18.5848381,4.4110114 16.6673586,4.4110114 C15.0433708,4.4110114 13.8721989,4.55879523 13.4221782,4.70657907 L13.4221782,15.1574057 L13.4277685,15.1546173 Z M31.1323098,26.3415748 C29.5083221,24.7215294 28.6166661,22.2203577 28.6166661,19.1280506 C28.6166661,16.0357436 29.5027317,13.5345719 31.2720678,11.769531 C33.0414039,9.85670629 35.2551703,8.98115678 38.0587155,8.98115678 C40.8622606,8.98115678 43.0760271,9.86507141 44.8453631,11.769531 C46.5175948,13.7410892 47.4119804,16.2531686 47.3610068,18.8352713 C47.3610068,22.2203577 46.3267978,24.7215294 44.4093182,26.6427192 C42.7853305,28.2627646 40.5743592,28.9988954 37.9161623,28.9988954 C35.3921074,29.0371313 32.9546672,28.0813533 31.1323098,26.3387864 L31.1323098,26.3415748 Z M42.0502035,24.4287501 C43.2297609,22.9564885 43.8195395,21.1914476 43.8195395,18.9830552 C43.8195395,17.0702304 43.3769726,15.4511145 42.4918387,14.1257072 C41.3122813,12.5056618 39.836437,11.6161704 38.0643058,11.6161704 C35.9986828,11.6161704 34.5228385,12.3523012 33.4914246,13.9723467 C32.4628058,15.4473966 32.0127851,17.2040724 32.0127851,19.1280506 C31.9645356,21.0459151 32.5904793,22.9201741 33.7821212,24.4259617 C34.7574297,25.7259026 36.2898906,26.4912218 37.9175599,26.4912218 C39.5452293,26.4912218 41.0776902,25.7259026 42.0529986,24.4259617 L42.0502035,24.4287501 Z M51.7885397,28.697751 L51.7885397,9.41335478 L54.7402283,9.41335478 L54.8883718,13.2390042 L55.0365153,13.2390042 C55.4210992,12.0355657 56.1368265,10.9640978 57.1021383,10.1466972 C58.1363473,9.41056641 59.1677612,8.97000328 60.2019703,8.97000328 L61.3815277,9.11778711 L61.3815277,12.3550896 L60.0538269,12.2073058 C58.9313855,12.2347152 57.8673664,12.7121604 57.1021383,13.5317835 C56.3642161,14.2679143 55.7744374,15.4446083 55.4781505,16.769086 C55.3488507,17.2988414 55.2989277,17.8447815 55.330007,18.3891315 L55.330007,28.7061161 L51.7913349,28.7061161 L51.7885397,28.697751 Z M66.5441876,5.883273 L69.9375114,4.8543629 L69.9375114,9.41614316 L75.1001713,9.41614316 L75.1001713,12.0650987 L69.9375114,12.0650987 L69.9375114,22.3820834 C69.9375114,23.4137818 70.0856549,24.4426919 70.5272901,25.1704576 C70.9689253,25.7588046 71.5614992,26.0543722 72.5929131,26.0543722 C73.624327,26.0543722 74.2169009,26.0543722 74.6585361,25.9065884 L74.8066796,28.5555439 C73.7979088,28.8443695 72.7535499,28.9907879 71.7040523,28.9905303 C70.0800646,28.9905303 68.7523637,28.5499672 67.8690933,27.5182687 C66.9858228,26.4865702 66.5413924,24.8693132 66.5413924,22.513137 L66.5413924,12.0623103 L63.5980893,12.0623103 L63.5980893,9.41335478 L66.5497779,9.41335478 L66.5497779,5.88048462 L66.5441876,5.883273 Z M82.7728846,28.697751 L79.3823559,28.697751 L79.3823559,12.0623103 L76.5871963,12.0623103 L76.5871963,9.41335478 L79.3823559,9.41335478 L79.3823559,8.52944015 C79.3620477,7.19252538 79.5056663,5.85814831 79.8100154,4.55600686 C80.1458761,3.48849747 80.7558491,2.52721424 81.5793514,1.76763262 C82.2027564,1.15882334 82.9611614,0.705076062 83.7931179,0.443154858 C84.5931252,0.127938791 85.4489639,-0.0219437197 86.3087616,0.00259172859 C87.9327493,0.00259172859 88.522528,0.150375563 89.2604502,0.590938693 L88.818815,3.23989422 C88.1160291,2.95282129 87.3644594,2.80325091 86.6050485,2.79933109 C85.1292042,2.79933109 84.0968586,3.38767805 83.5080116,4.56437198 C82.9943477,5.77340735 82.742869,7.07716185 82.7700894,8.39002144 L82.7700894,9.42171991 L87.3569465,9.42171991 L87.3569465,12.0706754 L82.7756798,12.0706754 L82.7756798,28.7033278 L82.7728846,28.697751 Z M91.3316635,26.3415748 C89.5623274,24.5765339 88.6762618,22.2203577 88.6762618,19.1280506 C88.6762618,16.0357436 89.5623274,13.5345719 91.3316635,11.769531 C93.249143,9.85670629 95.4629095,8.98115678 98.2664546,8.98115678 C101.07,8.98115678 103.283766,9.86507141 104.904959,11.769531 C106.674295,13.9779234 107.56036,15.8907481 107.56036,18.8352713 C107.56036,22.2203577 106.528947,24.7215294 104.463324,26.6427192 C102.839336,28.2627646 100.628365,28.9988954 97.9701677,28.9988954 C95.3119709,28.9988954 93.1037947,28.1066157 91.3316635,26.3387864 L91.3316635,26.3415748 Z M102.249557,24.2809662 C103.292535,22.7085662 103.856595,20.868442 103.873545,18.9830552 C103.873545,17.0702304 103.430978,15.4511145 102.545844,14.1257072 C101.511635,12.5056618 100.0302,11.6161704 98.1183112,11.6161704 C96.2064219,11.6161704 94.7249873,12.3523012 93.5454299,13.9723467 C92.6593643,15.2968244 92.2177291,17.0618653 92.2177291,19.1224739 C92.2177291,21.0352986 92.8075078,22.655344 93.8417169,24.2753895 C94.8731308,25.7476511 96.2036268,26.4837819 97.9729629,26.4837819 C99.5941555,26.4865702 101.07,25.7504394 102.249557,24.2781778 L102.249557,24.2809662 Z M111.987893,28.697751 L111.987893,0.434789736 L115.381217,0.434789736 L115.381217,28.6949626 L111.987893,28.6949626 L111.987893,28.697751 Z M121.136451,5.883273 C120.694816,5.44270987 120.546672,4.8543629 120.546672,4.1182321 C120.517519,3.56497714 120.733106,3.02680959 121.136451,2.64597051 C121.578086,2.20540738 122.022517,2.05762354 122.760439,2.05762354 C123.498361,2.05762354 123.939996,2.20540738 124.384427,2.64597051 C124.787772,3.02680959 125.003358,3.56497714 124.974205,4.1182321 C124.974205,4.8543629 124.826062,5.44270987 124.384427,5.883273 C123.942791,6.32383613 123.498361,6.47161996 122.760439,6.47161996 C122.022517,6.47161996 121.578086,6.32941288 121.136451,5.88048462 L121.136451,5.883273 Z M124.677918,28.697751 L121.284594,28.697751 L121.284594,9.41335478 L124.677918,9.41335478 L124.677918,28.6949626 L124.677918,28.697751 Z M131.760853,26.3415748 C129.991517,24.5765339 129.105451,22.2203577 129.105451,19.1280506 C129.105451,16.1835274 129.991517,13.6823557 131.760853,11.769531 C133.678332,9.85670629 135.892099,8.98115678 138.695644,8.98115678 C141.499189,8.98115678 143.712956,9.86507141 145.482292,11.769531 C147.154523,13.7410892 148.048909,16.2531686 147.997935,18.8352713 C147.997935,22.2203577 146.963726,24.7215294 144.898103,26.6427192 C143.274116,28.2627646 141.063144,28.9988954 138.404947,28.9988954 C135.746751,28.9988954 133.530189,28.1066157 131.760853,26.3387864 L131.760853,26.3415748 Z M142.678747,24.2809662 C143.71016,22.9564885 144.302734,21.1886592 144.302734,18.9830552 C144.302734,17.0702304 143.860167,15.4511145 142.975033,14.1257072 C141.94362,12.5056618 140.45939,11.6161704 138.547501,11.6161704 C136.635611,11.6161704 135.154177,12.5000851 134.119968,14.1257072 C133.088554,15.5951805 132.638533,17.2040724 132.638533,19.1280506 C132.638533,21.336443 132.93482,22.6609208 134.262521,24.2809662 C135.590222,25.7532278 136.917922,26.4893586 138.393767,26.4893586 C140.023345,26.4865702 141.499189,25.7504394 142.678747,24.2781778 L142.678747,24.2809662 Z" id="path-1"></path>
        <filter x="-4.7%" y="-17.2%" width="109.5%" height="148.3%" filterUnits="objectBoundingBox" id="filter-3">
            <feOffset dx="0" dy="2" in="SourceAlpha" result="shadowOffsetOuter1"></feOffset>
            <feGaussianBlur stdDeviation="2" in="shadowOffsetOuter1" result="shadowBlurOuter1"></feGaussianBlur>
            <feColorMatrix values="0 0 0 0 0   0 0 0 0 0   0 0 0 0 0  0 0 0 0.5 0" type="matrix" in="shadowBlurOuter1"></feColorMatrix>
        </filter>
    </defs>
    <g id="Symbols" stroke="none" stroke-width="1" fill="none" fill-rule="evenodd">
        <g id="logo/ipf_wh" transform="translate(4.000000, 2.000000)">
            <g id="logo-ipf-wh">
                <mask id="mask-2" fill="white">
                    <use xlink:href="#path-1"></use>
                </mask>
                <g id="Mask" fill-rule="nonzero">
                    <use fill="black" fill-opacity="1" filter="url(#filter-3)" xlink:href="#path-1"></use>
                    <use fill="#333333" xlink:href="#path-1"></use>
                </g>
                <g id="color/wh" mask="url(#mask-2)" fill="#FFFFFF">
                    <rect id="Rectangle-2" x="0" y="0" width="148" height="29"></rect>
                </g>
            </g>
        </g>
    </g>
</svg>