<svg width="156" height="37" xmlns="http://www.w3.org/2000/svg" xmlns:xlink="http://www.w3.org/1999/xlink"><defs><path d="M.592 5.292c-.441-.44-.59-1.032-.59-1.765a1.888 1.888 0 0 1 .59-1.472c.442-.44.886-.589 1.624-.589.738 0 1.18.148 1.624.589.404.38.62.919.59 1.472 0 .736-.148 1.325-.59 1.765-.441.44-.886.588-1.624.588-.738 0-1.182-.147-1.624-.588zm3.394 23.403H.444V9.413h3.542v19.282zm5.9 0V2.205c1.918-.44 4.132-.588 6.639-.588 3.246 0 5.754.736 7.524 2.208 1.624 1.473 2.362 3.386 2.362 5.742 0 2.51-.738 4.417-2.065 5.741-1.918 1.913-4.573 2.788-8.106 2.788h-1.624c-.4.034-.801-.017-1.18-.147v10.743h-3.55v.003zm3.542-13.54c.919.194 1.855.293 2.795.295 2.066 0 3.69-.44 5.017-1.472 1.18-1.032 1.77-2.356 1.77-4.27 0-1.765-.59-3.09-1.77-3.973-1.034-.883-2.655-1.324-4.573-1.324-1.624 0-2.795.148-3.245.296v10.45l.006-.002zm17.704 11.187c-1.624-1.62-2.515-4.122-2.515-7.214 0-3.092.886-5.593 2.655-7.358 1.77-1.913 3.983-2.789 6.787-2.789 2.803 0 5.017.884 6.786 2.789a10.6 10.6 0 0 1 2.516 7.065c0 3.385-1.034 5.887-2.952 7.808-1.624 1.62-3.835 2.356-6.493 2.356a9.606 9.606 0 0 1-6.784-2.66v.003zm10.918-1.913c1.18-1.473 1.77-3.238 1.77-5.446 0-1.913-.443-3.532-1.328-4.857-1.18-1.62-2.656-2.51-4.428-2.51-2.065 0-3.541.736-4.573 2.356-1.028 1.475-1.478 3.232-1.478 5.156a8.204 8.204 0 0 0 1.77 5.298 5.17 5.17 0 0 0 4.135 2.065 5.17 5.17 0 0 0 4.135-2.065l-.003.003zm9.739 4.269V9.413h2.951l.148 3.826h.149a6.741 6.741 0 0 1 2.065-3.092c1.034-.736 2.066-1.177 3.1-1.177l1.18.148v3.237l-1.328-.148a4.178 4.178 0 0 0-2.952 1.325c-.738.736-1.328 1.913-1.624 3.237-.13.53-.18 1.076-.148 1.62v10.317h-3.539l-.002-.008zM66.544 5.883l3.394-1.029v4.562H75.1v2.65h-5.162v10.316c0 1.032.148 2.06.59 2.788.44.589 1.033.884 2.065.884 1.031 0 1.624 0 2.066-.147l.148 2.649a11.262 11.262 0 0 1-3.103.435c-1.624 0-2.952-.441-3.835-1.473-.883-1.031-1.328-2.649-1.328-5.005v-10.45h-2.943v-2.65h2.952V5.88l-.006.003zm16.229 22.815h-3.39V12.062h-2.796V9.413h2.795V8.53c-.02-1.336.124-2.67.428-3.973a6.411 6.411 0 0 1 1.77-2.788A5.557 5.557 0 0 1 83.792.443a6.367 6.367 0 0 1 2.516-.44c1.624 0 2.214.147 2.951.588L88.82 3.24a5.935 5.935 0 0 0-2.214-.44c-1.476 0-2.508.588-3.097 1.764a9.29 9.29 0 0 0-.738 3.826v1.032h4.587v2.649h-4.581v16.632l-.003-.005zm8.559-2.356c-1.77-1.765-2.656-4.122-2.656-7.214 0-3.092.886-5.593 2.656-7.358 1.917-1.913 4.13-2.789 6.934-2.789 2.804 0 5.018.884 6.639 2.789 1.77 2.208 2.655 4.12 2.655 7.065 0 3.385-1.031 5.887-3.097 7.808-1.624 1.62-3.835 2.356-6.493 2.356-2.658 0-4.866-.892-6.638-2.66v.003zm10.918-2.061a9.743 9.743 0 0 0 1.624-5.298c0-1.913-.443-3.532-1.328-4.857-1.034-1.62-2.516-2.51-4.428-2.51s-3.393.736-4.573 2.356c-.886 1.325-1.327 3.09-1.327 5.15 0 1.913.59 3.533 1.624 5.153 1.031 1.473 2.362 2.209 4.131 2.209 1.621.003 3.097-.734 4.277-2.206v.003zm9.738 4.417V.435h3.393v28.26h-3.393v.003zm9.148-22.815c-.441-.44-.59-1.029-.59-1.765a1.888 1.888 0 0 1 .59-1.472c.442-.44.887-.588 1.624-.588.738 0 1.18.147 1.624.588.404.38.62.919.59 1.472 0 .736-.148 1.325-.59 1.765-.441.44-.886.589-1.624.589-.737 0-1.182-.143-1.624-.592v.003zm3.542 22.815h-3.393V9.413h3.393v19.285zm7.083-2.356c-1.77-1.765-2.656-4.122-2.656-7.214 0-2.944.887-5.446 2.656-7.358 1.917-1.913 4.131-2.789 6.935-2.789 2.803 0 5.017.884 6.786 2.789a10.6 10.6 0 0 1 2.516 7.065c0 3.385-1.034 5.887-3.1 7.808-1.624 1.62-3.835 2.356-6.493 2.356-2.658 0-4.875-.892-6.644-2.66v.003zm10.918-2.061c1.031-1.325 1.624-3.092 1.624-5.298 0-1.913-.443-3.532-1.328-4.857-1.031-1.62-2.516-2.51-4.427-2.51-1.912 0-3.394.884-4.428 2.51-1.031 1.47-1.481 3.078-1.481 5.002 0 2.208.296 3.533 1.624 5.153 1.327 1.472 2.655 2.208 4.13 2.208 1.63-.002 3.106-.739 4.286-2.21v.002z" id="a"/><filter x="-4.7%" y="-17.2%" width="109.5%" height="148.3%" filterUnits="objectBoundingBox" id="b"><feOffset dy="2" in="SourceAlpha" result="shadowOffsetOuter1"/><feGaussianBlur stdDeviation="2" in="shadowOffsetOuter1" result="shadowBlurOuter1"/><feColorMatrix values="0 0 0 0 0 0 0 0 0 0 0 0 0 0 0 0 0 0 0.5 0" in="shadowBlurOuter1"/></filter></defs><g transform="translate(4 2)" fill="none" fill-rule="evenodd"><mask id="c" fill="#fff"><use xlink:href="#a"/></mask><g fill-rule="nonzero"><use fill="#000" filter="url(#b)" xlink:href="#a"/><use fill="#333" xlink:href="#a"/></g><g mask="url(#c)" fill="#FFF"><path d="M0 0h148v29H0z"/></g></g></svg>